G04 DipTrace 3.3.1.3*
G04 Bottom.gbr*
%MOIN*%
G04 #@! TF.FileFunction,Copper,L2,Bot*
G04 #@! TF.Part,Single*
%AMOUTLINE0*
4,1,20,
-0.02608,0.026058,
-0.024514,0.034979,
-0.019993,0.042827,
-0.013059,0.048655,
-0.004551,0.05176,
0.004507,0.051768,
0.01302,0.048677,
0.019963,0.042861,
0.0245,0.035021,
0.02608,0.026102,
0.02608,-0.026058,
0.024514,-0.034979,
0.019993,-0.042827,
0.013059,-0.048655,
0.004551,-0.05176,
-0.004507,-0.051768,
-0.01302,-0.048677,
-0.019963,-0.042861,
-0.0245,-0.035021,
-0.02608,-0.026102,
-0.02608,0.026058,
0*%
%AMOUTLINE3*
4,1,8,
0.030488,-0.012629,
0.012629,-0.030488,
-0.012629,-0.030488,
-0.030488,-0.012629,
-0.030488,0.012629,
-0.012629,0.030488,
0.012629,0.030488,
0.030488,0.012629,
0.030488,-0.012629,
0*%
G04 #@! TA.AperFunction,Conductor*
%ADD14C,0.012992*%
G04 #@! TA.AperFunction,ViaPad*
%ADD15C,0.04*%
G04 #@! TA.AperFunction,ComponentPad*
%ADD17R,0.055118X0.055118*%
%ADD18C,0.055118*%
%ADD19R,0.062992X0.062992*%
%ADD20C,0.062992*%
%ADD21C,0.062992*%
%ADD27C,0.07*%
%ADD28R,0.066929X0.066929*%
%ADD29C,0.066929*%
%ADD62OUTLINE0*%
%ADD65OUTLINE3*%
%FSLAX26Y26*%
G04*
G70*
G90*
G75*
G01*
G04 Bottom*
%LPD*%
X2423700Y1053700D2*
D14*
Y708424D1*
X2449684Y682440D1*
X2370944Y603700D1*
X1892361D1*
X2449684Y682440D2*
X2600629D1*
Y603700D2*
X2654684Y657755D1*
Y893976D1*
X2549684D1*
X2523700Y919960D1*
Y1053700D1*
X2601968Y3216220D2*
X2773676Y3044511D1*
Y1003720D1*
X2623700D1*
Y1053700D1*
X2601968Y3137480D2*
X2673676Y3065771D1*
Y1053700D1*
X2723700D1*
X2523700Y1819731D2*
Y2953700D1*
X2312991Y1395330D2*
Y708424D1*
X2287007Y682440D1*
X1892361D1*
X1666669Y3017180D2*
Y3190236D1*
X1692653Y3216220D1*
X1893700D1*
X1760684Y2868149D2*
X1763700Y2871165D1*
Y2953700D1*
X2873676Y1821046D2*
Y708425D1*
X2899661Y682440D1*
X3308897D1*
X2623700Y1821046D2*
Y2953700D1*
X3308897Y603700D2*
X2732715D1*
X2706731Y629684D1*
Y893976D1*
X2680747Y919960D1*
X2599660D1*
X2573676Y945944D1*
Y1453023D1*
X2423700Y1602999D1*
Y2953700D1*
X2903700Y3513700D2*
D15*
Y3605468D1*
X3036657D1*
X3096657Y3665468D1*
Y3694165D1*
X3103700Y3701208D1*
X3203700D1*
X3294937D1*
Y3813700D1*
X3303700D1*
X3203700D2*
Y3701208D1*
X1243700Y3133700D2*
Y3398704D1*
X1303700Y3458704D1*
X1518700D1*
Y3513700D1*
X1508700Y3523700D1*
X1123700D1*
X673700Y3222125D2*
X559011D1*
Y2849176D1*
X634015Y2774172D1*
X1458700Y3533700D2*
X1508700Y3523700D1*
X3103700Y3813700D2*
Y3701208D1*
X1893700Y3373700D2*
Y3808700D1*
X1126535Y1087794D2*
X1199999Y1014330D1*
Y954330D1*
X1280629Y873700D1*
X870629Y643700D2*
Y483700D1*
X756535D1*
X3020172Y3401267D2*
Y3205043D1*
X2601968Y3373700D2*
X2669531D1*
Y3355684D1*
X2820172Y3205043D1*
X1892361Y839920D2*
X1963700D1*
X2023700Y899920D1*
Y1053700D1*
X3303700Y3813700D2*
D3*
X870629Y1087794D2*
X787165Y1004330D1*
Y947165D1*
X713700Y873700D1*
X634015Y2774172D2*
Y1324409D1*
X870629Y1087794D1*
X1126535Y643700D2*
Y483700D1*
X1243464D1*
X1280629Y873700D2*
Y794334D1*
X1220629Y734334D1*
X1126535D1*
Y643700D1*
X756535Y483700D2*
X500629D1*
X2023700Y1053700D2*
Y1124188D1*
X2123700D1*
Y1053700D1*
X3156657Y976720D2*
D14*
Y3595350D1*
X2836204Y1860535D2*
X2873676Y1898007D1*
Y3256319D1*
X2749271Y3380724D1*
Y3676413D1*
X2723287Y3702397D1*
X2629708D1*
X2603700Y3728405D1*
Y3813700D1*
X1536535Y1050865D2*
Y1124188D1*
X3249271Y3634838D2*
Y937231D1*
X2485826Y1661999D2*
X2473676Y1674149D1*
Y3046433D1*
X2349271Y3170838D1*
Y3584956D1*
X2323287Y3610940D1*
X2129684D1*
X2103700Y3636924D1*
Y3813700D1*
X2212598Y1699432D2*
X2362518D1*
X2388503Y1725417D1*
Y2835669D1*
X2362519Y2861653D1*
X2299660D1*
X2273676Y2887637D1*
Y3404264D1*
X2249271Y3428669D1*
Y3584956D1*
X2029684D1*
X2003700Y3610940D1*
Y3813700D1*
X1813676Y2842165D2*
Y3003676D1*
X1839661Y3029661D1*
X1977716D1*
X2003700Y3055645D1*
Y3513700D1*
X2128247Y3216460D2*
Y2861653D1*
X2102263Y2835669D1*
X1995512D1*
X1934015Y2774172D1*
X2049271Y3216460D2*
Y3451389D1*
X2103700D1*
Y3513700D1*
X2203700D2*
Y3390487D1*
X2088759Y3275546D1*
Y3029660D1*
X2062775Y3003676D1*
X1913676D1*
Y2891609D1*
X1853769Y2831702D1*
Y2793926D1*
X1834015Y2774172D1*
X2403700Y3176972D2*
Y3513700D1*
X1954251Y3176972D2*
Y3081629D1*
X1928267Y3055645D1*
X1739660D1*
X1713676Y3029661D1*
Y2853833D1*
X1634015Y2774172D1*
X1613676Y3108637D2*
Y2880629D1*
X1587692Y2854645D1*
X1214488D1*
X1134015Y2774172D1*
X2259704Y3676413D2*
X2577692D1*
X2603700Y3650405D1*
Y3513700D1*
X1041696Y3430157D2*
Y3039987D1*
X1034015Y3032306D1*
Y2774172D1*
X2573676Y2706180D2*
Y3069669D1*
X2547704Y3095641D1*
Y3427767D1*
X2703700D1*
Y3513700D1*
X2323700Y3069149D2*
Y2953700D1*
X1123700Y3623700D2*
X850000D1*
X834015Y3607715D1*
Y2774172D1*
X2334015D2*
Y2259487D1*
X2234015Y2774172D2*
Y1752424D1*
X2134015Y2774172D2*
Y1460806D1*
X2159999Y1434822D1*
X2375590D1*
X731696Y3313700D2*
Y3181696D1*
X673700Y3123700D1*
X1499369Y660865D2*
X1723700Y885196D1*
Y1053700D1*
X2923700D2*
Y1360113D1*
X2943185Y1379598D1*
X2973035D1*
X3103700Y1510263D1*
Y3513700D1*
X3203700Y1439129D2*
Y3513700D1*
X2823700Y1117180D2*
Y1053700D1*
X1892361Y761180D2*
D15*
X1796330D1*
Y907480D1*
X1863700D1*
X1923700Y967480D1*
Y1053700D1*
X3308897Y761180D2*
X3117208D1*
X3057208Y821180D1*
Y1151692D1*
X3103783Y1198267D1*
X2803700Y3513700D2*
D3*
X1343700Y3133700D2*
X1530948Y3320948D1*
X1668700D1*
Y3698700D1*
X1643700Y3723700D1*
X1123700D1*
X1893700Y3294960D2*
X1741696D1*
X1715708Y3320948D1*
X1668700D1*
X1923700Y1053700D2*
Y1124188D1*
X1954188Y1154676D1*
Y2596255D1*
X1980172Y2622239D1*
X1920172Y2682239D1*
X769015D1*
X734015Y2717239D1*
Y2774172D1*
X1980172Y2622239D2*
X2034015Y2676082D1*
Y2774172D1*
X2803700Y3513700D2*
X2812463D1*
Y3605468D1*
X2872463Y3665468D1*
X3003700D1*
Y3813700D1*
X2523700Y1819731D3*
X2312991Y1395330D3*
X1666669Y3017180D3*
X1760684Y2868149D3*
X2873676Y1821046D3*
X2623700D3*
X1893700Y3808700D3*
X1458700Y3533700D3*
X3020172Y3205043D3*
X2820172D3*
X3020172Y3401267D3*
X3156657Y3595350D3*
Y976720D3*
X2836204Y1860535D3*
X1536535Y1124188D3*
X3249271Y937231D3*
Y3634838D3*
X2485826Y1661999D3*
X2212598Y1699432D3*
X1813676Y2842165D3*
X2128247Y3216460D3*
X2049271D3*
X2403700Y3176972D3*
X1954251D3*
X1613676Y3108637D3*
X2259704Y3676413D3*
X1041696Y3430157D3*
X2573676Y2706180D3*
X2323700Y3069149D3*
X2334015Y2259487D3*
X2234015Y1752424D3*
X2375590Y1434822D3*
X731696Y3313700D3*
X2923700Y1360113D3*
X3203700Y1439129D3*
X2823700Y1117180D3*
X3103783Y1198267D3*
D17*
X2600629Y839920D3*
D18*
Y761180D3*
Y682440D3*
Y603700D3*
D17*
X2601968Y3373700D3*
D18*
Y3294960D3*
Y3216220D3*
Y3137480D3*
D19*
X1343700Y3133700D3*
D20*
X1243700D3*
D17*
X1892361Y839920D3*
D18*
Y761180D3*
Y682440D3*
Y603700D3*
D17*
X1893700Y3373700D3*
D18*
Y3294960D3*
Y3216220D3*
Y3137480D3*
D17*
X3308897Y839920D3*
D18*
Y761180D3*
Y682440D3*
Y603700D3*
D17*
X3310235Y3373700D3*
D18*
Y3294960D3*
Y3216220D3*
Y3137480D3*
D19*
X983700Y3123700D3*
D21*
Y3222125D3*
D19*
X673700Y3123700D3*
D21*
Y3222125D3*
D62*
X2003700Y3513700D3*
X2103700D3*
X2203700D3*
X2303700D3*
X2403700D3*
X2503700D3*
X2603700D3*
X2703700D3*
X2803700D3*
X2903700D3*
X3003700D3*
X3103700D3*
X3203700D3*
X3303700D3*
Y3813700D3*
X3203700D3*
X3103700D3*
X3003700D3*
X2903700D3*
X2803700D3*
X2703700D3*
X2603700D3*
X2503700D3*
X2403700D3*
X2303700D3*
X2203700D3*
X2103700D3*
X2003700D3*
D65*
X2523700Y2953700D3*
X2423700Y1053700D3*
X2623700Y2953700D3*
X2723700D3*
X2823700D3*
X2923700D3*
X2423700D3*
X2323700D3*
X2223700D3*
X2063700D3*
X1963700D3*
X1863700D3*
X1763700D3*
X1663700D3*
X1563700D3*
X1463700D3*
X1363700D3*
X2523700Y1053700D3*
X2623700D3*
X2723700D3*
X2823700D3*
X2923700D3*
X2223700D3*
X2123700D3*
X2023700D3*
X1923700D3*
X1823700D3*
X1723700D3*
D27*
X634015Y2774172D3*
X734015D3*
X834015D3*
X934015D3*
X1034015D3*
X1134015D3*
X1234015D3*
X1334015D3*
X1434015D3*
X1534015D3*
X1634015D3*
X1734015D3*
X1834015D3*
X1934015D3*
X2034015D3*
X2134015D3*
X2234015D3*
X2334015D3*
X1123700Y3623700D3*
Y3523700D3*
Y3723700D3*
D28*
X713700Y873700D3*
D29*
Y1050865D3*
X457794D3*
Y873700D3*
D28*
X1536535D3*
D29*
Y1050865D3*
X1280629D3*
Y873700D3*
D28*
X1126535Y1087794D3*
D29*
Y1264960D3*
X870629D3*
Y1087794D3*
D28*
X1126535Y643700D3*
D29*
Y820865D3*
X870629D3*
Y643700D3*
D28*
X756535Y483700D3*
D29*
Y660865D3*
X500629D3*
Y483700D3*
D28*
X1499369D3*
D29*
Y660865D3*
X1243464D3*
Y483700D3*
M02*
