G04 DipTrace 3.3.1.3*
G04 BottomSilk.gbr*
%MOIN*%
G04 #@! TF.FileFunction,Legend,Bot*
G04 #@! TF.Part,Single*
G04 #@! TA.AperFunction,Nonconductor*
%ADD59C,0.013895*%
%FSLAX26Y26*%
G04*
G70*
G90*
G75*
G01*
G04 BotSilk*
%LPD*%
X3273140Y2340462D2*
D59*
Y2430894D1*
X3307562Y2340462D1*
X3341984Y2430894D1*
Y2340462D1*
X3245349Y2400750D2*
Y2357672D1*
X3241071Y2344839D1*
X3232416Y2340462D1*
X3219483D1*
X3210927Y2344839D1*
X3197994Y2357672D1*
Y2400750D2*
Y2340462D1*
X3170204Y2430894D2*
Y2340462D1*
X3129480Y2430894D2*
Y2357672D1*
X3125202Y2344839D1*
X3116547Y2340462D1*
X3107991D1*
X3142413Y2400750D2*
X3112269D1*
X3080200Y2430894D2*
X3075923Y2426616D1*
X3071545Y2430894D1*
X3075923Y2435271D1*
X3080200Y2430894D1*
X3075923Y2400750D2*
Y2340462D1*
X3043755Y2385628D2*
X2994012D1*
X2897278Y2340462D2*
X2931800Y2430894D1*
X2966221Y2340462D1*
X2953288Y2370606D2*
X2910211D1*
X2835066Y2430894D2*
X2843621D1*
X2852277Y2426616D1*
X2856554Y2413683D1*
Y2340462D1*
X2869488Y2400750D2*
X2839344D1*
X2772853Y2430894D2*
X2781409D1*
X2790064Y2426616D1*
X2794342Y2413683D1*
Y2340462D1*
X2807275Y2400750D2*
X2777131D1*
X2745063Y2374883D2*
X2693430D1*
Y2383539D1*
X2697708Y2392194D1*
X2701985Y2396472D1*
X2710641Y2400750D1*
X2723574D1*
X2732129Y2396472D1*
X2740785Y2387816D1*
X2745063Y2374883D1*
Y2366328D1*
X2740785Y2353395D1*
X2732129Y2344839D1*
X2723574Y2340462D1*
X2710641D1*
X2701985Y2344839D1*
X2693430Y2353395D1*
X2613907Y2387816D2*
X2622562Y2396472D1*
X2631217Y2400750D1*
X2644051D1*
X2652706Y2396472D1*
X2661262Y2387816D1*
X2665639Y2374883D1*
Y2366328D1*
X2661262Y2353395D1*
X2652706Y2344839D1*
X2644051Y2340462D1*
X2631217D1*
X2622562Y2344839D1*
X2613907Y2353395D1*
X2573183Y2430894D2*
Y2357672D1*
X2568905Y2344839D1*
X2560250Y2340462D1*
X2551694D1*
X2586116Y2400750D2*
X2555972D1*
X2502415D2*
X2510971Y2396472D1*
X2519626Y2387816D1*
X2523904Y2374883D1*
Y2366328D1*
X2519626Y2353395D1*
X2510971Y2344839D1*
X2502415Y2340462D1*
X2489482D1*
X2480827Y2344839D1*
X2472271Y2353395D1*
X2467893Y2366328D1*
Y2374883D1*
X2472271Y2387816D1*
X2480827Y2396472D1*
X2489482Y2400750D1*
X2502415D1*
X2440103D2*
Y2340462D1*
Y2374883D2*
X2435725Y2387816D1*
X2427170Y2396472D1*
X2418515Y2400750D1*
X2405581D1*
X2290309Y2430894D2*
Y2340462D1*
X2230021Y2430894D2*
Y2340462D1*
X2290309Y2387816D2*
X2230021D1*
X2180742Y2400750D2*
X2189297Y2396472D1*
X2197953Y2387816D1*
X2202230Y2374883D1*
Y2366328D1*
X2197953Y2353395D1*
X2189297Y2344839D1*
X2180742Y2340462D1*
X2167809D1*
X2159153Y2344839D1*
X2150598Y2353395D1*
X2146220Y2366328D1*
Y2374883D1*
X2150598Y2387816D1*
X2159153Y2396472D1*
X2167809Y2400750D1*
X2180742D1*
X2118430D2*
Y2340462D1*
Y2383539D2*
X2105497Y2396472D1*
X2096841Y2400750D1*
X2084008D1*
X2075353Y2396472D1*
X2071075Y2383539D1*
Y2340462D1*
Y2383539D2*
X2058142Y2396472D1*
X2049486Y2400750D1*
X2036653D1*
X2027998Y2396472D1*
X2023620Y2383539D1*
Y2340462D1*
X1995830Y2374883D2*
X1944197D1*
Y2383539D1*
X1948475Y2392194D1*
X1952753Y2396472D1*
X1961408Y2400750D1*
X1974341D1*
X1982897Y2396472D1*
X1991552Y2387816D1*
X1995830Y2374883D1*
Y2366328D1*
X1991552Y2353395D1*
X1982897Y2344839D1*
X1974341Y2340462D1*
X1961408D1*
X1952753Y2344839D1*
X1944197Y2353395D1*
X1894917Y2400750D2*
X1903473Y2396472D1*
X1912128Y2387816D1*
X1916406Y2374883D1*
Y2366328D1*
X1912128Y2353395D1*
X1903473Y2344839D1*
X1894917Y2340462D1*
X1881984D1*
X1873329Y2344839D1*
X1864773Y2353395D1*
X1860396Y2366328D1*
Y2374883D1*
X1864773Y2387816D1*
X1873329Y2396472D1*
X1881984Y2400750D1*
X1894917D1*
X1785250Y2387816D2*
X1789528Y2396472D1*
X1802461Y2400750D1*
X1815394D1*
X1828328Y2396472D1*
X1832605Y2387816D1*
X1828328Y2379261D1*
X1819672Y2374883D1*
X1798184Y2370606D1*
X1789528Y2366328D1*
X1785250Y2357672D1*
Y2353395D1*
X1789528Y2344839D1*
X1802461Y2340462D1*
X1815394D1*
X1828328Y2344839D1*
X1832605Y2353395D1*
X1744527Y2430894D2*
Y2357672D1*
X1740249Y2344839D1*
X1731594Y2340462D1*
X1723038D1*
X1757460Y2400750D2*
X1727316D1*
X1643615D2*
Y2340462D1*
Y2387816D2*
X1652170Y2396472D1*
X1660825Y2400750D1*
X1673659D1*
X1682314Y2396472D1*
X1690870Y2387816D1*
X1695247Y2374883D1*
Y2366328D1*
X1690870Y2353395D1*
X1682314Y2344839D1*
X1673659Y2340462D1*
X1660825D1*
X1652170Y2344839D1*
X1643615Y2353395D1*
X1568469Y2387816D2*
X1572747Y2396472D1*
X1585680Y2400750D1*
X1598613D1*
X1611546Y2396472D1*
X1615824Y2387816D1*
X1611546Y2379261D1*
X1602891Y2374883D1*
X1581402Y2370606D1*
X1572747Y2366328D1*
X1568469Y2357672D1*
Y2353395D1*
X1572747Y2344839D1*
X1585680Y2340462D1*
X1598613D1*
X1611546Y2344839D1*
X1615824Y2353395D1*
X1540678Y2430894D2*
X1536400Y2426616D1*
X1532023Y2430894D1*
X1536400Y2435271D1*
X1540678Y2430894D1*
X1536400Y2400750D2*
Y2340462D1*
X1456878Y2387816D2*
X1461155Y2396472D1*
X1474088Y2400750D1*
X1487022D1*
X1499955Y2396472D1*
X1504232Y2387816D1*
X1499955Y2379261D1*
X1491299Y2374883D1*
X1469811Y2370606D1*
X1461155Y2366328D1*
X1456878Y2357672D1*
Y2353395D1*
X1461155Y2344839D1*
X1474088Y2340462D1*
X1487022D1*
X1499955Y2344839D1*
X1504232Y2353395D1*
X1341605Y2430894D2*
Y2340462D1*
X1311461D1*
X1298528Y2344839D1*
X1289873Y2353395D1*
X1285595Y2362050D1*
X1281317Y2374883D1*
Y2396472D1*
X1285595Y2409405D1*
X1289873Y2417960D1*
X1298528Y2426616D1*
X1311461Y2430894D1*
X1341605D1*
X1253526Y2374883D2*
X1201894D1*
Y2383539D1*
X1206172Y2392194D1*
X1210449Y2396472D1*
X1219105Y2400750D1*
X1232038D1*
X1240593Y2396472D1*
X1249249Y2387816D1*
X1253526Y2374883D1*
Y2366328D1*
X1249249Y2353395D1*
X1240593Y2344839D1*
X1232038Y2340462D1*
X1219105D1*
X1210449Y2344839D1*
X1201894Y2353395D1*
X1174103Y2400750D2*
Y2340462D1*
Y2383539D2*
X1161170Y2396472D1*
X1152515Y2400750D1*
X1139681D1*
X1131026Y2396472D1*
X1126748Y2383539D1*
Y2340462D1*
Y2383539D2*
X1113815Y2396472D1*
X1105160Y2400750D1*
X1092326D1*
X1083671Y2396472D1*
X1079294Y2383539D1*
Y2340462D1*
X1030014Y2400750D2*
X1038570Y2396472D1*
X1047225Y2387816D1*
X1051503Y2374883D1*
Y2366328D1*
X1047225Y2353395D1*
X1038570Y2344839D1*
X1030014Y2340462D1*
X1017081D1*
X1008426Y2344839D1*
X999870Y2353395D1*
X995493Y2366328D1*
Y2374883D1*
X999870Y2387816D1*
X1008426Y2396472D1*
X1017081Y2400750D1*
X1030014D1*
X967702D2*
Y2340462D1*
Y2383539D2*
X954769Y2396472D1*
X946114Y2400750D1*
X933280D1*
X924625Y2396472D1*
X920347Y2383539D1*
Y2340462D1*
X845202Y2387816D2*
X849480Y2396472D1*
X862413Y2400750D1*
X875346D1*
X888279Y2396472D1*
X892557Y2387816D1*
X888279Y2379261D1*
X879624Y2374883D1*
X858135Y2370606D1*
X849480Y2366328D1*
X845202Y2357672D1*
Y2353395D1*
X849480Y2344839D1*
X862413Y2340462D1*
X875346D1*
X888279Y2344839D1*
X892557Y2353395D1*
X804478Y2430894D2*
Y2357672D1*
X800200Y2344839D1*
X791545Y2340462D1*
X782989D1*
X817411Y2400750D2*
X787267D1*
X755199D2*
Y2340462D1*
Y2374883D2*
X750821Y2387816D1*
X742266Y2396472D1*
X733610Y2400750D1*
X720677D1*
X641254D2*
Y2340462D1*
Y2387816D2*
X649810Y2396472D1*
X658465Y2400750D1*
X671298D1*
X679954Y2396472D1*
X688509Y2387816D1*
X692887Y2374883D1*
Y2366328D1*
X688509Y2353395D1*
X679954Y2344839D1*
X671298Y2340462D1*
X658465D1*
X649810Y2344839D1*
X641254Y2353395D1*
X600530Y2430894D2*
Y2357672D1*
X596252Y2344839D1*
X587597Y2340462D1*
X579041D1*
X613463Y2400750D2*
X583319D1*
X529762D2*
X538318Y2396472D1*
X546973Y2387816D1*
X551251Y2374883D1*
Y2366328D1*
X546973Y2353395D1*
X538318Y2344839D1*
X529762Y2340462D1*
X516829D1*
X508174Y2344839D1*
X499618Y2353395D1*
X495240Y2366328D1*
Y2374883D1*
X499618Y2387816D1*
X508174Y2396472D1*
X516829Y2400750D1*
X529762D1*
X467450D2*
Y2340462D1*
Y2374883D2*
X463073Y2387816D1*
X454517Y2396472D1*
X445862Y2400750D1*
X432929D1*
X2515899Y2240122D2*
Y2149690D1*
X2477100D1*
X2464167Y2154067D1*
X2459889Y2158345D1*
X2455611Y2166901D1*
Y2179834D1*
X2459889Y2188489D1*
X2464167Y2192767D1*
X2477100Y2197045D1*
X2464167Y2201422D1*
X2459889Y2205700D1*
X2455611Y2214256D1*
Y2222911D1*
X2459889Y2231467D1*
X2464167Y2235844D1*
X2477100Y2240122D1*
X2515899D1*
Y2197045D2*
X2477100D1*
X2406332Y2209978D2*
X2414887Y2205700D1*
X2423543Y2197045D1*
X2427821Y2184112D1*
Y2175556D1*
X2423543Y2162623D1*
X2414887Y2154067D1*
X2406332Y2149690D1*
X2393399D1*
X2384743Y2154067D1*
X2376188Y2162623D1*
X2371810Y2175556D1*
Y2184112D1*
X2376188Y2197045D1*
X2384743Y2205700D1*
X2393399Y2209978D1*
X2406332D1*
X2292387D2*
Y2149690D1*
Y2197045D2*
X2300943Y2205700D1*
X2309598Y2209978D1*
X2322431D1*
X2331087Y2205700D1*
X2339642Y2197045D1*
X2344020Y2184112D1*
Y2175556D1*
X2339642Y2162623D1*
X2331087Y2154067D1*
X2322431Y2149690D1*
X2309598D1*
X2300943Y2154067D1*
X2292387Y2162623D1*
X2264596Y2209978D2*
Y2149690D1*
Y2184112D2*
X2260219Y2197045D1*
X2251663Y2205700D1*
X2243008Y2209978D1*
X2230075D1*
X2150651Y2240122D2*
Y2149690D1*
Y2197045D2*
X2159207Y2205700D1*
X2167862Y2209978D1*
X2180795D1*
X2189351Y2205700D1*
X2198006Y2197045D1*
X2202284Y2184112D1*
Y2175556D1*
X2198006Y2162623D1*
X2189351Y2154067D1*
X2180795Y2149690D1*
X2167862D1*
X2159207Y2154067D1*
X2150651Y2162623D1*
X2035379Y2197045D2*
X1996679D1*
X1983746Y2201422D1*
X1979369Y2205700D1*
X1975091Y2214256D1*
Y2222911D1*
X1979369Y2231467D1*
X1983746Y2235844D1*
X1996679Y2240122D1*
X2035379D1*
Y2149690D1*
X2005235Y2197045D2*
X1975091Y2149690D1*
X1947300Y2184112D2*
X1895668D1*
Y2192767D1*
X1899946Y2201422D1*
X1904223Y2205700D1*
X1912879Y2209978D1*
X1925812D1*
X1934367Y2205700D1*
X1943023Y2197045D1*
X1947300Y2184112D1*
Y2175556D1*
X1943023Y2162623D1*
X1934367Y2154067D1*
X1925812Y2149690D1*
X1912879D1*
X1904223Y2154067D1*
X1895668Y2162623D1*
X1867877Y2209978D2*
X1842011Y2149690D1*
X1816244Y2209978D1*
X1788454Y2240122D2*
X1784176Y2235844D1*
X1779798Y2240122D1*
X1784176Y2244499D1*
X1788454Y2240122D1*
X1784176Y2209978D2*
Y2149690D1*
X1704653Y2197045D2*
X1708931Y2205700D1*
X1721864Y2209978D1*
X1734797D1*
X1747730Y2205700D1*
X1752008Y2197045D1*
X1747730Y2188489D1*
X1739075Y2184112D1*
X1717586Y2179834D1*
X1708931Y2175556D1*
X1704653Y2166901D1*
Y2162623D1*
X1708931Y2154067D1*
X1721864Y2149690D1*
X1734797D1*
X1747730Y2154067D1*
X1752008Y2162623D1*
X1676862Y2240122D2*
X1672584Y2235844D1*
X1668207Y2240122D1*
X1672584Y2244499D1*
X1676862Y2240122D1*
X1672584Y2209978D2*
Y2149690D1*
X1618927Y2209978D2*
X1627483Y2205700D1*
X1636138Y2197045D1*
X1640416Y2184112D1*
Y2175556D1*
X1636138Y2162623D1*
X1627483Y2154067D1*
X1618927Y2149690D1*
X1605994D1*
X1597339Y2154067D1*
X1588783Y2162623D1*
X1584406Y2175556D1*
Y2184112D1*
X1588783Y2197045D1*
X1597339Y2205700D1*
X1605994Y2209978D1*
X1618927D1*
X1556615D2*
Y2149690D1*
Y2192767D2*
X1543682Y2205700D1*
X1535027Y2209978D1*
X1522194D1*
X1513538Y2205700D1*
X1509261Y2192767D1*
Y2149690D1*
X1389611Y2218534D2*
Y2222811D1*
X1385333Y2231467D1*
X1381055Y2235745D1*
X1372400Y2240022D1*
X1355189D1*
X1346633Y2235745D1*
X1342355Y2231467D1*
X1337978Y2222811D1*
Y2214256D1*
X1342355Y2205601D1*
X1350911Y2192767D1*
X1393988Y2149690D1*
X1333700D1*
X2900412Y2060122D2*
Y1969690D1*
X2870268D1*
X2857335Y1974067D1*
X2848679Y1982623D1*
X2844402Y1991278D1*
X2840124Y2004112D1*
Y2025700D1*
X2844402Y2038633D1*
X2848679Y2047189D1*
X2857335Y2055844D1*
X2870268Y2060122D1*
X2900412D1*
X2812333Y2004112D2*
X2760700D1*
Y2012767D1*
X2764978Y2021422D1*
X2769256Y2025700D1*
X2777911Y2029978D1*
X2790844D1*
X2799400Y2025700D1*
X2808055Y2017045D1*
X2812333Y2004112D1*
Y1995556D1*
X2808055Y1982623D1*
X2799400Y1974067D1*
X2790844Y1969690D1*
X2777911D1*
X2769256Y1974067D1*
X2760700Y1982623D1*
X2685555Y2017045D2*
X2689833Y2025700D1*
X2702766Y2029978D1*
X2715699D1*
X2728632Y2025700D1*
X2732910Y2017045D1*
X2728632Y2008489D1*
X2719977Y2004112D1*
X2698488Y1999834D1*
X2689833Y1995556D1*
X2685555Y1986901D1*
Y1982623D1*
X2689833Y1974067D1*
X2702766Y1969690D1*
X2715699D1*
X2728632Y1974067D1*
X2732910Y1982623D1*
X2657764Y2060122D2*
X2653486Y2055844D1*
X2649109Y2060122D1*
X2653486Y2064499D1*
X2657764Y2060122D1*
X2653486Y2029978D2*
Y1969690D1*
X2569685Y2025700D2*
Y1956757D1*
X2573963Y1943923D1*
X2578241Y1939546D1*
X2586896Y1935268D1*
X2599829D1*
X2608385Y1939546D1*
X2569685Y2012767D2*
X2578241Y2021323D1*
X2586896Y2025700D1*
X2599829D1*
X2608385Y2021323D1*
X2617040Y2012767D1*
X2621318Y1999834D1*
Y1991179D1*
X2617040Y1978345D1*
X2608385Y1969690D1*
X2599829Y1965412D1*
X2586896D1*
X2578241Y1969690D1*
X2569685Y1978345D1*
X2541895Y2029978D2*
Y1969690D1*
Y2012767D2*
X2528962Y2025700D1*
X2520306Y2029978D1*
X2507473D1*
X2498818Y2025700D1*
X2494540Y2012767D1*
Y1969690D1*
X2466749Y2004112D2*
X2415116D1*
Y2012767D1*
X2419394Y2021422D1*
X2423672Y2025700D1*
X2432327Y2029978D1*
X2445260D1*
X2453816Y2025700D1*
X2462471Y2017045D1*
X2466749Y2004112D1*
Y1995556D1*
X2462471Y1982623D1*
X2453816Y1974067D1*
X2445260Y1969690D1*
X2432327D1*
X2423672Y1974067D1*
X2415116Y1982623D1*
X2335693Y2060122D2*
Y1969690D1*
Y2017045D2*
X2344249Y2025700D1*
X2352904Y2029978D1*
X2365837D1*
X2374393Y2025700D1*
X2383048Y2017045D1*
X2387326Y2004112D1*
Y1995556D1*
X2383048Y1982623D1*
X2374393Y1974067D1*
X2365837Y1969690D1*
X2352904D1*
X2344249Y1974067D1*
X2335693Y1982623D1*
X2220421Y2060122D2*
Y1969690D1*
X2181621D1*
X2168688Y1974067D1*
X2164410Y1978345D1*
X2160132Y1986901D1*
Y1999834D1*
X2164410Y2008489D1*
X2168688Y2012767D1*
X2181621Y2017045D1*
X2168688Y2021422D1*
X2164410Y2025700D1*
X2160132Y2034256D1*
Y2042911D1*
X2164410Y2051467D1*
X2168688Y2055844D1*
X2181621Y2060122D1*
X2220421D1*
Y2017045D2*
X2181621D1*
X2127965Y2029978D2*
X2102198Y1969690D1*
X2110754Y1952479D1*
X2119409Y1943824D1*
X2127965Y1939546D1*
X2132342D1*
X2076332Y2029978D2*
X2102198Y1969690D1*
X2044164Y2029978D2*
X2048541Y2025601D1*
X2044164Y2021323D1*
X2039886Y2025601D1*
X2044164Y2029978D1*
Y1978345D2*
X2048541Y1973968D1*
X2044164Y1969690D1*
X2039886Y1973968D1*
X2044164Y1978345D1*
X1924613Y2012767D2*
X1885814D1*
X1872981Y2017045D1*
X1868603Y2021422D1*
X1864325Y2029978D1*
Y2042911D1*
X1868603Y2051467D1*
X1872981Y2055844D1*
X1885814Y2060122D1*
X1924613D1*
Y1969690D1*
X1784902Y2029978D2*
Y1969690D1*
Y2017045D2*
X1793458Y2025700D1*
X1802113Y2029978D1*
X1814947D1*
X1823602Y2025700D1*
X1832157Y2017045D1*
X1836535Y2004112D1*
Y1995556D1*
X1832157Y1982623D1*
X1823602Y1974067D1*
X1814947Y1969690D1*
X1802113D1*
X1793458Y1974067D1*
X1784902Y1982623D1*
X1757111Y2029978D2*
Y1986901D1*
X1752834Y1974067D1*
X1744178Y1969690D1*
X1731245D1*
X1722690Y1974067D1*
X1709756Y1986901D1*
Y2029978D2*
Y1969690D1*
X1681966Y2060122D2*
Y1969690D1*
X1566693Y2060122D2*
X1545105Y1969690D1*
X1523616Y2060122D1*
X1502128Y1969690D1*
X1480539Y2060122D1*
X1401116Y2029978D2*
Y1969690D1*
Y2017045D2*
X1409672Y2025700D1*
X1418327Y2029978D1*
X1431160D1*
X1439816Y2025700D1*
X1448371Y2017045D1*
X1452749Y2004112D1*
Y1995556D1*
X1448371Y1982623D1*
X1439816Y1974067D1*
X1431160Y1969690D1*
X1418327D1*
X1409672Y1974067D1*
X1401116Y1982623D1*
X1373325Y2029978D2*
Y1969690D1*
Y2004112D2*
X1368948Y2017045D1*
X1360392Y2025700D1*
X1351737Y2029978D1*
X1338804D1*
X1311013D2*
Y1969690D1*
Y2012767D2*
X1298080Y2025700D1*
X1289425Y2029978D1*
X1276591D1*
X1267936Y2025700D1*
X1263658Y2012767D1*
Y1969690D1*
Y2012767D2*
X1250725Y2025700D1*
X1242070Y2029978D1*
X1229236D1*
X1220581Y2025700D1*
X1216204Y2012767D1*
Y1969690D1*
X1188413Y2029978D2*
Y1986901D1*
X1184135Y1974067D1*
X1175480Y1969690D1*
X1162547D1*
X1153991Y1974067D1*
X1141058Y1986901D1*
Y2029978D2*
Y1969690D1*
X1100335Y2060122D2*
Y1986901D1*
X1096057Y1974067D1*
X1087401Y1969690D1*
X1078846D1*
X1113268Y2029978D2*
X1083124D1*
X1051055Y2060122D2*
Y1969690D1*
Y2012767D2*
X1038122Y2025700D1*
X1029467Y2029978D1*
X1016534D1*
X1007978Y2025700D1*
X1003700Y2012767D1*
Y1969690D1*
X2640032Y1860122D2*
Y1769690D1*
Y1812767D2*
X2627099Y1825700D1*
X2618444Y1829978D1*
X2605511D1*
X2596955Y1825700D1*
X2592677Y1812767D1*
Y1769690D1*
X2551954Y1860122D2*
Y1786901D1*
X2547676Y1774067D1*
X2539021Y1769690D1*
X2530465D1*
X2564887Y1829978D2*
X2534743D1*
X2489741Y1860122D2*
Y1786901D1*
X2485463Y1774067D1*
X2476808Y1769690D1*
X2468252D1*
X2502674Y1829978D2*
X2472530D1*
X2440462D2*
Y1739546D1*
Y1817045D2*
X2431807Y1825601D1*
X2423251Y1829978D1*
X2410318D1*
X2401663Y1825601D1*
X2393107Y1817045D1*
X2388729Y1804112D1*
Y1795457D1*
X2393107Y1782623D1*
X2401663Y1773968D1*
X2410318Y1769690D1*
X2423251D1*
X2431807Y1773968D1*
X2440462Y1782623D1*
X2313584Y1817045D2*
X2317862Y1825700D1*
X2330795Y1829978D1*
X2343728D1*
X2356661Y1825700D1*
X2360939Y1817045D1*
X2356661Y1808489D1*
X2348006Y1804112D1*
X2326517Y1799834D1*
X2317862Y1795556D1*
X2313584Y1786901D1*
Y1782623D1*
X2317862Y1774067D1*
X2330795Y1769690D1*
X2343728D1*
X2356661Y1774067D1*
X2360939Y1782623D1*
X2281416Y1829978D2*
X2285793Y1825601D1*
X2281416Y1821323D1*
X2277138Y1825601D1*
X2281416Y1829978D1*
Y1778345D2*
X2285793Y1773968D1*
X2281416Y1769690D1*
X2277138Y1773968D1*
X2281416Y1778345D1*
X2249347Y1769690D2*
X2189059Y1860022D1*
X2161269Y1769690D2*
X2100981Y1860022D1*
X2021557Y1825700D2*
Y1756757D1*
X2025835Y1743923D1*
X2030113Y1739546D1*
X2038768Y1735268D1*
X2051701D1*
X2060257Y1739546D1*
X2021557Y1812767D2*
X2030113Y1821323D1*
X2038768Y1825700D1*
X2051701D1*
X2060257Y1821323D1*
X2068912Y1812767D1*
X2073190Y1799834D1*
Y1791179D1*
X2068912Y1778345D1*
X2060257Y1769690D1*
X2051701Y1765412D1*
X2038768D1*
X2030113Y1769690D1*
X2021557Y1778345D1*
X1993767Y1860122D2*
X1989489Y1855844D1*
X1985111Y1860122D1*
X1989489Y1864499D1*
X1993767Y1860122D1*
X1989489Y1829978D2*
Y1769690D1*
X1944388Y1860122D2*
Y1786901D1*
X1940110Y1774067D1*
X1931455Y1769690D1*
X1922899D1*
X1957321Y1829978D2*
X1927177D1*
X1890830Y1778345D2*
X1895108Y1773968D1*
X1890830Y1769690D1*
X1886453Y1773968D1*
X1890830Y1778345D1*
X1858662Y1860122D2*
X1854385Y1855844D1*
X1850007Y1860122D1*
X1854385Y1864499D1*
X1858662Y1860122D1*
X1854385Y1829978D2*
Y1769690D1*
X1800728Y1829978D2*
X1809284Y1825700D1*
X1817939Y1817045D1*
X1822217Y1804112D1*
Y1795556D1*
X1817939Y1782623D1*
X1809284Y1774067D1*
X1800728Y1769690D1*
X1787795D1*
X1779140Y1774067D1*
X1770584Y1782623D1*
X1766206Y1795556D1*
Y1804112D1*
X1770584Y1817045D1*
X1779140Y1825700D1*
X1787795Y1829978D1*
X1800728D1*
X1738416Y1769690D2*
X1678128Y1860022D1*
X1607260Y1860122D2*
Y1791278D1*
X1611538Y1778345D1*
X1615915Y1774067D1*
X1624471Y1769690D1*
X1633126D1*
X1641682Y1774067D1*
X1645960Y1778345D1*
X1650337Y1791278D1*
Y1799834D1*
X1579469Y1804112D2*
X1527837D1*
Y1812767D1*
X1532114Y1821422D1*
X1536392Y1825700D1*
X1545048Y1829978D1*
X1557981D1*
X1566536Y1825700D1*
X1575192Y1817045D1*
X1579469Y1804112D1*
Y1795556D1*
X1575192Y1782623D1*
X1566536Y1774067D1*
X1557981Y1769690D1*
X1545048D1*
X1536392Y1774067D1*
X1527837Y1782623D1*
X1444135Y1860122D2*
X1500046D1*
Y1769690D1*
X1444135D1*
X1500046Y1817045D2*
X1465624D1*
X1351779Y1838633D2*
X1356057Y1847189D1*
X1364712Y1855844D1*
X1373268Y1860122D1*
X1390479D1*
X1399134Y1855844D1*
X1407689Y1847189D1*
X1412067Y1838633D1*
X1416345Y1825700D1*
Y1804112D1*
X1412067Y1791278D1*
X1407689Y1782623D1*
X1399134Y1774067D1*
X1390479Y1769690D1*
X1373268D1*
X1364712Y1774067D1*
X1356057Y1782623D1*
X1351779Y1791278D1*
Y1804112D1*
X1373268D1*
X1323988Y1860122D2*
Y1769690D1*
X1263700Y1860122D2*
X1323988Y1799834D1*
X1302499Y1821422D2*
X1263700Y1769690D1*
M02*
