M48
INCH
T01C0.0191
T02C0.0315
T03C0.032
T04C0.0354
T05C0.0394
%
T01
X+025237Y+018197
X+026237Y+018210
X+024858Y+016620
X+023756Y+014348
X+023130Y+013953
X+022126Y+016994
X+022340Y+017524
X+023340Y+022595
X+025737Y+027062
X+023237Y+030691
X+024037Y+031770
X+021282Y+032165
X+020493Y+032165
X+019543Y+031770
X+016667Y+030172
X+016137Y+031086
X+017607Y+028681
X+018137Y+028422
X+014587Y+035337
X+010417Y+034302
X+007317Y+033137
X+018937Y+038087
X+022597Y+036764
X+028202Y+032050
X+030202Y+032050
X+030202Y+034013
X+031567Y+035953
X+032493Y+036348
X+028362Y+018605
X+028737Y+018210
X+029237Y+013601
X+031038Y+011983
X+031567Y+009767
X+032493Y+009372
X+028237Y+011172
X+032037Y+014391
X+015365Y+011242
T02
X+026006Y+008399
X+026006Y+007612
X+026006Y+006824
X+026006Y+006037
X+018924Y+006037
X+018924Y+006824
X+018924Y+007612
X+018924Y+008399
X+033089Y+008399
X+033089Y+007612
X+033089Y+006824
X+033089Y+006037
X+033102Y+031375
X+033102Y+032162
X+033102Y+032950
X+033102Y+033737
X+026020Y+033737
X+026020Y+032950
X+026020Y+032162
X+026020Y+031375
X+018937Y+031375
X+018937Y+032162
X+018937Y+032950
X+018937Y+033737
T03
X+020037Y+035137
X+021037Y+035137
X+022037Y+035137
X+023037Y+035137
X+024037Y+035137
X+025037Y+035137
X+026037Y+035137
X+027037Y+035137
X+028037Y+035137
X+029037Y+035137
X+030037Y+035137
X+031037Y+035137
X+032037Y+035137
X+033037Y+035137
X+033037Y+038137
X+032037Y+038137
X+031037Y+038137
X+030037Y+038137
X+029037Y+038137
X+028037Y+038137
X+027037Y+038137
X+026037Y+038137
X+025037Y+038137
X+024037Y+038137
X+023037Y+038137
X+022037Y+038137
X+021037Y+038137
X+020037Y+038137
T04
X+013437Y+031337
X+012437Y+031337
X+011237Y+035237
X+011237Y+036237
X+011237Y+037237
T05
X+009837Y+031237
X+009837Y+032221
X+006737Y+032221
X+006737Y+031237
X+006340Y+027742
X+007340Y+027742
X+008340Y+027742
X+009340Y+027742
X+010340Y+027742
X+011340Y+027742
X+012340Y+027742
X+013340Y+027742
X+014340Y+027742
X+015340Y+027742
X+016340Y+027742
X+017340Y+027742
X+018340Y+027742
X+019340Y+027742
X+020340Y+027742
X+021340Y+027742
X+022340Y+027742
X+023340Y+027742
X+023237Y+029537
X+024237Y+029537
X+025237Y+029537
X+026237Y+029537
X+027237Y+029537
X+028237Y+029537
X+029237Y+029537
X+022237Y+029537
X+020637Y+029537
X+019637Y+029537
X+018637Y+029537
X+017637Y+029537
X+016637Y+029537
X+015637Y+029537
X+014637Y+029537
X+013637Y+029537
X+011265Y+012650
X+011265Y+010878
X+012806Y+010509
X+012806Y+008737
X+011265Y+008209
X+011265Y+006437
X+012435Y+006609
X+012435Y+004837
X+014994Y+004837
X+014994Y+006609
X+015365Y+008737
X+015365Y+010509
X+017237Y+010537
X+018237Y+010537
X+019237Y+010537
X+020237Y+010537
X+021237Y+010537
X+022237Y+010537
X+024237Y+010537
X+025237Y+010537
X+026237Y+010537
X+027237Y+010537
X+028237Y+010537
X+029237Y+010537
X+008706Y+010878
X+007137Y+010509
X+007137Y+008737
X+008706Y+008209
X+008706Y+006437
X+007565Y+006609
X+007565Y+004837
X+005006Y+004837
X+005006Y+006609
X+004578Y+008737
X+004578Y+010509
X+008706Y+012650
T00
M30
