G04 DipTrace 3.3.1.3*
G04 Top.gbr*
%MOIN*%
G04 #@! TF.FileFunction,Copper,L1,Top*
G04 #@! TF.Part,Single*
%AMOUTLINE0*
4,1,20,
-0.02608,0.026058,
-0.024514,0.034979,
-0.019993,0.042827,
-0.013059,0.048655,
-0.004551,0.05176,
0.004507,0.051768,
0.01302,0.048677,
0.019963,0.042861,
0.0245,0.035021,
0.02608,0.026102,
0.02608,-0.026058,
0.024514,-0.034979,
0.019993,-0.042827,
0.013059,-0.048655,
0.004551,-0.05176,
-0.004507,-0.051768,
-0.01302,-0.048677,
-0.019963,-0.042861,
-0.0245,-0.035021,
-0.02608,-0.026102,
-0.02608,0.026058,
0*%
%AMOUTLINE3*
4,1,8,
0.030488,-0.012629,
0.012629,-0.030488,
-0.012629,-0.030488,
-0.030488,-0.012629,
-0.030488,0.012629,
-0.012629,0.030488,
0.012629,0.030488,
0.030488,0.012629,
0.030488,-0.012629,
0*%
G04 #@! TA.AperFunction,Conductor*
%ADD14C,0.012992*%
G04 #@! TA.AperFunction,ViaPad*
%ADD15C,0.04*%
G04 #@! TA.AperFunction,ComponentPad*
%ADD17R,0.055118X0.055118*%
%ADD18C,0.055118*%
%ADD19R,0.062992X0.062992*%
%ADD20C,0.062992*%
%ADD21C,0.062992*%
%ADD22R,0.062992X0.070866*%
%ADD23R,0.070866X0.062992*%
G04 #@! TA.AperFunction,ComponentPad*
%ADD27C,0.07*%
%ADD28R,0.066929X0.066929*%
%ADD29C,0.066929*%
%ADD62OUTLINE0*%
%ADD65OUTLINE3*%
%FSLAX26Y26*%
G04*
G70*
G90*
G75*
G01*
G04 Top*
%LPD*%
X2601968Y3137480D2*
D14*
X1893700D1*
X2312991Y1395330D2*
Y1609022D1*
X2523700Y1819731D1*
X1760684Y2868149D2*
X1713676Y2915157D1*
Y3017180D1*
X1666669D1*
X2873676Y1821046D2*
X2623700D1*
X3310235Y3216220D2*
X3097692Y3003676D1*
X1963700D1*
Y2953700D1*
X3310235Y3137480D2*
Y2929704D1*
X3284251Y2903720D1*
X1863700D1*
Y2953700D1*
X1458700Y3533700D2*
D15*
Y3748700D1*
X1518700Y3808700D1*
X1893700D1*
X1243700Y3133700D2*
X1155275Y3222125D1*
X983700D1*
X2903700Y3513700D2*
Y3401267D1*
X3020172D1*
X2601968Y3373700D2*
X1893700D1*
X1243464Y483700D2*
X1316932D1*
X1499369D1*
X713700Y873700D2*
X457794D1*
X2820172Y3205043D2*
X3020172D1*
X870629Y1087794D2*
X944094D1*
X1126535D1*
X870629Y643700D2*
X944094D1*
X1126535D1*
X983700Y3222125D2*
X673700D1*
X3020172Y3401267D2*
X3080172D1*
X3107739Y3373700D1*
X3310235D1*
X1536535Y873700D2*
X1354094D1*
X1280629D1*
X1892361Y839920D2*
X1781692D1*
X1747912Y873700D1*
X1536535D1*
X2600629Y839920D2*
X1892361D1*
X3308897D2*
X3200436D1*
X2600629D1*
X3156657Y3595350D2*
D14*
X3288759D1*
Y3674326D1*
X2725180D1*
X2699193Y3700313D1*
Y3813700D1*
X2703700D1*
X500629Y660865D2*
X756535D1*
X2703700Y3813700D2*
D3*
X756535Y660865D2*
X809487Y713818D1*
Y950735D1*
X835472Y976720D1*
X3156657D1*
X1536535Y1124188D2*
X1964370D1*
X1990354Y1150172D1*
Y1834551D1*
X2016338Y1860535D1*
X2836204D1*
X1536535Y1050865D2*
X1280629D1*
X870629Y820865D2*
X1126535D1*
X3249271Y3634838D2*
X2529684D1*
X2503700Y3660822D1*
Y3813700D1*
X1126535Y820865D2*
X1242900Y937231D1*
X3249271D1*
X1126535Y1264960D2*
X870629D1*
X2403700Y3813700D2*
D3*
X870629Y1264960D2*
X572515Y1563074D1*
Y3338700D1*
X598499Y3364684D1*
X1681180D1*
X1707165Y3390669D1*
Y3584956D1*
X1733149Y3610940D1*
X2373207D1*
X2399193Y3636926D1*
Y3813700D1*
X2403700D1*
X2303700D2*
D3*
X457794Y1050865D2*
X713700D1*
X2303700Y3813700D2*
X2299193D1*
Y3636924D1*
X1707164D1*
X1681180Y3610940D1*
Y3416653D1*
X1655196Y3390669D1*
X536732D1*
X510747Y3364684D1*
Y1103822D1*
X457794D1*
Y1050865D1*
X2485826Y1661999D2*
Y1273700D1*
X2212598D2*
Y1699432D1*
X1813676Y2842165D2*
X2587180D1*
X2613165Y2816180D1*
Y1992295D1*
X2587179Y1966309D1*
X1965354D1*
X1939369Y1940324D1*
Y1273700D1*
X2049271Y3216460D2*
X2128247D1*
X1734015Y2774172D2*
X1679526Y2828661D1*
X1539660D1*
X1513676Y2854645D1*
Y2986228D1*
X1478779Y3021125D1*
Y3254448D1*
X1707165D1*
X1733149Y3280432D1*
Y3558972D1*
X1759133Y3584956D1*
X2308207D1*
Y3513700D1*
X2303700D1*
X1954251Y3176972D2*
X2403700D1*
X1613676Y3108637D2*
X1787677D1*
X1813661Y3134621D1*
Y3401775D1*
X1839645Y3427759D1*
X2503700D1*
Y3513700D1*
X1041696Y3430157D2*
X1629212D1*
X1655196Y3456141D1*
Y3650429D1*
X1681180Y3676413D1*
X2259704D1*
X2573676Y2706180D2*
X1002007D1*
X934015Y2774172D1*
X2323700Y3069149D2*
X1559684D1*
X1533700Y3095133D1*
Y3203464D1*
X1829133Y1273700D2*
Y2233505D1*
X1855115Y2259487D1*
X2334015D1*
X2234015Y1752424D2*
X2128349D1*
X2102361Y1726436D1*
Y1273700D1*
X2375590Y1434822D2*
Y1273700D1*
X731696Y3313700D2*
X1533700D1*
X1499369Y660865D2*
X1243464D1*
X2923700Y1360113D2*
X2922046Y1358459D1*
Y1273700D1*
X2648818D2*
Y1143164D1*
X2674802Y1117180D1*
X2823700D1*
X3177715D1*
X3203700Y1143165D1*
Y1439129D1*
X2759054Y1273700D2*
D15*
Y1198267D1*
X3103783D1*
X1343700Y3133700D2*
Y3024188D1*
X1083212D1*
X983700Y3123700D1*
X2803700Y3513700D2*
Y3354964D1*
X2799194D1*
Y3320944D1*
X2825178Y3294960D1*
X3310235D1*
X2799194Y3320944D2*
X2773210Y3294960D1*
X2601968D1*
X1892361Y761180D2*
X2600629D1*
X3103783Y1198267D2*
Y1273700D1*
X3032283D1*
X983700Y3123700D2*
X734015Y2874015D1*
Y2774172D1*
X2601968Y3294960D2*
X1893700D1*
X2600629Y761180D2*
X3308897D1*
X2523700Y1819731D3*
X2312991Y1395330D3*
X1666669Y3017180D3*
X1760684Y2868149D3*
X2873676Y1821046D3*
X2623700D3*
X1893700Y3808700D3*
X1458700Y3533700D3*
X3020172Y3205043D3*
X2820172D3*
X3020172Y3401267D3*
X3156657Y3595350D3*
Y976720D3*
X2836204Y1860535D3*
X1536535Y1124188D3*
X3249271Y937231D3*
Y3634838D3*
X2485826Y1661999D3*
X2212598Y1699432D3*
X1813676Y2842165D3*
X2128247Y3216460D3*
X2049271D3*
X2403700Y3176972D3*
X1954251D3*
X1613676Y3108637D3*
X2259704Y3676413D3*
X1041696Y3430157D3*
X2573676Y2706180D3*
X2323700Y3069149D3*
X2334015Y2259487D3*
X2234015Y1752424D3*
X2375590Y1434822D3*
X731696Y3313700D3*
X2923700Y1360113D3*
X3203700Y1439129D3*
X2823700Y1117180D3*
X3103783Y1198267D3*
D17*
X2600629Y839920D3*
D18*
Y761180D3*
Y682440D3*
Y603700D3*
D17*
X2601968Y3373700D3*
D18*
Y3294960D3*
Y3216220D3*
Y3137480D3*
D19*
X1343700Y3133700D3*
D20*
X1243700D3*
D17*
X1892361Y839920D3*
D18*
Y761180D3*
Y682440D3*
Y603700D3*
D17*
X1893700Y3373700D3*
D18*
Y3294960D3*
Y3216220D3*
Y3137480D3*
D17*
X3308897Y839920D3*
D18*
Y761180D3*
Y682440D3*
Y603700D3*
D17*
X3310235Y3373700D3*
D18*
Y3294960D3*
Y3216220D3*
Y3137480D3*
D19*
X983700Y3123700D3*
D21*
Y3222125D3*
D19*
X673700Y3123700D3*
D21*
Y3222125D3*
D22*
X2922046Y1273700D3*
X3032283D3*
X2648818D3*
X2759054D3*
X2375590D3*
X2485826D3*
X2102361D3*
X2212598D3*
X1829133D3*
X1939369D3*
D23*
X1533700Y3313700D3*
Y3203464D3*
D62*
X2003700Y3513700D3*
X2103700D3*
X2203700D3*
X2303700D3*
X2403700D3*
X2503700D3*
X2603700D3*
X2703700D3*
X2803700D3*
X2903700D3*
X3003700D3*
X3103700D3*
X3203700D3*
X3303700D3*
Y3813700D3*
X3203700D3*
X3103700D3*
X3003700D3*
X2903700D3*
X2803700D3*
X2703700D3*
X2603700D3*
X2503700D3*
X2403700D3*
X2303700D3*
X2203700D3*
X2103700D3*
X2003700D3*
D65*
X2523700Y2953700D3*
X2423700Y1053700D3*
X2623700Y2953700D3*
X2723700D3*
X2823700D3*
X2923700D3*
X2423700D3*
X2323700D3*
X2223700D3*
X2063700D3*
X1963700D3*
X1863700D3*
X1763700D3*
X1663700D3*
X1563700D3*
X1463700D3*
X1363700D3*
X2523700Y1053700D3*
X2623700D3*
X2723700D3*
X2823700D3*
X2923700D3*
X2223700D3*
X2123700D3*
X2023700D3*
X1923700D3*
X1823700D3*
X1723700D3*
D27*
X634015Y2774172D3*
X734015D3*
X834015D3*
X934015D3*
X1034015D3*
X1134015D3*
X1234015D3*
X1334015D3*
X1434015D3*
X1534015D3*
X1634015D3*
X1734015D3*
X1834015D3*
X1934015D3*
X2034015D3*
X2134015D3*
X2234015D3*
X2334015D3*
X1123700Y3623700D3*
Y3523700D3*
Y3723700D3*
D28*
X713700Y873700D3*
D29*
Y1050865D3*
X457794D3*
Y873700D3*
D28*
X1536535D3*
D29*
Y1050865D3*
X1280629D3*
Y873700D3*
D28*
X1126535Y1087794D3*
D29*
Y1264960D3*
X870629D3*
Y1087794D3*
D28*
X1126535Y643700D3*
D29*
Y820865D3*
X870629D3*
Y643700D3*
D28*
X756535Y483700D3*
D29*
Y660865D3*
X500629D3*
Y483700D3*
D28*
X1499369D3*
D29*
Y660865D3*
X1243464D3*
Y483700D3*
M02*
