G04 DipTrace 3.3.1.3*
G04 TopDimension.gbr*
%MOIN*%
G04 #@! TF.FileFunction,Drawing,Top*
G04 #@! TF.Part,Single*
%ADD13C,0.001378*%
G04 #@! TA.AperFunction,Nonconductor*
%ADD61C,0.006176*%
%FSLAX26Y26*%
G04*
G70*
G90*
G75*
G01*
G04 TopDimension*
%LPD*%
X1363700Y2953700D2*
D13*
X1264015D1*
X1283700Y2773700D2*
X1264015D1*
X1283700Y2953700D2*
Y2773700D1*
Y3012755D2*
Y2993070D1*
G36*
Y2953700D2*
X1275826Y2993070D1*
X1291574D1*
X1283700Y2953700D1*
G37*
Y2714645D2*
D13*
Y2734330D1*
G36*
Y2773700D2*
X1291574Y2734330D1*
X1275826D1*
X1283700Y2773700D1*
G37*
X1238991Y2822866D2*
D61*
X1237045Y2826713D1*
X1231341Y2832461D1*
X1271489D1*
X1231341Y2854363D2*
X1233243Y2848659D1*
X1237045Y2846714D1*
X1240892D1*
X1244695Y2848659D1*
X1246640Y2852462D1*
X1248541Y2860111D1*
X1250443Y2865859D1*
X1254289Y2869662D1*
X1258092Y2871563D1*
X1263840D1*
X1267642Y2869662D1*
X1269588Y2867761D1*
X1271489Y2862013D1*
Y2854363D1*
X1269588Y2848659D1*
X1267642Y2846714D1*
X1263840Y2844813D1*
X1258092D1*
X1254289Y2846714D1*
X1250443Y2850561D1*
X1248541Y2856265D1*
X1246640Y2863914D1*
X1244695Y2867761D1*
X1240892Y2869662D1*
X1237045D1*
X1233243Y2867761D1*
X1231341Y2862013D1*
Y2854363D1*
Y2895411D2*
X1233243Y2889663D1*
X1238991Y2885816D1*
X1248541Y2883915D1*
X1254289D1*
X1263840Y2885816D1*
X1269588Y2889663D1*
X1271489Y2895411D1*
Y2899213D1*
X1269588Y2904961D1*
X1263840Y2908764D1*
X1254289Y2910709D1*
X1248541D1*
X1238991Y2908764D1*
X1233243Y2904961D1*
X1231341Y2899213D1*
Y2895411D1*
X1238991Y2908764D2*
X1263840Y2885816D1*
M02*
