G04 DipTrace 3.3.1.3*
G04 TopMask.gbr*
%MOIN*%
G04 #@! TF.FileFunction,Soldermask,Top*
G04 #@! TF.Part,Single*
%AMOUTLINE0*
4,1,20,
-0.02608,0.026058,
-0.024514,0.034979,
-0.019993,0.042827,
-0.013059,0.048655,
-0.004551,0.05176,
0.004507,0.051768,
0.01302,0.048677,
0.019963,0.042861,
0.0245,0.035021,
0.02608,0.026102,
0.02608,-0.026058,
0.024514,-0.034979,
0.019993,-0.042827,
0.013059,-0.048655,
0.004551,-0.05176,
-0.004507,-0.051768,
-0.01302,-0.048677,
-0.019963,-0.042861,
-0.0245,-0.035021,
-0.02608,-0.026102,
-0.02608,0.026058,
0*%
%AMOUTLINE1*
4,1,20,
-0.03002,0.026401,
-0.028275,0.036344,
-0.02306,0.045396,
-0.015062,0.052118,
-0.005249,0.055699,
0.005198,0.055708,
0.015017,0.052144,
0.023026,0.045435,
0.028258,0.036393,
0.03002,0.026449,
0.03002,-0.026401,
0.028275,-0.036344,
0.02306,-0.045396,
0.015062,-0.052118,
0.005249,-0.055699,
-0.005198,-0.055708,
-0.015017,-0.052144,
-0.023026,-0.045435,
-0.028258,-0.036393,
-0.03002,-0.026449,
-0.03002,0.026401,
0*%
%AMOUTLINE3*
4,1,8,
0.030488,-0.012629,
0.012629,-0.030488,
-0.012629,-0.030488,
-0.030488,-0.012629,
-0.030488,0.012629,
-0.012629,0.030488,
0.012629,0.030488,
0.030488,0.012629,
0.030488,-0.012629,
0*%
%ADD27C,0.07*%
%ADD28R,0.066929X0.066929*%
%ADD29C,0.066929*%
%ADD44R,0.078746X0.070872*%
%ADD46R,0.070872X0.078746*%
%ADD48C,0.070872*%
%ADD50C,0.070872*%
%ADD52R,0.070872X0.070872*%
%ADD54C,0.062998*%
%ADD56R,0.062998X0.062998*%
%ADD62OUTLINE0*%
%ADD63OUTLINE1*%
%ADD65OUTLINE3*%
%FSLAX26Y26*%
G04*
G70*
G90*
G75*
G01*
G04 TopMask*
%LPD*%
D56*
X2600629Y839920D3*
D54*
Y761180D3*
Y682440D3*
Y603700D3*
D56*
X2601968Y3373700D3*
D54*
Y3294960D3*
Y3216220D3*
Y3137480D3*
D52*
X1343700Y3133700D3*
D50*
X1243700D3*
D56*
X1892361Y839920D3*
D54*
Y761180D3*
Y682440D3*
Y603700D3*
D56*
X1893700Y3373700D3*
D54*
Y3294960D3*
Y3216220D3*
Y3137480D3*
D56*
X3308897Y839920D3*
D54*
Y761180D3*
Y682440D3*
Y603700D3*
D56*
X3310235Y3373700D3*
D54*
Y3294960D3*
Y3216220D3*
Y3137480D3*
D52*
X983700Y3123700D3*
D48*
Y3222125D3*
D52*
X673700Y3123700D3*
D48*
Y3222125D3*
D46*
X2922046Y1273700D3*
X3032283D3*
X2648818D3*
X2759054D3*
X2375590D3*
X2485826D3*
X2102361D3*
X2212598D3*
X1829133D3*
X1939369D3*
D44*
X1533700Y3313700D3*
Y3203464D3*
D62*
X2003700Y3513700D3*
D63*
X2103700D3*
X2203700D3*
X2303700D3*
X2403700D3*
X2503700D3*
X2603700D3*
X2703700D3*
X2803700D3*
X2903700D3*
X3003700D3*
X3103700D3*
X3203700D3*
X3303700D3*
Y3813700D3*
X3203700D3*
X3103700D3*
X3003700D3*
X2903700D3*
X2803700D3*
X2703700D3*
X2603700D3*
X2503700D3*
X2403700D3*
X2303700D3*
X2203700D3*
X2103700D3*
X2003700D3*
D65*
X2523700Y2953700D3*
X2423700Y1053700D3*
X2623700Y2953700D3*
X2723700D3*
X2823700D3*
X2923700D3*
X2423700D3*
X2323700D3*
X2223700D3*
X2063700D3*
X1963700D3*
X1863700D3*
X1763700D3*
X1663700D3*
X1563700D3*
X1463700D3*
X1363700D3*
X2523700Y1053700D3*
X2623700D3*
X2723700D3*
X2823700D3*
X2923700D3*
X2223700D3*
X2123700D3*
X2023700D3*
X1923700D3*
X1823700D3*
X1723700D3*
D27*
X634015Y2774172D3*
X734015D3*
X834015D3*
X934015D3*
X1034015D3*
X1134015D3*
X1234015D3*
X1334015D3*
X1434015D3*
X1534015D3*
X1634015D3*
X1734015D3*
X1834015D3*
X1934015D3*
X2034015D3*
X2134015D3*
X2234015D3*
X2334015D3*
X1123700Y3623700D3*
Y3523700D3*
Y3723700D3*
D28*
X713700Y873700D3*
D29*
Y1050865D3*
X457794D3*
Y873700D3*
D28*
X1536535D3*
D29*
Y1050865D3*
X1280629D3*
Y873700D3*
D28*
X1126535Y1087794D3*
D29*
Y1264960D3*
X870629D3*
Y1087794D3*
D28*
X1126535Y643700D3*
D29*
Y820865D3*
X870629D3*
Y643700D3*
D28*
X756535Y483700D3*
D29*
Y660865D3*
X500629D3*
Y483700D3*
D28*
X1499369D3*
D29*
Y660865D3*
X1243464D3*
Y483700D3*
M02*
