G04 DipTrace 3.3.1.3*
G04 Bottom.gbr*
%MOIN*%
G04 #@! TF.FileFunction,Copper,L2,Bot*
G04 #@! TF.Part,Single*
%AMOUTLINE0*
4,1,20,
-0.02608,0.026058,
-0.024514,0.034979,
-0.019993,0.042827,
-0.013059,0.048655,
-0.004551,0.05176,
0.004507,0.051768,
0.01302,0.048677,
0.019963,0.042861,
0.0245,0.035021,
0.02608,0.026102,
0.02608,-0.026058,
0.024514,-0.034979,
0.019993,-0.042827,
0.013059,-0.048655,
0.004551,-0.05176,
-0.004507,-0.051768,
-0.01302,-0.048677,
-0.019963,-0.042861,
-0.0245,-0.035021,
-0.02608,-0.026102,
-0.02608,0.026058,
0*%
%AMOUTLINE3*
4,1,8,
0.030488,-0.012629,
0.012629,-0.030488,
-0.012629,-0.030488,
-0.030488,-0.012629,
-0.030488,0.012629,
-0.012629,0.030488,
0.012629,0.030488,
0.030488,0.012629,
0.030488,-0.012629,
0*%
G04 #@! TA.AperFunction,Conductor*
%ADD13C,0.012992*%
G04 #@! TA.AperFunction,ViaPad*
%ADD14C,0.04*%
G04 #@! TA.AperFunction,ComponentPad*
%ADD16R,0.055118X0.055118*%
%ADD17C,0.055118*%
%ADD18R,0.062992X0.062992*%
%ADD19C,0.062992*%
%ADD20C,0.062992*%
%ADD25C,0.07*%
%ADD26R,0.066929X0.066929*%
%ADD27C,0.066929*%
%ADD29C,0.205354*%
%ADD30C,0.179685*%
%ADD66OUTLINE0*%
%ADD69OUTLINE3*%
%FSLAX26Y26*%
G04*
G70*
G90*
G75*
G01*
G04 Bottom*
%LPD*%
X2423700Y1053700D2*
D13*
Y738916D1*
X2480176Y682440D1*
X2401436Y603700D1*
X1892361D1*
X2480176Y682440D2*
X2600629D1*
Y603700D2*
X2654684Y657755D1*
Y893976D1*
X2549684D1*
X2523700Y919960D1*
Y1053700D1*
X2673676Y3097991D2*
Y1053700D1*
X2623700D1*
X2601968Y3137480D2*
X2747692D1*
X2773676Y3111496D1*
Y2175940D1*
X2723700Y2125964D1*
Y1053700D1*
X2340684Y2334657D2*
Y708424D1*
X2314700Y682440D1*
X1892361D1*
X2523700Y2334657D2*
Y2953700D1*
X1763700D2*
Y3086220D1*
X1893700Y3216220D1*
X2623700Y1796700D2*
Y2953700D1*
X2784747Y1796700D2*
X2773676Y1785629D1*
Y708425D1*
X2799661Y682440D1*
X3308897D1*
X2423700Y2953700D2*
Y1676593D1*
X2573676Y1526617D1*
Y1003720D1*
X2599661Y977735D1*
X2654685D1*
X2680669Y951751D1*
Y629684D1*
X2706653Y603700D1*
X3308897D1*
X2903700Y3513700D2*
D14*
Y3661932D1*
X2963700Y3721932D1*
X3103700D1*
X3203700D1*
X3303700D1*
Y3813700D1*
X3203700D2*
Y3721932D1*
X1892361Y839920D2*
X2023700Y971259D1*
Y1053700D1*
X687637Y3663700D2*
Y3420822D1*
X673700Y3406885D1*
Y3072125D1*
X983700Y2973700D2*
X1083700D1*
X1243700Y3133700D1*
X3103700Y3813700D2*
Y3721932D1*
X1126535Y1087794D2*
X1199999Y1014330D1*
Y954330D1*
X1280629Y873700D1*
X870629Y643700D2*
Y483700D1*
X756535D1*
X1243700Y3133700D2*
Y3339688D1*
X1303700Y3399688D1*
X1593700D1*
X1619688Y3373700D1*
X1893700D1*
X2023700Y1053700D2*
Y1184188D1*
X2123700D1*
Y1053700D1*
X713700Y873700D2*
X457794D1*
X870629Y1087794D2*
X730004Y947169D1*
X713700D1*
Y873700D1*
X634015Y2704172D2*
Y2470771D1*
X944094Y2160692D1*
Y1161259D1*
X870629Y1087794D1*
X673700Y3072125D2*
X633699D1*
X602204Y3040630D1*
Y2810983D1*
X634015Y2779172D1*
Y2704172D1*
X1593700Y3399688D2*
Y3533700D1*
X1126535Y643700D2*
Y483700D1*
X1243464D1*
X1280629Y873700D2*
Y794334D1*
X1220629Y734334D1*
X1126535D1*
Y643700D1*
X756535Y660865D2*
D13*
Y765113D1*
X787165D1*
X2961535Y1603440D2*
X2973676Y1615581D1*
Y3240909D1*
X2947692Y3266893D1*
X2775255D1*
X2749271Y3292877D1*
Y3584956D1*
X2703700Y3630527D1*
Y3813700D1*
X2873676Y1537684D2*
Y3137484D1*
X2847692Y3163468D1*
X2682011D1*
X2656027Y3189452D1*
Y3584956D1*
X2603700Y3637283D1*
Y3813700D1*
X1536535Y1050865D2*
X1609999D1*
X1126535Y820865D2*
X990590Y956810D1*
Y2517153D1*
X870629Y1264960D2*
X555708Y1579881D1*
Y3769212D1*
X581692Y3795196D1*
X1687755D1*
X1771294Y3711657D1*
X2103700Y3813700D2*
Y3711653D1*
X2129684Y3685669D1*
X2423286D1*
X2449271Y3659684D1*
Y3349255D1*
X2473676Y3324850D1*
Y1862172D1*
X2485826D1*
X2388503Y1187243D2*
Y2869712D1*
X2373676Y2884539D1*
Y3334960D1*
X2349271Y3359365D1*
Y3633700D1*
X2323287Y3659684D1*
X2029685D1*
X2003700Y3685669D1*
Y3813700D1*
X2273676Y2779172D2*
Y3057307D1*
X2249271Y3081712D1*
Y3584956D1*
X2003700D1*
Y3513700D1*
X2013676Y2831141D2*
Y3286609D1*
X2103700Y3376633D1*
Y3513700D1*
X2203700D2*
Y3151743D1*
X2172708Y3120751D1*
Y2791653D1*
X2146724Y2765669D1*
X1895512D1*
X1834015Y2704172D1*
X2053165Y3229964D2*
Y3017180D1*
X2303700Y3229964D2*
Y3513700D1*
X2113676Y3017180D2*
Y2817637D1*
X2087692Y2791653D1*
X1721496D1*
X1634015Y2704172D1*
X2413165Y3017180D2*
X2403700Y3026645D1*
Y3513700D1*
X2573676Y2616688D2*
Y3051460D1*
X2547704Y3077432D1*
Y3427759D1*
X2603700D1*
Y3513700D1*
X2323700Y3096157D2*
Y2953700D1*
X1593700Y3633700D2*
X1921771D1*
X1947755Y3607716D1*
Y3057299D1*
X1921767Y3031311D1*
X1839661D1*
X1813676Y3005326D1*
Y2896613D1*
X1787692Y2870629D1*
X1000472D1*
X834015Y2704172D1*
X2334015D2*
Y2480043D1*
X2234015Y2704172D2*
Y2192960D1*
X2134015Y2704172D2*
Y2232448D1*
X1499369Y660865D2*
X1723700Y885196D1*
Y1053700D1*
X3103700Y1563952D2*
Y3513700D1*
X2857558Y1273700D2*
X2923700Y1207558D1*
Y1053700D1*
X2823700D2*
X2802141D1*
Y1442893D1*
X2828128Y1468880D1*
X3177716D1*
X3203700Y1494864D1*
Y3513700D1*
X1892361Y761180D2*
D14*
X2234188D1*
X2294188Y821180D1*
Y1809689D1*
X2008027Y2095850D1*
Y2629169D1*
X769015D1*
X734015Y2664169D1*
Y2704172D1*
X3308897Y761180D2*
X3163783D1*
X3103783Y821180D1*
Y1150172D1*
X1343700Y3133700D2*
X1504960Y3294960D1*
X1893700D1*
X2803700Y3513700D2*
Y3333704D1*
X2008027Y2629169D2*
X2034015D1*
Y2704172D1*
X983700Y3072125D2*
X1076377Y3164802D1*
Y3521023D1*
X933700Y3663700D1*
X734015Y2704172D2*
Y2893586D1*
X745196Y2904767D1*
Y3012122D1*
X805199Y3072125D1*
X983700D1*
X2673676Y3097991D3*
X2340684Y2334657D3*
X2523700D3*
X2784747Y1796700D3*
X2623700D3*
X2961535Y1603440D3*
X787165Y765113D3*
X2873676Y1537684D3*
X1609999Y1050865D3*
X990590Y2517153D3*
X1771294Y3711657D3*
X2485826Y1862172D3*
X2388503Y1187243D3*
X2273676Y2779172D3*
X2013676Y2831141D3*
X2053165Y3017180D3*
Y3229964D3*
X2303700D3*
X2113676Y3017180D3*
X2413165D3*
X2573676Y2616688D3*
X2323700Y3096157D3*
X2334015Y2480043D3*
X2234015Y2192960D3*
X2134015Y2232448D3*
X3103700Y1563952D3*
X2857558Y1273700D3*
X3103783Y1150172D3*
X2803700Y3333704D3*
D16*
X2600629Y839920D3*
D17*
Y761180D3*
Y682440D3*
Y603700D3*
D16*
X2601968Y3373700D3*
D17*
Y3294960D3*
Y3216220D3*
Y3137480D3*
D18*
X1343700Y3133700D3*
D19*
X1243700D3*
D16*
X1892361Y839920D3*
D17*
Y761180D3*
Y682440D3*
Y603700D3*
D16*
X1893700Y3373700D3*
D17*
Y3294960D3*
Y3216220D3*
Y3137480D3*
D16*
X3308897Y839920D3*
D17*
Y761180D3*
Y682440D3*
Y603700D3*
D16*
X3310235Y3373700D3*
D17*
Y3294960D3*
Y3216220D3*
Y3137480D3*
D18*
X983700Y2973700D3*
D20*
Y3072125D3*
D18*
X673700Y2973700D3*
D20*
Y3072125D3*
D66*
X2003700Y3513700D3*
X2103700D3*
X2203700D3*
X2303700D3*
X2403700D3*
X2503700D3*
X2603700D3*
X2703700D3*
X2803700D3*
X2903700D3*
X3003700D3*
X3103700D3*
X3203700D3*
X3303700D3*
Y3813700D3*
X3203700D3*
X3103700D3*
X3003700D3*
X2903700D3*
X2803700D3*
X2703700D3*
X2603700D3*
X2503700D3*
X2403700D3*
X2303700D3*
X2203700D3*
X2103700D3*
X2003700D3*
D69*
X2523700Y2953700D3*
X2423700Y1053700D3*
X2623700Y2953700D3*
X2723700D3*
X2823700D3*
X2923700D3*
X2423700D3*
X2323700D3*
X2223700D3*
X2063700D3*
X1963700D3*
X1863700D3*
X1763700D3*
X1663700D3*
X1563700D3*
X1463700D3*
X1363700D3*
X2523700Y1053700D3*
X2623700D3*
X2723700D3*
X2823700D3*
X2923700D3*
X2223700D3*
X2123700D3*
X2023700D3*
X1923700D3*
X1823700D3*
X1723700D3*
D25*
X634015Y2704172D3*
X734015D3*
X834015D3*
X934015D3*
X1034015D3*
X1134015D3*
X1234015D3*
X1334015D3*
X1434015D3*
X1534015D3*
X1634015D3*
X1734015D3*
X1834015D3*
X1934015D3*
X2034015D3*
X2134015D3*
X2234015D3*
X2334015D3*
X1593700Y3633700D3*
Y3533700D3*
Y3733700D3*
D26*
X713700Y873700D3*
D27*
Y1050865D3*
X457794D3*
Y873700D3*
D26*
X1536535D3*
D27*
Y1050865D3*
X1280629D3*
Y873700D3*
D26*
X1126535Y1087794D3*
D27*
Y1264960D3*
X870629D3*
Y1087794D3*
D26*
X1126535Y643700D3*
D27*
Y820865D3*
X870629D3*
Y643700D3*
D26*
X756535Y483700D3*
D27*
Y660865D3*
X500629D3*
Y483700D3*
D29*
X933700Y3663700D3*
D30*
X687637D3*
X821495Y3474724D3*
D26*
X1499369Y483700D3*
D27*
Y660865D3*
X1243464D3*
Y483700D3*
M02*
