G04 DipTrace 3.3.1.3*
G04 Bottom.gbr*
%MOIN*%
G04 #@! TF.FileFunction,Copper,L2,Bot*
G04 #@! TF.Part,Single*
%AMOUTLINE0*
4,1,20,
-0.02608,0.026058,
-0.024514,0.034979,
-0.019993,0.042827,
-0.013059,0.048655,
-0.004551,0.05176,
0.004507,0.051768,
0.01302,0.048677,
0.019963,0.042861,
0.0245,0.035021,
0.02608,0.026102,
0.02608,-0.026058,
0.024514,-0.034979,
0.019993,-0.042827,
0.013059,-0.048655,
0.004551,-0.05176,
-0.004507,-0.051768,
-0.01302,-0.048677,
-0.019963,-0.042861,
-0.0245,-0.035021,
-0.02608,-0.026102,
-0.02608,0.026058,
0*%
%AMOUTLINE3*
4,1,8,
0.030488,-0.012629,
0.012629,-0.030488,
-0.012629,-0.030488,
-0.030488,-0.012629,
-0.030488,0.012629,
-0.012629,0.030488,
0.012629,0.030488,
0.030488,0.012629,
0.030488,-0.012629,
0*%
G04 #@! TA.AperFunction,Conductor*
%ADD13C,0.012992*%
G04 #@! TA.AperFunction,ViaPad*
%ADD14C,0.04*%
G04 #@! TA.AperFunction,ComponentPad*
%ADD17R,0.055118X0.055118*%
%ADD18C,0.055118*%
%ADD19R,0.062992X0.062992*%
%ADD20C,0.062992*%
%ADD21C,0.062992*%
%ADD26C,0.07*%
%ADD27R,0.066929X0.066929*%
%ADD28C,0.066929*%
%ADD30C,0.205354*%
%ADD31C,0.179685*%
%ADD66OUTLINE0*%
%ADD69OUTLINE3*%
%FSLAX26Y26*%
G04*
G70*
G90*
G75*
G01*
G04 Bottom*
%LPD*%
X2600629Y682440D2*
D13*
X2423700Y859369D1*
Y1053700D1*
X2523700D2*
Y919960D1*
X2549684Y893976D1*
X2654684D1*
X2680669Y867991D1*
Y683740D1*
X2600629Y603700D1*
X2623700Y1053700D2*
X2673676D1*
Y3003681D1*
X2647692Y3029665D1*
X2573680D1*
X2547696Y3055649D1*
Y3161948D1*
X2601968Y3216220D1*
Y3137480D2*
X2747692D1*
X2773676Y3111496D1*
Y1053700D1*
X2723700D1*
X2287180Y1117184D2*
Y708424D1*
X2261196Y682440D1*
X1892361D1*
X2523700Y1117184D2*
Y2953700D1*
X1893700Y3216220D2*
X1763700Y3086220D1*
Y2953700D1*
X2623700D2*
Y1925838D1*
X2573676Y1875814D1*
Y945945D1*
X2599661Y919960D1*
X2768417D1*
X3005937Y682440D1*
X3308897D1*
X2423700Y2953700D2*
Y1966700D1*
X2362523Y1905523D1*
Y556649D1*
X2388507Y530665D1*
X3235862D1*
X3308897Y603700D1*
X3303700Y3813700D2*
D14*
D3*
X687637Y3663700D2*
Y3420822D1*
X673700Y3406885D1*
Y3072125D1*
X1243700Y3133700D2*
Y3313700D1*
X1303700Y3373700D1*
X1593700D1*
X1126535Y1087794D2*
X1199999Y1014330D1*
Y954330D1*
X1280629Y873700D1*
X870629Y643700D2*
Y483700D1*
X756535D1*
X3303700Y3813700D2*
X3294937D1*
Y3721932D1*
X3203700D1*
X3103700D1*
Y3813700D1*
X2903700Y3513700D2*
Y3414968D1*
X2843700Y3354968D1*
X2739204D1*
X3203700Y3813700D2*
Y3721932D1*
X2023700Y1053700D2*
Y1184192D1*
X2123700D1*
Y1053700D1*
X2023700D2*
D3*
X1892361Y839920D2*
X2023700Y971259D1*
Y1053700D1*
X1770196Y839920D2*
X1892361D1*
X713700Y873700D2*
X457794D1*
X870629Y1087794D2*
X787165Y1004330D1*
Y947165D1*
X713700Y873700D1*
X634015Y2704172D2*
Y1324409D1*
X870629Y1087794D1*
X673700Y3072125D2*
X584805D1*
X524806Y3012126D1*
Y2813381D1*
X634015Y2704172D1*
X1593700Y3373700D2*
Y3533700D1*
X1243464Y483700D2*
X1354098D1*
X1499369D1*
X1126535Y643700D2*
Y483700D1*
X1243464D1*
X1280629Y873700D2*
Y794334D1*
X1220629Y734334D1*
X1126535D1*
Y643700D1*
X2873676Y959448D2*
D13*
Y3099409D1*
X2656027Y3317058D1*
Y3584956D1*
X2603700Y3637283D1*
Y3813700D1*
X1536535Y1050865D2*
Y959448D1*
X1668700Y3598460D2*
Y3769212D1*
X1642716Y3795196D1*
X597282D1*
X571298Y3769212D1*
Y3219877D1*
X584802Y3206373D1*
X2494936Y3598460D2*
D3*
X584802Y3206373D2*
D3*
X2494936Y3598460D2*
X2503700Y3607224D1*
Y3813700D1*
X2657834Y3703420D2*
X2930295D1*
X2956279Y3677436D1*
Y3410483D1*
X2974322Y3392440D1*
Y2231109D1*
X2403700Y3703420D2*
Y3813700D1*
X457794Y1050865D2*
Y3821180D1*
X2573676Y2877125D2*
Y3003680D1*
X2475256D1*
X2449271Y3029665D1*
Y3610940D1*
X2423287Y3636924D1*
X2129685D1*
X2103700Y3662909D1*
Y3813700D1*
X1713676Y2851141D2*
Y3719554D1*
X1739661Y3745539D1*
X2003700D1*
Y3813700D1*
X1913676Y2811653D2*
Y3003680D1*
X1958203D1*
X1984188Y3029665D1*
Y3445539D1*
X2003700D1*
Y3513700D1*
X1934015Y2704172D2*
X2013676Y2783833D1*
Y3003680D1*
X2103700Y3093704D1*
Y3513700D1*
X1834015Y2704172D2*
Y2793365D1*
X1813676Y2813704D1*
Y3003680D1*
X1839661Y3029665D1*
X1921771D1*
X1947755Y3055649D1*
Y3584956D1*
X2203700D1*
Y3513700D1*
X1751149Y2805157D2*
X1734015Y2788023D1*
Y2704172D1*
X2303700Y3069153D2*
Y3513700D1*
X2294523Y2610192D2*
X2362519D1*
X2388503Y2636176D1*
Y2830011D1*
X2373676Y2844838D1*
Y3067641D1*
X2403700Y3097665D1*
Y3513700D1*
X2173503Y2610192D2*
X1727995D1*
X1634015Y2704172D1*
X1136531Y3427759D2*
X1134015Y3425243D1*
Y2704172D1*
X2173224Y3176972D2*
Y2772165D1*
X2488759Y3176972D2*
Y3401775D1*
X2514743Y3427759D1*
X2603700D1*
Y3513700D1*
X1824432Y3506735D2*
Y3637948D1*
X1668700Y3017184D2*
Y3506735D1*
X1786960Y3467247D2*
X1863920D1*
Y3584955D1*
X1889905Y3610940D1*
X2229834D1*
X2255818Y3584956D1*
Y3029664D1*
X2281802Y3003680D1*
X2323700D1*
Y2953700D1*
X834015Y2704172D2*
X1062873Y2933030D1*
Y3607716D1*
X1088857Y3633700D1*
X1593700D1*
X2305279Y1273700D2*
X2234015Y1344964D1*
Y2704172D1*
X733704Y3192873D2*
Y3033704D1*
X673700Y2973700D1*
X1499369Y660865D2*
X1723700Y885196D1*
Y1053700D1*
X2923700D2*
Y2065200D1*
X3078410Y2219910D1*
Y3513700D1*
X3103700D1*
X3203700Y1416043D2*
Y3513700D1*
X1892361Y761180D2*
D14*
X1770196D1*
X1566185Y557169D1*
X1414094D1*
X1354094Y617169D1*
Y2569169D1*
X3308897Y761180D2*
X3113873D1*
X3053873Y821180D1*
Y1366377D1*
X933700Y3663700D2*
X990708Y3606692D1*
Y3267129D1*
X983700Y3260121D1*
Y3072125D1*
X1343700Y3133700D2*
X1504137D1*
X1564137Y3193700D1*
Y3294960D1*
X983700Y3072125D2*
X847518D1*
X787519Y3012126D1*
Y2858661D1*
X734015Y2805157D1*
Y2704172D1*
X2287180Y1117184D3*
X2523700D3*
X2739204Y3354968D3*
X1770196Y839920D3*
X1593700Y3373700D3*
X2873676Y959448D3*
X1536535D3*
X584802Y3206373D3*
X1668700Y3598460D3*
X2494936D3*
X2974322Y2231109D3*
X2657834Y3703420D3*
X2403700D3*
X457794Y3821180D3*
X2573676Y2877125D3*
X1713676Y2851141D3*
X1913676Y2811653D3*
X1751149Y2805157D3*
X2303700Y3069153D3*
X2294523Y2610192D3*
X2173503D3*
X1136531Y3427759D3*
X2173224Y2772165D3*
Y3176972D3*
X2488759D3*
X1824432Y3637948D3*
Y3506735D3*
X1668700D3*
Y3017184D3*
X1786960Y3467247D3*
X2305279Y1273700D3*
X733704Y3192873D3*
X3203700Y1416043D3*
X1354094Y2569169D3*
X3053873Y1366377D3*
X1564137Y3294960D3*
D17*
X2600629Y839920D3*
D18*
Y761180D3*
Y682440D3*
Y603700D3*
D17*
X2601968Y3373700D3*
D18*
Y3294960D3*
Y3216220D3*
Y3137480D3*
D19*
X1343700Y3133700D3*
D20*
X1243700D3*
D17*
X1892361Y839920D3*
D18*
Y761180D3*
Y682440D3*
Y603700D3*
D17*
X1893700Y3373700D3*
D18*
Y3294960D3*
Y3216220D3*
Y3137480D3*
D17*
X3308897Y839920D3*
D18*
Y761180D3*
Y682440D3*
Y603700D3*
D17*
X3310235Y3373700D3*
D18*
Y3294960D3*
Y3216220D3*
Y3137480D3*
D19*
X983700Y2973700D3*
D21*
Y3072125D3*
D19*
X673700Y2973700D3*
D21*
Y3072125D3*
D66*
X2003700Y3513700D3*
X2103700D3*
X2203700D3*
X2303700D3*
X2403700D3*
X2503700D3*
X2603700D3*
X2703700D3*
X2803700D3*
X2903700D3*
X3003700D3*
X3103700D3*
X3203700D3*
X3303700D3*
Y3813700D3*
X3203700D3*
X3103700D3*
X3003700D3*
X2903700D3*
X2803700D3*
X2703700D3*
X2603700D3*
X2503700D3*
X2403700D3*
X2303700D3*
X2203700D3*
X2103700D3*
X2003700D3*
D69*
X2523700Y2953700D3*
X2423700Y1053700D3*
X2623700Y2953700D3*
X2723700D3*
X2823700D3*
X2923700D3*
X2423700D3*
X2323700D3*
X2223700D3*
X2063700D3*
X1963700D3*
X1863700D3*
X1763700D3*
X1663700D3*
X1563700D3*
X1463700D3*
X1363700D3*
X2523700Y1053700D3*
X2623700D3*
X2723700D3*
X2823700D3*
X2923700D3*
X2223700D3*
X2123700D3*
X2023700D3*
X1923700D3*
X1823700D3*
X1723700D3*
D26*
X634015Y2704172D3*
X734015D3*
X834015D3*
X934015D3*
X1034015D3*
X1134015D3*
X1234015D3*
X1334015D3*
X1434015D3*
X1534015D3*
X1634015D3*
X1734015D3*
X1834015D3*
X1934015D3*
X2034015D3*
X2134015D3*
X2234015D3*
X2334015D3*
X1593700Y3633700D3*
Y3533700D3*
Y3733700D3*
D27*
X713700Y873700D3*
D28*
Y1050865D3*
X457794D3*
Y873700D3*
D27*
X1536535D3*
D28*
Y1050865D3*
X1280629D3*
Y873700D3*
D27*
X1126535Y1087794D3*
D28*
Y1264960D3*
X870629D3*
Y1087794D3*
D27*
X1126535Y643700D3*
D28*
Y820865D3*
X870629D3*
Y643700D3*
D27*
X756535Y483700D3*
D28*
Y660865D3*
X500629D3*
Y483700D3*
D30*
X933700Y3663700D3*
D31*
X687637D3*
X821495Y3474724D3*
D27*
X1499369Y483700D3*
D28*
Y660865D3*
X1243464D3*
Y483700D3*
M02*
