G04 DipTrace 3.3.1.3*
G04 Bottom.gbr*
%MOIN*%
G04 #@! TF.FileFunction,Copper,L2,Bot*
G04 #@! TF.Part,Single*
%AMOUTLINE0*
4,1,20,
-0.02608,0.026058,
-0.024514,0.034979,
-0.019993,0.042827,
-0.013059,0.048655,
-0.004551,0.05176,
0.004507,0.051768,
0.01302,0.048677,
0.019963,0.042861,
0.0245,0.035021,
0.02608,0.026102,
0.02608,-0.026058,
0.024514,-0.034979,
0.019993,-0.042827,
0.013059,-0.048655,
0.004551,-0.05176,
-0.004507,-0.051768,
-0.01302,-0.048677,
-0.019963,-0.042861,
-0.0245,-0.035021,
-0.02608,-0.026102,
-0.02608,0.026058,
0*%
%AMOUTLINE3*
4,1,8,
0.030488,-0.012629,
0.012629,-0.030488,
-0.012629,-0.030488,
-0.030488,-0.012629,
-0.030488,0.012629,
-0.012629,0.030488,
0.012629,0.030488,
0.030488,0.012629,
0.030488,-0.012629,
0*%
G04 #@! TA.AperFunction,Conductor*
%ADD13C,0.012992*%
G04 #@! TA.AperFunction,ViaPad*
%ADD14C,0.04*%
G04 #@! TA.AperFunction,ComponentPad*
%ADD16R,0.055118X0.055118*%
%ADD17C,0.055118*%
%ADD18R,0.062992X0.062992*%
%ADD19C,0.062992*%
%ADD20C,0.062992*%
%ADD25C,0.07*%
%ADD26R,0.066929X0.066929*%
%ADD27C,0.066929*%
%ADD29C,0.205354*%
%ADD30C,0.179685*%
%ADD65OUTLINE0*%
%ADD68OUTLINE3*%
%FSLAX26Y26*%
G04*
G70*
G90*
G75*
G01*
G04 Bottom*
%LPD*%
X1902361Y603700D2*
D13*
X2397717D1*
X2470752Y530665D1*
X2955251D1*
X3107026Y682440D1*
X3318897D1*
X2397717Y603700D2*
X2423700Y629683D1*
Y1053700D1*
X2678188Y643188D2*
Y905504D1*
X2652203Y931489D1*
X2549688D1*
X2523700Y957477D1*
Y1053700D1*
X3318897Y603700D2*
X3258346D1*
X2623700Y1053700D2*
Y1406684D1*
X2649685Y1432669D1*
X3217204D1*
X3243188Y1458653D1*
Y3130905D1*
X3318503Y3206220D1*
X2610629Y603700D2*
X2697717D1*
X2723700Y629683D1*
Y1053700D1*
Y1380699D1*
X2749685Y1406684D1*
X3292518D1*
X3318503Y1432669D1*
Y3127480D1*
X2523700Y2953700D2*
Y2145184D1*
X2273680Y1895164D1*
Y708424D1*
X2247696Y682440D1*
X1902361D1*
X2506106Y1585271D2*
X2473680D1*
Y819389D1*
X2610629Y682440D1*
X1763700Y2953700D2*
Y2843700D1*
X1753700D1*
X1988507Y3206220D2*
X1963700Y3181413D1*
Y2953700D1*
X2610235Y3206220D2*
X2549680D1*
X2899192Y3391267D2*
D14*
D3*
X2903700Y3513700D2*
Y3661932D1*
X2963700Y3721932D1*
X3103700D1*
X3203700D1*
X3303700D1*
Y3813700D1*
X687637Y3663700D2*
Y3420822D1*
X673700Y3406885D1*
Y3072125D1*
X3103700Y3813700D2*
Y3721932D1*
X1243700Y3133700D2*
Y3033704D1*
X1183696Y2973700D1*
X983700D1*
X1460176Y3363704D2*
Y3533700D1*
X1593700D1*
X1126535Y1087794D2*
X1199999Y1014330D1*
Y954330D1*
X1280629Y873700D1*
X870629Y643700D2*
Y483700D1*
X756535D1*
X1902361Y839920D2*
X2031072D1*
Y957224D1*
X2057056Y983208D1*
X2031072D1*
Y1053700D1*
X2023700D1*
X3203700Y3813700D2*
Y3721932D1*
X2899192Y3391267D2*
X2903700Y3395775D1*
Y3513700D1*
X870629Y1087794D2*
X787165Y1004330D1*
Y947165D1*
X713700Y873700D1*
X634015Y2704172D2*
Y1324409D1*
X870629Y1087794D1*
X673700Y3072125D2*
X577755D1*
Y2835432D1*
X634015Y2779172D1*
Y2704172D1*
X1243464Y483700D2*
X1414094D1*
X1499369D1*
X1126535Y643700D2*
Y483700D1*
X1243464D1*
X1280629Y873700D2*
Y794334D1*
X1220629Y734334D1*
X1126535D1*
Y643700D1*
X756535Y483700D2*
X500629D1*
X2023700Y1053700D2*
D3*
X2057056Y983208D2*
X2123700D1*
Y1053700D1*
X756535Y660865D2*
D13*
X696570Y720830D1*
X553582D1*
Y694331D1*
X520116Y660865D1*
X500629D1*
X2597783Y3653078D2*
X2677716D1*
X2703700Y3679062D1*
Y3813700D1*
X500629Y660865D2*
D3*
X1602991Y2471102D2*
X2362519D1*
X2388503Y2497086D1*
Y2751247D1*
X2373680Y2766070D1*
Y3003676D1*
X2436247Y3066243D1*
Y3430719D1*
X2449271Y3443743D1*
Y3666582D1*
X2475255Y3692566D1*
X2568952D1*
X2594937Y3718551D1*
Y3813700D1*
X2603700D1*
X1536535Y1050865D2*
X1602991D1*
X2603700Y3813700D2*
D3*
X2750704Y3732035D2*
Y3123483D1*
X2773680Y3100507D1*
Y2118975D1*
X2373082Y1718377D1*
Y984413D1*
X2403700Y3813700D2*
D3*
X870629Y1264960D2*
Y1700909D1*
X2403700Y3813700D2*
X2394936D1*
Y3624444D1*
X2649751Y3431263D2*
X2673680Y3407334D1*
Y2833680D1*
X2663700Y2823700D1*
X1816846Y3545468D2*
X1895822D1*
X1816846Y3624444D2*
X2077716D1*
X2103700Y3650428D1*
Y3813700D1*
X1482094Y2765669D2*
Y2861941D1*
X1513680Y2893527D1*
Y3323704D1*
X1655196Y3465220D1*
Y3719555D1*
X1681180Y3745539D1*
X2003700D1*
Y3813700D1*
X2414487Y2805157D2*
Y2457597D1*
X2388503Y2431613D1*
X2238346D1*
X1813680Y2805157D2*
Y3391774D1*
X1839665Y3417759D1*
X2003700D1*
Y3513700D1*
X2072708Y3069149D2*
D3*
X2177669D2*
D3*
X2103700Y3513700D2*
D3*
X2072708Y3069149D2*
X2078410Y3074851D1*
Y3513700D1*
X2103700D1*
X2177669Y3069149D2*
X2164165Y3055645D1*
Y2791654D1*
X2138180Y2765669D1*
X1995512D1*
X1934015Y2704172D1*
X2003192Y3056669D2*
X2030200Y3029661D1*
X2112196D1*
Y3232700D1*
X2203700Y3324204D1*
Y3513700D1*
X1613680Y2824133D2*
Y3020228D1*
X1650121Y3056669D1*
X1094523Y2805157D2*
X1173503D1*
X1834015Y2704172D2*
Y2510590D1*
X2303700Y3513700D2*
Y3282633D1*
X2138180Y3117113D1*
Y2873148D1*
X2112195Y2847163D1*
X1940069D1*
X1851567Y2758661D1*
X1788504D1*
X1734015Y2704172D1*
X1634015D2*
Y2784646D1*
X1713680Y2864311D1*
Y3558971D1*
X1739665Y3584956D1*
X2403700D1*
Y3513700D1*
X1034015Y2704172D2*
X1372046Y2366141D1*
X2447696D1*
X2473680Y2392125D1*
Y3391774D1*
X2499665Y3417759D1*
X2603700D1*
Y3513700D1*
X1553169Y3017180D2*
Y3210681D1*
X1681180Y3338692D1*
Y3679062D1*
X1694684Y3692566D1*
X1413680Y2857133D2*
X1086976D1*
X934015Y2704172D1*
X1694684Y3692566D2*
D3*
X2323700Y2953700D2*
Y3017180D1*
X1593700Y3633700D2*
X1427676D1*
X1401692Y3607716D1*
Y3029660D1*
X1375708Y3003676D1*
X1301692D1*
Y2929708D1*
X1275708Y2903724D1*
X1033567D1*
X834015Y2704172D1*
X2234015D2*
Y2510590D1*
X1053700Y3053700D2*
X1173503D1*
Y3056669D1*
X1499369Y660865D2*
X1723700Y885196D1*
Y1053700D1*
X3103700Y1498145D2*
Y3513700D1*
X3203700Y1616306D2*
Y3513700D1*
X1343700Y3133700D2*
D14*
Y3231180D1*
X1283700Y3291180D1*
X1076377D1*
Y3663696D1*
X1146381Y3733700D1*
X1593700D1*
X1902361Y761180D2*
X1771074D1*
X1567063Y557169D1*
X1414098D1*
X1354098Y617169D1*
Y1827641D1*
X734015Y2447724D1*
Y2704172D1*
X3318897Y761180D2*
X3070633D1*
X3010633Y821180D1*
Y1184188D1*
X2803700Y3513700D2*
Y3284960D1*
X983700Y3072125D2*
Y3198503D1*
X1076377Y3291180D1*
X734015Y2704172D2*
Y2893586D1*
X745196Y2904767D1*
Y3012122D1*
X805199Y3072125D1*
X983700D1*
X3010633Y1184188D2*
X2897204D1*
X933700Y3663700D2*
X1076377Y3663696D1*
X2678188Y643188D3*
X3258346Y603700D3*
X2506106Y1585271D3*
X1753700Y2843700D3*
X1988507Y3206220D3*
X2549680D3*
X2031072Y839920D3*
X1460176Y3363704D3*
X2899192Y3391267D3*
X2597783Y3653078D3*
X1602991Y2471102D3*
Y1050865D3*
X2373082Y984413D3*
X2750704Y3732035D3*
X2394936Y3624444D3*
X870629Y1700909D3*
X2663700Y2823700D3*
X2649751Y3431263D3*
X1895822Y3545468D3*
X1816846D3*
Y3624444D3*
X1482094Y2765669D3*
X2238346Y2431613D3*
X2414487Y2805157D3*
X1813680D3*
X2072708Y3069149D3*
X2177669D3*
X2003192Y3056669D3*
X1650121D3*
X1613680Y2824133D3*
X1173503Y2805157D3*
X1094523D3*
X1834015Y2510590D3*
X1694684Y3692566D3*
X1553169Y3017180D3*
X1413680Y2857133D3*
X2323700Y3017180D3*
X2234015Y2510590D3*
X1173503Y3056669D3*
X1053700Y3053700D3*
X3103700Y1498145D3*
X3203700Y1616306D3*
X3010633Y1184188D3*
X2897204D3*
X2803700Y3284960D3*
D16*
X3318897Y839920D3*
D17*
Y761180D3*
Y682440D3*
Y603700D3*
D16*
X3318503Y3363700D3*
D17*
Y3284960D3*
Y3206220D3*
Y3127480D3*
D18*
X1343700Y3133700D3*
D19*
X1243700D3*
D16*
X1902361Y839920D3*
D17*
Y761180D3*
Y682440D3*
Y603700D3*
D16*
X2610629Y839920D3*
D17*
Y761180D3*
Y682440D3*
Y603700D3*
D16*
X1901968Y3363700D3*
D17*
Y3284960D3*
Y3206220D3*
Y3127480D3*
D16*
X2610235Y3363700D3*
D17*
Y3284960D3*
Y3206220D3*
Y3127480D3*
D18*
X983700Y2973700D3*
D20*
Y3072125D3*
D18*
X673700Y2973700D3*
D20*
Y3072125D3*
D65*
X2003700Y3513700D3*
X2103700D3*
X2203700D3*
X2303700D3*
X2403700D3*
X2503700D3*
X2603700D3*
X2703700D3*
X2803700D3*
X2903700D3*
X3003700D3*
X3103700D3*
X3203700D3*
X3303700D3*
Y3813700D3*
X3203700D3*
X3103700D3*
X3003700D3*
X2903700D3*
X2803700D3*
X2703700D3*
X2603700D3*
X2503700D3*
X2403700D3*
X2303700D3*
X2203700D3*
X2103700D3*
X2003700D3*
D68*
X2523700Y2953700D3*
X2423700Y1053700D3*
X2623700Y2953700D3*
X2723700D3*
X2823700D3*
X2923700D3*
X2423700D3*
X2323700D3*
X2223700D3*
X2063700D3*
X1963700D3*
X1863700D3*
X1763700D3*
X1663700D3*
X1563700D3*
X1463700D3*
X1363700D3*
X2523700Y1053700D3*
X2623700D3*
X2723700D3*
X2823700D3*
X2923700D3*
X2223700D3*
X2123700D3*
X2023700D3*
X1923700D3*
X1823700D3*
X1723700D3*
D25*
X634015Y2704172D3*
X734015D3*
X834015D3*
X934015D3*
X1034015D3*
X1134015D3*
X1234015D3*
X1334015D3*
X1434015D3*
X1534015D3*
X1634015D3*
X1734015D3*
X1834015D3*
X1934015D3*
X2034015D3*
X2134015D3*
X2234015D3*
X2334015D3*
X1593700Y3633700D3*
Y3533700D3*
Y3733700D3*
D26*
X713700Y873700D3*
D27*
Y1050865D3*
X457794D3*
Y873700D3*
D26*
X1536535D3*
D27*
Y1050865D3*
X1280629D3*
Y873700D3*
D26*
X1126535Y1087794D3*
D27*
Y1264960D3*
X870629D3*
Y1087794D3*
D26*
X1126535Y643700D3*
D27*
Y820865D3*
X870629D3*
Y643700D3*
D26*
X756535Y483700D3*
D27*
Y660865D3*
X500629D3*
Y483700D3*
D29*
X933700Y3663700D3*
D30*
X687637D3*
X821495Y3474724D3*
D26*
X1499369Y483700D3*
D27*
Y660865D3*
X1243464D3*
Y483700D3*
M02*
