M48
INCH
T01C0.0191
T02C0.0315
T03C0.032
T04C0.0354
T05C0.0394
T06C0.1102
T07C0.126
%
T01
X+026782Y+006432
X+023731Y+009844
X+020311Y+008399
X+016030Y+010509
X+008706Y+017009
X+016030Y+024711
X+018340Y+025106
X+018137Y+028052
X+017537Y+028437
X+016137Y+028241
X+014821Y+027657
X+014137Y+028571
X+015532Y+030172
X+016501Y+030567
X+020032Y+030567
X+020727Y+030691
X+021777Y+030691
X+023237Y+030172
X+024145Y+028052
X+026637Y+028237
X+025497Y+032062
X+026498Y+034313
X+028037Y+032850
X+028992Y+033913
X+027507Y+037320
X+025978Y+036531
X+023949Y+036244
X+018958Y+035455
X+018168Y+035455
X+018168Y+036244
X+016947Y+036926
X+014602Y+033637
X+011735Y+030567
X+010537Y+030537
X+010945Y+028052
X+011735Y+028052
X+019885Y+032062
X+022340Y+025106
X+022383Y+024316
X+025061Y+015853
X+028972Y+011842
X+030106Y+011842
X+031037Y+014981
X+032037Y+016163
X+032583Y+006037
T02
X+033189Y+008399
X+033189Y+007612
X+033189Y+006824
X+033189Y+006037
X+026106Y+006037
X+026106Y+006824
X+026106Y+007612
X+026106Y+008399
X+019024Y+008399
X+019024Y+007612
X+019024Y+006824
X+019024Y+006037
X+019020Y+031275
X+019020Y+032062
X+019020Y+032850
X+019020Y+033637
X+026102Y+033637
X+026102Y+032850
X+026102Y+032062
X+026102Y+031275
X+033185Y+031275
X+033185Y+032062
X+033185Y+032850
X+033185Y+033637
T03
X+020037Y+035137
X+021037Y+035137
X+022037Y+035137
X+023037Y+035137
X+024037Y+035137
X+025037Y+035137
X+026037Y+035137
X+027037Y+035137
X+028037Y+035137
X+029037Y+035137
X+030037Y+035137
X+031037Y+035137
X+032037Y+035137
X+033037Y+035137
X+033037Y+038137
X+032037Y+038137
X+031037Y+038137
X+030037Y+038137
X+029037Y+038137
X+028037Y+038137
X+027037Y+038137
X+026037Y+038137
X+025037Y+038137
X+024037Y+038137
X+023037Y+038137
X+022037Y+038137
X+021037Y+038137
X+020037Y+038137
T04
X+013437Y+031337
X+012437Y+031337
X+015937Y+035337
X+015937Y+036337
X+015937Y+037337
T05
X+009837Y+029737
X+009837Y+030721
X+006737Y+030721
X+006737Y+029737
X+006340Y+027042
X+007340Y+027042
X+008340Y+027042
X+009340Y+027042
X+010340Y+027042
X+011340Y+027042
X+012340Y+027042
X+013340Y+027042
X+014340Y+027042
X+015340Y+027042
X+016340Y+027042
X+017340Y+027042
X+018340Y+027042
X+019340Y+027042
X+020340Y+027042
X+021340Y+027042
X+022340Y+027042
X+023340Y+027042
X+023237Y+029537
X+024237Y+029537
X+025237Y+029537
X+026237Y+029537
X+027237Y+029537
X+028237Y+029537
X+029237Y+029537
X+022237Y+029537
X+020637Y+029537
X+019637Y+029537
X+018637Y+029537
X+017637Y+029537
X+016637Y+029537
X+015637Y+029537
X+014637Y+029537
X+013637Y+029537
X+011265Y+012650
X+011265Y+010878
X+012806Y+010509
X+012806Y+008737
X+011265Y+008209
X+011265Y+006437
X+012435Y+006609
X+012435Y+004837
X+014994Y+004837
X+014994Y+006609
X+015365Y+008737
X+015365Y+010509
X+017237Y+010537
X+018237Y+010537
X+019237Y+010537
X+020237Y+010537
X+021237Y+010537
X+022237Y+010537
X+024237Y+010537
X+025237Y+010537
X+026237Y+010537
X+027237Y+010537
X+028237Y+010537
X+029237Y+010537
X+008706Y+010878
X+007137Y+010509
X+007137Y+008737
X+008706Y+008209
X+008706Y+006437
X+007565Y+006609
X+007565Y+004837
X+005006Y+004837
X+005006Y+006609
X+004578Y+008737
X+004578Y+010509
X+008706Y+012650
T06
X+006876Y+036637
X+008215Y+034747
T07
X+009337Y+036637
T00
M30
