M48
INCH
T01C0.0191
T02C0.0315
T03C0.032
T04C0.0354
T05C0.0394
T06C0.1102
T07C0.126
%
T01
X+026737Y+030980
X+028037Y+033337
X+024132Y+030172
X+023237Y+030962
X+023037Y+032300
X+020532Y+032300
X+020532Y+030172
X+021137Y+030172
X+020137Y+028311
X+022737Y+027792
X+023340Y+024800
X+023407Y+023347
X+022340Y+021930
X+021340Y+022324
X+025237Y+023347
X+025737Y+026167
X+024858Y+018622
X+026237Y+017967
X+027847Y+017967
X+029615Y+016034
X+028737Y+015377
X+031037Y+015640
X+028576Y+012737
X+031038Y+011502
X+023885Y+011872
X+016100Y+010509
X+007872Y+007651
X+009906Y+025172
X+017713Y+037117
T02
X+026006Y+008399
X+026006Y+007612
X+026006Y+006824
X+026006Y+006037
X+018924Y+006037
X+018924Y+006824
X+018924Y+007612
X+018924Y+008399
X+033089Y+008399
X+033089Y+007612
X+033089Y+006824
X+033089Y+006037
X+033102Y+031375
X+033102Y+032162
X+033102Y+032950
X+033102Y+033737
X+026020Y+033737
X+026020Y+032950
X+026020Y+032162
X+026020Y+031375
X+018937Y+031375
X+018937Y+032162
X+018937Y+032950
X+018937Y+033737
T03
X+020037Y+035137
X+021037Y+035137
X+022037Y+035137
X+023037Y+035137
X+024037Y+035137
X+025037Y+035137
X+026037Y+035137
X+027037Y+035137
X+028037Y+035137
X+029037Y+035137
X+030037Y+035137
X+031037Y+035137
X+032037Y+035137
X+033037Y+035137
X+033037Y+038137
X+032037Y+038137
X+031037Y+038137
X+030037Y+038137
X+029037Y+038137
X+028037Y+038137
X+027037Y+038137
X+026037Y+038137
X+025037Y+038137
X+024037Y+038137
X+023037Y+038137
X+022037Y+038137
X+021037Y+038137
X+020037Y+038137
T04
X+013437Y+031337
X+012437Y+031337
X+015937Y+035337
X+015937Y+036337
X+015937Y+037337
T05
X+009837Y+029737
X+009837Y+030721
X+006737Y+030721
X+006737Y+029737
X+006340Y+027042
X+007340Y+027042
X+008340Y+027042
X+009340Y+027042
X+010340Y+027042
X+011340Y+027042
X+012340Y+027042
X+013340Y+027042
X+014340Y+027042
X+015340Y+027042
X+016340Y+027042
X+017340Y+027042
X+018340Y+027042
X+019340Y+027042
X+020340Y+027042
X+021340Y+027042
X+022340Y+027042
X+023340Y+027042
X+023237Y+029537
X+024237Y+029537
X+025237Y+029537
X+026237Y+029537
X+027237Y+029537
X+028237Y+029537
X+029237Y+029537
X+022237Y+029537
X+020637Y+029537
X+019637Y+029537
X+018637Y+029537
X+017637Y+029537
X+016637Y+029537
X+015637Y+029537
X+014637Y+029537
X+013637Y+029537
X+011265Y+012650
X+011265Y+010878
X+012806Y+010509
X+012806Y+008737
X+011265Y+008209
X+011265Y+006437
X+012435Y+006609
X+012435Y+004837
X+014994Y+004837
X+014994Y+006609
X+015365Y+008737
X+015365Y+010509
X+017237Y+010537
X+018237Y+010537
X+019237Y+010537
X+020237Y+010537
X+021237Y+010537
X+022237Y+010537
X+024237Y+010537
X+025237Y+010537
X+026237Y+010537
X+027237Y+010537
X+028237Y+010537
X+029237Y+010537
X+008706Y+010878
X+007137Y+010509
X+007137Y+008737
X+008706Y+008209
X+008706Y+006437
X+007565Y+006609
X+007565Y+004837
X+005006Y+004837
X+005006Y+006609
X+004578Y+008737
X+004578Y+010509
X+008706Y+012650
T06
X+006876Y+036637
X+008215Y+034747
T07
X+009337Y+036637
T00
M30
