M48
INCH
T01C0.0191
T02C0.0315
T03C0.032
T04C0.0354
T05C0.0394
T06C0.1102
T07C0.126
%
T01
X+022872Y+011172
X+023053Y+012737
X+025237Y+011172
X+028737Y+009594
X+030539Y+013664
X+032037Y+014160
X+029743Y+022311
X+025737Y+028771
X+024888Y+031770
X+023037Y+030692
X+021732Y+031770
X+021732Y+027722
X+021735Y+026102
X+022945Y+026102
X+019137Y+028117
X+017511Y+028052
X+017137Y+028511
X+016687Y+030172
X+015641Y+032950
X+015937Y+033737
X+016687Y+035067
X+016687Y+035985
X+018244Y+036379
X+018244Y+035067
X+017870Y+034672
X+011365Y+034278
X+007337Y+031929
X+005848Y+032064
X+004578Y+038212
X+013541Y+025692
X+024949Y+035985
X+024037Y+037034
X+026578Y+037034
X+027392Y+033550
X+015365Y+009594
X+017702Y+008399
T02
X+026006Y+008399
X+026006Y+007612
X+026006Y+006824
X+026006Y+006037
X+018924Y+006037
X+018924Y+006824
X+018924Y+007612
X+018924Y+008399
X+033089Y+008399
X+033089Y+007612
X+033089Y+006824
X+033089Y+006037
X+033102Y+031375
X+033102Y+032162
X+033102Y+032950
X+033102Y+033737
X+026020Y+033737
X+026020Y+032950
X+026020Y+032162
X+026020Y+031375
X+018937Y+031375
X+018937Y+032162
X+018937Y+032950
X+018937Y+033737
T03
X+020037Y+035137
X+021037Y+035137
X+022037Y+035137
X+023037Y+035137
X+024037Y+035137
X+025037Y+035137
X+026037Y+035137
X+027037Y+035137
X+028037Y+035137
X+029037Y+035137
X+030037Y+035137
X+031037Y+035137
X+032037Y+035137
X+033037Y+035137
X+033037Y+038137
X+032037Y+038137
X+031037Y+038137
X+030037Y+038137
X+029037Y+038137
X+028037Y+038137
X+027037Y+038137
X+026037Y+038137
X+025037Y+038137
X+024037Y+038137
X+023037Y+038137
X+022037Y+038137
X+021037Y+038137
X+020037Y+038137
T04
X+013437Y+031337
X+012437Y+031337
X+015937Y+035337
X+015937Y+036337
X+015937Y+037337
T05
X+009837Y+029737
X+009837Y+030721
X+006737Y+030721
X+006737Y+029737
X+006340Y+027042
X+007340Y+027042
X+008340Y+027042
X+009340Y+027042
X+010340Y+027042
X+011340Y+027042
X+012340Y+027042
X+013340Y+027042
X+014340Y+027042
X+015340Y+027042
X+016340Y+027042
X+017340Y+027042
X+018340Y+027042
X+019340Y+027042
X+020340Y+027042
X+021340Y+027042
X+022340Y+027042
X+023340Y+027042
X+023237Y+029537
X+024237Y+029537
X+025237Y+029537
X+026237Y+029537
X+027237Y+029537
X+028237Y+029537
X+029237Y+029537
X+022237Y+029537
X+020637Y+029537
X+019637Y+029537
X+018637Y+029537
X+017637Y+029537
X+016637Y+029537
X+015637Y+029537
X+014637Y+029537
X+013637Y+029537
X+011265Y+012650
X+011265Y+010878
X+012806Y+010509
X+012806Y+008737
X+011265Y+008209
X+011265Y+006437
X+012435Y+006609
X+012435Y+004837
X+014994Y+004837
X+014994Y+006609
X+015365Y+008737
X+015365Y+010509
X+017237Y+010537
X+018237Y+010537
X+019237Y+010537
X+020237Y+010537
X+021237Y+010537
X+022237Y+010537
X+024237Y+010537
X+025237Y+010537
X+026237Y+010537
X+027237Y+010537
X+028237Y+010537
X+029237Y+010537
X+008706Y+010878
X+007137Y+010509
X+007137Y+008737
X+008706Y+008209
X+008706Y+006437
X+007565Y+006609
X+007565Y+004837
X+005006Y+004837
X+005006Y+006609
X+004578Y+008737
X+004578Y+010509
X+008706Y+012650
T06
X+006876Y+036637
X+008215Y+034747
T07
X+009337Y+036637
T00
M30
