G04 DipTrace 3.3.1.3*
G04 Top.gbr*
%MOIN*%
G04 #@! TF.FileFunction,Copper,L1,Top*
G04 #@! TF.Part,Single*
%AMOUTLINE0*
4,1,20,
-0.02608,0.026058,
-0.024514,0.034979,
-0.019993,0.042827,
-0.013059,0.048655,
-0.004551,0.05176,
0.004507,0.051768,
0.01302,0.048677,
0.019963,0.042861,
0.0245,0.035021,
0.02608,0.026102,
0.02608,-0.026058,
0.024514,-0.034979,
0.019993,-0.042827,
0.013059,-0.048655,
0.004551,-0.05176,
-0.004507,-0.051768,
-0.01302,-0.048677,
-0.019963,-0.042861,
-0.0245,-0.035021,
-0.02608,-0.026102,
-0.02608,0.026058,
0*%
%AMOUTLINE3*
4,1,8,
0.030488,-0.012629,
0.012629,-0.030488,
-0.012629,-0.030488,
-0.030488,-0.012629,
-0.030488,0.012629,
-0.012629,0.030488,
0.012629,0.030488,
0.030488,0.012629,
0.030488,-0.012629,
0*%
G04 #@! TA.AperFunction,Conductor*
%ADD13C,0.012992*%
G04 #@! TA.AperFunction,ViaPad*
%ADD14C,0.04*%
G04 #@! TA.AperFunction,Conductor*
%ADD15C,0.03937*%
G04 #@! TA.AperFunction,ComponentPad*
%ADD17R,0.055118X0.055118*%
%ADD18C,0.055118*%
%ADD19R,0.062992X0.062992*%
%ADD20C,0.062992*%
%ADD21C,0.062992*%
%ADD22R,0.043307X0.03937*%
G04 #@! TA.AperFunction,ComponentPad*
%ADD26C,0.07*%
%ADD27R,0.066929X0.066929*%
%ADD28C,0.066929*%
%ADD30C,0.205354*%
%ADD31C,0.179685*%
%ADD66OUTLINE0*%
%ADD69OUTLINE3*%
%FSLAX26Y26*%
G04*
G70*
G90*
G75*
G01*
G04 Top*
%LPD*%
X2600629Y682440D2*
D13*
X2293149D1*
X2214409Y603700D1*
X1892361D1*
X2601968Y3137480D2*
X1893700D1*
X2523700Y1117184D2*
X2287180D1*
X3310235Y3216220D2*
X2904184D1*
X2717629Y3029665D1*
X1989685D1*
X1963700Y3003680D1*
Y2953700D1*
X3310235Y3137480D2*
X3176436Y3003680D1*
X2039660D1*
X2013676Y2977696D1*
Y2929708D1*
X1987692Y2903724D1*
X1863700D1*
Y2953700D1*
X3310235Y3373700D2*
D14*
X2903700D1*
Y3513700D1*
X1243700Y3133700D2*
X1060164D1*
X1050239Y3143625D1*
X946220D1*
X886220Y3083625D1*
Y3072125D1*
Y2973700D1*
X983700D1*
X673700Y3072125D2*
X886220D1*
X1280629Y873700D2*
X1354094D1*
X1536535D1*
X756535Y483700D2*
X500629D1*
X870629Y1087794D2*
X944094D1*
X1126535D1*
X870629Y643700D2*
X944094D1*
X1126535D1*
X3103700Y3813700D2*
D3*
X2903700Y3513700D2*
Y3605468D1*
X3039192D1*
X3099193Y3665469D1*
Y3813700D1*
X3103700D1*
X2601968Y3373700D2*
X2720472D1*
X2739204Y3354968D1*
X1893700Y3373700D2*
X2515424D1*
X2601968D1*
X1593700D2*
X1893700D1*
X2600629Y839920D2*
X1892361D1*
X3308897D2*
X3200436D1*
X2600629D1*
X1536535Y873700D2*
X1736416D1*
X1770196Y839920D1*
X500629Y660865D2*
D13*
X756535D1*
X2703700Y3813700D2*
D3*
X756535Y660865D2*
Y748633D1*
X773661Y765759D1*
Y1426146D1*
X545314Y1654493D1*
Y3769212D1*
X571298Y3795196D1*
X1798286D1*
X1929550Y3663932D1*
X2699193D1*
Y3813700D1*
X2703700D1*
X1536535Y959448D2*
X2873676D1*
X1536535Y1050865D2*
X1280629D1*
X1126535Y820865D2*
X870629D1*
X2494936Y3598460D2*
X1668700D1*
X584802Y3206373D2*
D3*
X870629Y820865D2*
X799645Y891849D1*
Y1597003D1*
X571302Y1825346D1*
Y3192873D1*
X584802Y3206373D1*
X870629Y1264960D2*
X1126535D1*
X2403700Y3703420D2*
X2657834D1*
X1126535Y1264960D2*
X1227810Y1163684D1*
X2665601D1*
X2691586Y1189669D1*
Y2205125D1*
X2717570Y2231109D1*
X2974322D1*
X457794Y1050865D2*
X713700D1*
X457794Y3821180D2*
X1850535D1*
X1929271Y3742444D1*
X2299193D1*
Y3813700D1*
X2303700D1*
X2573676Y2877125D2*
X2640629Y2810172D1*
Y1273700D1*
X1713676Y2851141D2*
X2414645D1*
X2440629Y2825157D1*
Y1273700D1*
X1913676Y2811653D2*
X2362519D1*
X2388503Y2785669D1*
Y1460314D1*
X2250629Y1322440D1*
Y1273700D1*
X2303700Y3069153D2*
X1739660D1*
X1713676Y3043169D1*
Y2910373D1*
X1674188Y2870885D1*
Y2831141D1*
X1700172Y2805157D1*
X1751149D1*
X2173503Y2610192D2*
X2294523D1*
X1136531Y3427759D2*
X2503700D1*
Y3513700D1*
X2173224Y2772165D2*
D3*
X2488759Y3176972D2*
X2173224D1*
Y2772165D2*
X2166728Y2765669D1*
X1095512D1*
X1034015Y2704172D1*
X1824432Y3637948D2*
X2682220D1*
X2708207Y3611961D1*
Y3513700D1*
X2703700D1*
X1668700Y3506735D2*
X1824432D1*
X1668700Y3017184D2*
X1539660D1*
X1513676Y2991200D1*
Y2903723D1*
X1487692Y2877739D1*
X1107582D1*
X934015Y2704172D1*
X2703700Y3513700D2*
D3*
X1786960Y3467247D2*
X1097043D1*
Y3244841D1*
X1123027Y3218857D1*
X1610629D1*
Y3153700D1*
X2334015Y2704172D2*
Y2416925D1*
X2183700Y2266610D1*
Y1273700D1*
X2305279D2*
X2373700D1*
X2134015Y2704172D2*
Y1234212D1*
X2573700D1*
Y1273700D1*
X733704Y3192873D2*
X1543700D1*
Y3153700D1*
X1499369Y660865D2*
X1243464D1*
X2923700Y1053700D2*
X3058782D1*
X3084767Y1079685D1*
Y1293897D1*
X3058783Y1319881D1*
X2943700D1*
Y1273700D1*
X2763700D2*
Y1129665D1*
X2789685Y1103680D1*
X2823700D1*
Y1053700D1*
X3203700Y1416043D2*
X2789685D1*
X2763700Y1390058D1*
Y1273700D1*
X734015Y2704172D2*
D14*
Y2629169D1*
X794015Y2569169D1*
X1354094D1*
X3010629Y1273700D2*
D15*
Y1166617D1*
X2993873Y1149861D1*
X2890000D1*
X2830629Y1209232D1*
Y1273700D1*
X3310235Y3294960D2*
D14*
X2829685D1*
X2803700Y3320945D1*
Y3513700D1*
X933700Y3663700D2*
X1267094D1*
X1337094Y3733700D1*
X1593700D1*
X1343700Y3133700D2*
Y3024192D1*
X1103134D1*
X1055201Y3072125D1*
X983700D1*
X2803700Y3320945D2*
X2777716Y3294961D1*
X2679204D1*
Y3294960D1*
X2601968D1*
X1892361Y761180D2*
X2600629D1*
X1354094Y2569169D2*
X1974012D1*
X2034015Y2629172D1*
Y2704172D1*
X2830629Y1273700D2*
Y1366377D1*
X3053873D1*
X3003700Y3813700D2*
D3*
X2803700Y3513700D2*
Y3605468D1*
X2863700Y3665468D1*
X2999193D1*
Y3813700D1*
X3003700D1*
X1893700Y3294960D2*
X1564137D1*
X2601968D2*
X1893700D1*
X2600629Y761180D2*
X3308897D1*
X2287180Y1117184D3*
X2523700D3*
X2739204Y3354968D3*
X1770196Y839920D3*
X1593700Y3373700D3*
X2873676Y959448D3*
X1536535D3*
X584802Y3206373D3*
X1668700Y3598460D3*
X2494936D3*
X2974322Y2231109D3*
X2657834Y3703420D3*
X2403700D3*
X457794Y3821180D3*
X2573676Y2877125D3*
X1713676Y2851141D3*
X1913676Y2811653D3*
X1751149Y2805157D3*
X2303700Y3069153D3*
X2294523Y2610192D3*
X2173503D3*
X1136531Y3427759D3*
X2173224Y2772165D3*
Y3176972D3*
X2488759D3*
X1824432Y3637948D3*
Y3506735D3*
X1668700D3*
Y3017184D3*
X1786960Y3467247D3*
X2305279Y1273700D3*
X733704Y3192873D3*
X3203700Y1416043D3*
X1354094Y2569169D3*
X3053873Y1366377D3*
X1564137Y3294960D3*
D17*
X2600629Y839920D3*
D18*
Y761180D3*
Y682440D3*
Y603700D3*
D17*
X2601968Y3373700D3*
D18*
Y3294960D3*
Y3216220D3*
Y3137480D3*
D19*
X1343700Y3133700D3*
D20*
X1243700D3*
D17*
X1892361Y839920D3*
D18*
Y761180D3*
Y682440D3*
Y603700D3*
D17*
X1893700Y3373700D3*
D18*
Y3294960D3*
Y3216220D3*
Y3137480D3*
D17*
X3308897Y839920D3*
D18*
Y761180D3*
Y682440D3*
Y603700D3*
D17*
X3310235Y3373700D3*
D18*
Y3294960D3*
Y3216220D3*
Y3137480D3*
D19*
X983700Y2973700D3*
D21*
Y3072125D3*
D19*
X673700Y2973700D3*
D21*
Y3072125D3*
D22*
X2943700Y1273700D3*
X3010629D3*
X2763700D3*
X2830629D3*
X2573700D3*
X2640629D3*
X2373700D3*
X2440629D3*
X2183700D3*
X2250629D3*
X1543700Y3153700D3*
X1610629D3*
D66*
X2003700Y3513700D3*
X2103700D3*
X2203700D3*
X2303700D3*
X2403700D3*
X2503700D3*
X2603700D3*
X2703700D3*
X2803700D3*
X2903700D3*
X3003700D3*
X3103700D3*
X3203700D3*
X3303700D3*
Y3813700D3*
X3203700D3*
X3103700D3*
X3003700D3*
X2903700D3*
X2803700D3*
X2703700D3*
X2603700D3*
X2503700D3*
X2403700D3*
X2303700D3*
X2203700D3*
X2103700D3*
X2003700D3*
D69*
X2523700Y2953700D3*
X2423700Y1053700D3*
X2623700Y2953700D3*
X2723700D3*
X2823700D3*
X2923700D3*
X2423700D3*
X2323700D3*
X2223700D3*
X2063700D3*
X1963700D3*
X1863700D3*
X1763700D3*
X1663700D3*
X1563700D3*
X1463700D3*
X1363700D3*
X2523700Y1053700D3*
X2623700D3*
X2723700D3*
X2823700D3*
X2923700D3*
X2223700D3*
X2123700D3*
X2023700D3*
X1923700D3*
X1823700D3*
X1723700D3*
D26*
X634015Y2704172D3*
X734015D3*
X834015D3*
X934015D3*
X1034015D3*
X1134015D3*
X1234015D3*
X1334015D3*
X1434015D3*
X1534015D3*
X1634015D3*
X1734015D3*
X1834015D3*
X1934015D3*
X2034015D3*
X2134015D3*
X2234015D3*
X2334015D3*
X1593700Y3633700D3*
Y3533700D3*
Y3733700D3*
D27*
X713700Y873700D3*
D28*
Y1050865D3*
X457794D3*
Y873700D3*
D27*
X1536535D3*
D28*
Y1050865D3*
X1280629D3*
Y873700D3*
D27*
X1126535Y1087794D3*
D28*
Y1264960D3*
X870629D3*
Y1087794D3*
D27*
X1126535Y643700D3*
D28*
Y820865D3*
X870629D3*
Y643700D3*
D27*
X756535Y483700D3*
D28*
Y660865D3*
X500629D3*
Y483700D3*
D30*
X933700Y3663700D3*
D31*
X687637D3*
X821495Y3474724D3*
D27*
X1499369Y483700D3*
D28*
Y660865D3*
X1243464D3*
Y483700D3*
M02*
