G04 DipTrace 3.3.1.3*
G04 Top.gbr*
%MOIN*%
G04 #@! TF.FileFunction,Copper,L1,Top*
G04 #@! TF.Part,Single*
%AMOUTLINE0*
4,1,20,
-0.02608,0.026058,
-0.024514,0.034979,
-0.019993,0.042827,
-0.013059,0.048655,
-0.004551,0.05176,
0.004507,0.051768,
0.01302,0.048677,
0.019963,0.042861,
0.0245,0.035021,
0.02608,0.026102,
0.02608,-0.026058,
0.024514,-0.034979,
0.019993,-0.042827,
0.013059,-0.048655,
0.004551,-0.05176,
-0.004507,-0.051768,
-0.01302,-0.048677,
-0.019963,-0.042861,
-0.0245,-0.035021,
-0.02608,-0.026102,
-0.02608,0.026058,
0*%
%AMOUTLINE3*
4,1,8,
0.030488,-0.012629,
0.012629,-0.030488,
-0.012629,-0.030488,
-0.030488,-0.012629,
-0.030488,0.012629,
-0.012629,0.030488,
0.012629,0.030488,
0.030488,0.012629,
0.030488,-0.012629,
0*%
G04 #@! TA.AperFunction,Conductor*
%ADD13C,0.012992*%
G04 #@! TA.AperFunction,ViaPad*
%ADD14C,0.04*%
G04 #@! TA.AperFunction,ComponentPad*
%ADD16R,0.055118X0.055118*%
%ADD17C,0.055118*%
%ADD18R,0.062992X0.062992*%
%ADD19C,0.062992*%
%ADD20C,0.062992*%
%ADD21R,0.062992X0.070866*%
G04 #@! TA.AperFunction,ComponentPad*
%ADD25C,0.07*%
%ADD26R,0.066929X0.066929*%
%ADD27C,0.066929*%
%ADD29C,0.205354*%
%ADD30C,0.179685*%
%ADD66OUTLINE0*%
%ADD69OUTLINE3*%
%FSLAX26Y26*%
G04*
G70*
G90*
G75*
G01*
G04 Top*
%LPD*%
X2673676Y3097991D2*
D13*
Y3144511D1*
X2601968Y3216220D1*
Y3137480D2*
X1893700D1*
X2523700Y2334657D2*
X2340684D1*
X2623700Y1796700D2*
X2784747D1*
X3310235Y3216220D2*
X2889432D1*
X2729881Y3056669D1*
X1989685D1*
X1963700Y3030684D1*
Y2953700D1*
X3310235Y3137480D2*
X3043385Y2870629D1*
X1889684D1*
X1863700Y2896613D1*
Y2953700D1*
X1893700Y3373700D2*
D14*
X2553731D1*
X2601968D1*
X983700Y2973700D2*
X887520D1*
X789095Y3072125D1*
X673700D1*
X1892361Y839920D2*
X1781692D1*
X1747912Y873700D1*
X1536535D1*
X2601968Y3373700D2*
X2669530D1*
X2689534Y3393704D1*
X2903700D1*
X2923704Y3373700D1*
X3310235D1*
X1243464Y483700D2*
X1316932D1*
X1499369D1*
X756535D2*
X500629D1*
X870629Y1087794D2*
X944094D1*
X1126535D1*
X870629Y643700D2*
X944094D1*
X1126535D1*
X2903700Y3513700D2*
Y3393704D1*
X2600629Y839920D2*
X2183700D1*
X2123700Y899920D1*
Y1053700D1*
X3308897Y839920D2*
X3200436D1*
X2600629D1*
X1536535Y873700D2*
X1354094D1*
X1280629D1*
X787165Y765113D2*
D13*
Y1121771D1*
X813149Y1147755D1*
X2510826D1*
X2536810Y1173739D1*
Y1577456D1*
X2562794Y1603440D1*
X2961535D1*
X756535Y660865D2*
X500629D1*
X1609999Y1050865D2*
X1669818Y1110684D1*
X2536809D1*
X2562794Y1136669D1*
Y1511699D1*
X2588779Y1537684D1*
X2873676D1*
X1536535Y1050865D2*
X1280629D1*
X990590Y2517153D2*
X571302D1*
X545318Y2543137D1*
Y3769212D1*
X571302Y3795196D1*
X1629212D1*
X1655196Y3769212D1*
Y3698153D1*
X1681180Y3672169D1*
X2473208D1*
X2499193Y3698154D1*
Y3813700D1*
X2503700D1*
X1126535Y820865D2*
X870629D1*
X1771294Y3711657D2*
X2373208D1*
X2399193Y3737642D1*
Y3813700D1*
X2403700D1*
X870629Y1264960D2*
X1126535D1*
X457794Y1050865D2*
X713700D1*
X510747Y1253818D1*
Y3795196D1*
X536731Y3821180D1*
X1871744D1*
X1955283Y3737641D1*
X2299193D1*
Y3813700D1*
X2303700D1*
X2485826Y1862172D2*
Y1273700D1*
X2388503Y1187243D2*
X2238586D1*
X2212598Y1213231D1*
Y1273700D1*
X2273676Y2779172D2*
X2613165D1*
X2639149Y2753188D1*
Y2400129D1*
X2613165Y2374145D1*
X1965353D1*
X1939369Y2348161D1*
Y1273700D1*
X2013676Y2831141D2*
X1960000D1*
X1934015Y2805156D1*
Y2704172D1*
X2053165Y3017180D2*
X2013676Y2977691D1*
Y2929093D1*
X1987692Y2903109D1*
X1939661D1*
X1913676Y2929094D1*
Y2977692D1*
X1887692Y3003676D1*
X1739660D1*
X1713676Y2977692D1*
Y2762699D1*
X1705602Y2754625D1*
Y2739172D1*
X1734015Y2710759D1*
Y2704172D1*
X2303700Y3229964D2*
X2053165D1*
X2413165Y3017180D2*
X2113676D1*
X2503700Y3513700D2*
Y3440200D1*
X1599019D1*
X1573035Y3414216D1*
Y3029661D1*
X1547050Y3003676D1*
X1159999D1*
X1134015Y2977692D1*
Y2704172D1*
X2573676Y2616688D2*
X1121499D1*
X1034015Y2704172D1*
X934015D2*
X748463Y2889724D1*
X597286D1*
X571302Y2915708D1*
Y3313420D1*
X597287Y3339405D1*
X1142523D1*
X1269302Y3466184D1*
X1681798D1*
X1800570Y3584956D1*
X2708207D1*
Y3513700D1*
X2703700D1*
X2323700Y3096157D2*
X2310196Y3082653D1*
X1632283D1*
Y3153700D1*
X1829133Y1273700D2*
Y2454060D1*
X1855116Y2480043D1*
X2334015D1*
X2234015Y2192960D2*
X2102361Y2061306D1*
Y1273700D1*
X2134015Y2232448D2*
X2349606D1*
X2375590Y2206464D1*
Y1273700D1*
X673700Y2973700D2*
X597287Y3050113D1*
Y3208622D1*
X623271Y3234606D1*
X1522046D1*
Y3153700D1*
X1499369Y660865D2*
X1243464D1*
X2857558Y1273700D2*
X2922046D1*
Y1382298D1*
X3103700Y1563952D1*
X2823700Y1053700D2*
Y1103676D1*
X2674803D1*
X2648818Y1129661D1*
Y1273700D1*
X2759054D2*
D14*
Y1150172D1*
X3103783D1*
X2803700Y3513700D2*
Y3605468D1*
X2939192D1*
X2999193Y3665469D1*
Y3813700D1*
X3003700D1*
X3310235Y3294960D2*
X2842444D1*
X2803700Y3333704D1*
X933700Y3663700D2*
X1169504D1*
X1239504Y3733700D1*
X1593700D1*
X1343700Y3133700D2*
Y3050172D1*
X1098496D1*
X1076543Y3072125D1*
X983700D1*
X1892361Y761180D2*
X2600629D1*
X3103783Y1150172D2*
Y1273700D1*
X3032283D1*
X2601968Y3294960D2*
X1893700D1*
X2803700Y3333704D2*
X2764956Y3294960D1*
X2601968D1*
X2600629Y761180D2*
X3308897D1*
X2673676Y3097991D3*
X2340684Y2334657D3*
X2523700D3*
X2784747Y1796700D3*
X2623700D3*
X2961535Y1603440D3*
X787165Y765113D3*
X2873676Y1537684D3*
X1609999Y1050865D3*
X990590Y2517153D3*
X1771294Y3711657D3*
X2485826Y1862172D3*
X2388503Y1187243D3*
X2273676Y2779172D3*
X2013676Y2831141D3*
X2053165Y3017180D3*
Y3229964D3*
X2303700D3*
X2113676Y3017180D3*
X2413165D3*
X2573676Y2616688D3*
X2323700Y3096157D3*
X2334015Y2480043D3*
X2234015Y2192960D3*
X2134015Y2232448D3*
X3103700Y1563952D3*
X2857558Y1273700D3*
X3103783Y1150172D3*
X2803700Y3333704D3*
D16*
X2600629Y839920D3*
D17*
Y761180D3*
Y682440D3*
Y603700D3*
D16*
X2601968Y3373700D3*
D17*
Y3294960D3*
Y3216220D3*
Y3137480D3*
D18*
X1343700Y3133700D3*
D19*
X1243700D3*
D16*
X1892361Y839920D3*
D17*
Y761180D3*
Y682440D3*
Y603700D3*
D16*
X1893700Y3373700D3*
D17*
Y3294960D3*
Y3216220D3*
Y3137480D3*
D16*
X3308897Y839920D3*
D17*
Y761180D3*
Y682440D3*
Y603700D3*
D16*
X3310235Y3373700D3*
D17*
Y3294960D3*
Y3216220D3*
Y3137480D3*
D18*
X983700Y2973700D3*
D20*
Y3072125D3*
D18*
X673700Y2973700D3*
D20*
Y3072125D3*
D21*
X2922046Y1273700D3*
X3032283D3*
X2648818D3*
X2759054D3*
X2375590D3*
X2485826D3*
X2102361D3*
X2212598D3*
X1829133D3*
X1939369D3*
X1522046Y3153700D3*
X1632283D3*
D66*
X2003700Y3513700D3*
X2103700D3*
X2203700D3*
X2303700D3*
X2403700D3*
X2503700D3*
X2603700D3*
X2703700D3*
X2803700D3*
X2903700D3*
X3003700D3*
X3103700D3*
X3203700D3*
X3303700D3*
Y3813700D3*
X3203700D3*
X3103700D3*
X3003700D3*
X2903700D3*
X2803700D3*
X2703700D3*
X2603700D3*
X2503700D3*
X2403700D3*
X2303700D3*
X2203700D3*
X2103700D3*
X2003700D3*
D69*
X2523700Y2953700D3*
X2423700Y1053700D3*
X2623700Y2953700D3*
X2723700D3*
X2823700D3*
X2923700D3*
X2423700D3*
X2323700D3*
X2223700D3*
X2063700D3*
X1963700D3*
X1863700D3*
X1763700D3*
X1663700D3*
X1563700D3*
X1463700D3*
X1363700D3*
X2523700Y1053700D3*
X2623700D3*
X2723700D3*
X2823700D3*
X2923700D3*
X2223700D3*
X2123700D3*
X2023700D3*
X1923700D3*
X1823700D3*
X1723700D3*
D25*
X634015Y2704172D3*
X734015D3*
X834015D3*
X934015D3*
X1034015D3*
X1134015D3*
X1234015D3*
X1334015D3*
X1434015D3*
X1534015D3*
X1634015D3*
X1734015D3*
X1834015D3*
X1934015D3*
X2034015D3*
X2134015D3*
X2234015D3*
X2334015D3*
X1593700Y3633700D3*
Y3533700D3*
Y3733700D3*
D26*
X713700Y873700D3*
D27*
Y1050865D3*
X457794D3*
Y873700D3*
D26*
X1536535D3*
D27*
Y1050865D3*
X1280629D3*
Y873700D3*
D26*
X1126535Y1087794D3*
D27*
Y1264960D3*
X870629D3*
Y1087794D3*
D26*
X1126535Y643700D3*
D27*
Y820865D3*
X870629D3*
Y643700D3*
D26*
X756535Y483700D3*
D27*
Y660865D3*
X500629D3*
Y483700D3*
D29*
X933700Y3663700D3*
D30*
X687637D3*
X821495Y3474724D3*
D26*
X1499369Y483700D3*
D27*
Y660865D3*
X1243464D3*
Y483700D3*
M02*
