G04 DipTrace 3.3.1.3*
G04 TopSilk.gbr*
%MOIN*%
G04 #@! TF.FileFunction,Legend,Top*
G04 #@! TF.Part,Single*
%ADD10C,0.009843*%
%ADD15C,0.01*%
%ADD22C,0.006*%
%ADD24C,0.005*%
%ADD28C,0.008*%
%ADD63C,0.00772*%
%ADD65C,0.003281*%
%FSLAX26Y26*%
G04*
G70*
G90*
G75*
G01*
G04 TopSilk*
%LPD*%
X2647086Y887165D2*
D10*
X2538818D1*
Y556456D1*
X2647086D1*
Y887165D1*
X2648424Y3420944D2*
X2540157D1*
Y3090235D1*
X2648424D1*
Y3420944D1*
X1423581Y3145520D2*
Y3121880D1*
X1435400Y3133700D2*
X1411787D1*
X1193706D2*
G02X1193706Y3133700I99965J0D01*
G01*
X1938818Y887165D2*
X1830550D1*
Y556456D1*
X1938818D1*
Y887165D1*
X1940157Y3420944D2*
X1831889D1*
Y3090235D1*
X1940157D1*
Y3420944D1*
X3355354Y887165D2*
X3247086D1*
Y556456D1*
X3355354D1*
Y887165D1*
X3356692Y3420944D2*
X3248424D1*
Y3090235D1*
X3356692D1*
Y3420944D1*
X904960Y2875275D2*
X1066377D1*
Y3170550D1*
X904960D1*
Y2875275D1*
X594960D2*
X756377D1*
Y3170550D1*
X594960D1*
Y2875275D1*
X2965385Y1242235D2*
X2988944D1*
X2965385Y1305165D2*
X2988944D1*
X2692157Y1242235D2*
X2715716D1*
X2692157Y1305165D2*
X2715716D1*
X2418928Y1242235D2*
X2442487D1*
X2418928Y1305165D2*
X2442487D1*
X2145700Y1242235D2*
X2169259D1*
X2145700Y1305165D2*
X2169259D1*
X1872472Y1242235D2*
X1896031D1*
X1872472Y1305165D2*
X1896031D1*
X1565385Y3122235D2*
X1588944D1*
X1565385Y3185165D2*
X1588944D1*
X1953700Y3613702D2*
D22*
Y3563704D1*
Y3713698D2*
G02X1953700Y3613702I-18J-49998D01*
G01*
X3353700Y3563704D2*
Y3763696D1*
X1953700D2*
Y3713698D1*
Y3763696D2*
X3353700D1*
X1958740Y3563704D2*
X3353700D1*
X319054Y1385275D2*
D24*
X3468661D1*
Y2802598D1*
X319054D1*
Y1385275D1*
X490393Y2611684D2*
X3297322D1*
Y1576188D1*
X490393D1*
Y2611684D1*
X643779Y2536283D2*
X3143936D1*
Y2496881D1*
X643779D1*
Y2536283D1*
Y1658960D2*
X3143936D1*
Y1698220D1*
X643779D1*
Y1658960D1*
X737007Y2408157D2*
G03X643779Y2290094I12112J-105405D01*
G01*
Y1895086D1*
G03X737007Y1777023I105575J-12473D01*
G01*
X3040314D1*
G03X3143936Y1895086I-7282J110897D01*
G01*
Y2290094D1*
G03X3040314Y2408157I-110904J7166D01*
G01*
X737007D1*
X1668700Y3446200D2*
Y3821200D1*
X1293700D1*
Y3446200D1*
X1668700D1*
X1351188Y3633700D2*
G02X1351188Y3633700I130012J0D01*
G01*
X514885Y962283D2*
D10*
G02X514885Y962283I70862J0D01*
G01*
X676302Y1080400D2*
X495192D1*
X467622Y1001680D2*
Y922910D1*
X495192Y844165D2*
X660548D1*
X703872Y922910D2*
Y1001680D1*
X526701Y962295D2*
G02X526701Y962295I59046J0D01*
G01*
X1337720Y962283D2*
G02X1337720Y962283I70862J0D01*
G01*
X1499137Y1080400D2*
X1318027D1*
X1290457Y1001680D2*
Y922910D1*
X1318027Y844165D2*
X1483383D1*
X1526707Y922910D2*
Y1001680D1*
X1349535Y962295D2*
G02X1349535Y962295I59046J0D01*
G01*
X927720Y1176377D2*
G02X927720Y1176377I70862J0D01*
G01*
X1089137Y1294494D2*
X908027D1*
X880457Y1215774D2*
Y1137005D1*
X908027Y1058260D2*
X1073383D1*
X1116707Y1137005D2*
Y1215774D1*
X939535Y1176389D2*
G02X939535Y1176389I59046J0D01*
G01*
X927720Y732283D2*
G02X927720Y732283I70862J0D01*
G01*
X1089137Y850400D2*
X908027D1*
X880457Y771680D2*
Y692910D1*
X908027Y614165D2*
X1073383D1*
X1116707Y692910D2*
Y771680D1*
X939535Y732295D2*
G02X939535Y732295I59046J0D01*
G01*
X557720Y572283D2*
G02X557720Y572283I70862J0D01*
G01*
X719137Y690400D2*
X538027D1*
X510457Y611680D2*
Y532910D1*
X538027Y454165D2*
X703383D1*
X746707Y532910D2*
Y611680D1*
X569535Y572295D2*
G02X569535Y572295I59046J0D01*
G01*
X957315Y3486520D2*
D28*
Y3569190D1*
X528186Y3486520D2*
X728999D1*
X957315D2*
X913988D1*
X528186Y3840865D2*
X957315D1*
Y3766084D1*
X528186Y3840865D2*
Y3486520D1*
X1300554Y572283D2*
D10*
G02X1300554Y572283I70862J0D01*
G01*
X1461972Y690400D2*
X1280861D1*
X1253291Y611680D2*
Y532910D1*
X1280861Y454165D2*
X1446217D1*
X1489542Y532910D2*
Y611680D1*
X1312370Y572295D2*
G02X1312370Y572295I59046J0D01*
G01*
X1743700Y3433700D2*
D15*
X2663700D1*
Y3073700D1*
X1743700D1*
Y3433700D1*
Y903700D2*
X2663700D1*
Y543700D1*
X1743700D1*
Y903700D1*
X2515835Y650281D2*
D63*
X2465595Y631103D1*
X2515835Y611979D1*
X2499088Y619164D2*
Y643096D1*
X2477533Y701590D2*
X2472780Y699214D1*
X2467972Y694405D1*
X2465595Y689652D1*
Y680090D1*
X2467972Y675282D1*
X2472780Y670529D1*
X2477533Y668097D1*
X2484718Y665720D1*
X2496712D1*
X2503842Y668097D1*
X2508650Y670529D1*
X2513403Y675282D1*
X2515835Y680090D1*
Y689652D1*
X2513403Y694405D1*
X2508650Y699214D1*
X2503842Y701590D1*
X2465595Y731400D2*
X2467972Y726591D1*
X2472780Y721838D1*
X2477533Y719406D1*
X2484718Y717029D1*
X2496712D1*
X2503842Y719406D1*
X2508650Y721838D1*
X2513403Y726591D1*
X2515835Y731400D1*
Y740961D1*
X2513403Y745714D1*
X2508650Y750523D1*
X2503842Y752899D1*
X2496712Y755276D1*
X2484718D1*
X2477533Y752899D1*
X2472780Y750523D1*
X2467972Y745714D1*
X2465595Y740961D1*
Y731400D1*
Y804209D2*
X2515835D1*
X2465595Y770715D1*
X2515835D1*
X2475212Y819648D2*
X2472780Y824456D1*
X2465650Y831641D1*
X2515835D1*
X2517174Y3173311D2*
X2466934Y3154132D1*
X2517174Y3135009D1*
X2500427Y3142194D2*
Y3166126D1*
X2478872Y3224620D2*
X2474119Y3222243D1*
X2469310Y3217435D1*
X2466934Y3212682D1*
Y3203120D1*
X2469310Y3198312D1*
X2474119Y3193558D1*
X2478872Y3191127D1*
X2486057Y3188750D1*
X2498050D1*
X2505180Y3191126D1*
X2509989Y3193558D1*
X2514742Y3198311D1*
X2517174Y3203120D1*
Y3212682D1*
X2514742Y3217435D1*
X2509989Y3222243D1*
X2505180Y3224620D1*
X2466934Y3254429D2*
X2469310Y3249621D1*
X2474119Y3244868D1*
X2478872Y3242436D1*
X2486057Y3240059D1*
X2498050D1*
X2505180Y3242436D1*
X2509989Y3244867D1*
X2514742Y3249621D1*
X2517174Y3254429D1*
Y3263991D1*
X2514742Y3268744D1*
X2509989Y3273552D1*
X2505180Y3275929D1*
X2498050Y3278306D1*
X2486057D1*
X2478872Y3275929D1*
X2474119Y3273552D1*
X2469310Y3268744D1*
X2466934Y3263991D1*
Y3254429D1*
Y3327238D2*
X2517174D1*
X2466934Y3293745D1*
X2517174D1*
X2478927Y3345109D2*
X2476551D1*
X2471742Y3347486D1*
X2469366Y3349862D1*
X2466989Y3354671D1*
Y3364233D1*
X2469366Y3368986D1*
X2471742Y3371362D1*
X2476551Y3373794D1*
X2481304D1*
X2486112Y3371362D1*
X2493242Y3366609D1*
X2517174Y3342677D1*
Y3376171D1*
X1318772Y3294985D2*
X1316395Y3299738D1*
X1311587Y3304546D1*
X1306833Y3306923D1*
X1297272D1*
X1292463Y3304546D1*
X1287710Y3299738D1*
X1285278Y3294985D1*
X1282902Y3287800D1*
Y3275806D1*
X1285278Y3268677D1*
X1287710Y3263868D1*
X1292463Y3259115D1*
X1297272Y3256683D1*
X1306833D1*
X1311587Y3259115D1*
X1316395Y3263868D1*
X1318772Y3268677D1*
X1334211Y3297306D2*
X1339019Y3299738D1*
X1346204Y3306868D1*
Y3256683D1*
X1757327Y587513D2*
X1807567D1*
Y604260D1*
X1805136Y611445D1*
X1800382Y616253D1*
X1795574Y618630D1*
X1788444Y621006D1*
X1776451D1*
X1769266Y618630D1*
X1764512Y616253D1*
X1759704Y611445D1*
X1757327Y604260D1*
Y587513D1*
X1807567Y674747D2*
X1757327Y655569D1*
X1807567Y636446D1*
X1790821Y643631D2*
Y667562D1*
X1769266Y726056D2*
X1764512Y723680D1*
X1759704Y718871D1*
X1757327Y714118D1*
Y704557D1*
X1759704Y699748D1*
X1764512Y694995D1*
X1769266Y692563D1*
X1776451Y690187D1*
X1788444D1*
X1795574Y692563D1*
X1800382Y694995D1*
X1805135Y699748D1*
X1807567Y704557D1*
Y714118D1*
X1805135Y718871D1*
X1800382Y723680D1*
X1795574Y726056D1*
X1757327Y755866D2*
X1759704Y751057D1*
X1764512Y746304D1*
X1769266Y743872D1*
X1776451Y741496D1*
X1788444D1*
X1795574Y743872D1*
X1800382Y746304D1*
X1805135Y751057D1*
X1807567Y755866D1*
Y765427D1*
X1805135Y770181D1*
X1800382Y774989D1*
X1795574Y777366D1*
X1788444Y779742D1*
X1776451D1*
X1769266Y777366D1*
X1764512Y774989D1*
X1759704Y770181D1*
X1757327Y765427D1*
Y755866D1*
Y828675D2*
X1807567D1*
X1757327Y795181D1*
X1807567D1*
X1766944Y844114D2*
X1764512Y848923D1*
X1757383Y856108D1*
X1807567D1*
X1758666Y3110543D2*
X1808906D1*
Y3127289D1*
X1806474Y3134474D1*
X1801721Y3139283D1*
X1796912Y3141659D1*
X1789783Y3144036D1*
X1777789D1*
X1770604Y3141659D1*
X1765851Y3139283D1*
X1761043Y3134474D1*
X1758666Y3127289D1*
Y3110543D1*
X1808906Y3197777D2*
X1758666Y3178598D1*
X1808906Y3159475D1*
X1792159Y3166660D2*
Y3190592D1*
X1770604Y3249086D2*
X1765851Y3246710D1*
X1761043Y3241901D1*
X1758666Y3237148D1*
Y3227586D1*
X1761043Y3222778D1*
X1765851Y3218025D1*
X1770604Y3215593D1*
X1777789Y3213216D1*
X1789783D1*
X1796912Y3215593D1*
X1801721Y3218025D1*
X1806474Y3222778D1*
X1808906Y3227586D1*
Y3237148D1*
X1806474Y3241901D1*
X1801721Y3246709D1*
X1796912Y3249086D1*
X1758666Y3278895D2*
X1761043Y3274087D1*
X1765851Y3269334D1*
X1770604Y3266902D1*
X1777789Y3264525D1*
X1789783D1*
X1796912Y3266902D1*
X1801721Y3269334D1*
X1806474Y3274087D1*
X1808906Y3278895D1*
Y3288457D1*
X1806474Y3293210D1*
X1801721Y3298019D1*
X1796912Y3300395D1*
X1789783Y3302772D1*
X1777789D1*
X1770604Y3300395D1*
X1765851Y3298019D1*
X1761043Y3293210D1*
X1758666Y3288457D1*
Y3278895D1*
Y3351704D2*
X1808906D1*
X1758666Y3318211D1*
X1808906D1*
X1770659Y3369576D2*
X1768283D1*
X1763474Y3371952D1*
X1761098Y3374329D1*
X1758721Y3379137D1*
Y3388699D1*
X1761098Y3393452D1*
X1763474Y3395829D1*
X1768283Y3398260D1*
X1773036D1*
X1777844Y3395829D1*
X1784974Y3391075D1*
X1808906Y3367144D1*
Y3400637D1*
X3173863Y614384D2*
X3224103D1*
Y631130D1*
X3221671Y638315D1*
X3216918Y643124D1*
X3212109Y645500D1*
X3204980Y647877D1*
X3192986D1*
X3185801Y645500D1*
X3181048Y643124D1*
X3176239Y638315D1*
X3173863Y631130D1*
Y614384D1*
X3185801Y699186D2*
X3181048Y696809D1*
X3176239Y692001D1*
X3173863Y687248D1*
Y677686D1*
X3176239Y672878D1*
X3181048Y668125D1*
X3185801Y665693D1*
X3192986Y663316D1*
X3204980D1*
X3212109Y665693D1*
X3216918Y668124D1*
X3221671Y672878D1*
X3224103Y677686D1*
Y687248D1*
X3221671Y692001D1*
X3216918Y696809D1*
X3212109Y699186D1*
X3173863Y728995D2*
X3176239Y724187D1*
X3181048Y719434D1*
X3185801Y717002D1*
X3192986Y714625D1*
X3204980D1*
X3212109Y717002D1*
X3216918Y719434D1*
X3221671Y724187D1*
X3224103Y728995D1*
Y738557D1*
X3221671Y743310D1*
X3216918Y748119D1*
X3212109Y750495D1*
X3204980Y752872D1*
X3192986D1*
X3185801Y750495D1*
X3181048Y748119D1*
X3176239Y743310D1*
X3173863Y738557D1*
Y728995D1*
Y801804D2*
X3224103D1*
X3173863Y768311D1*
X3224103D1*
X3183480Y817244D2*
X3181048Y822052D1*
X3173918Y829237D1*
X3224103D1*
X3175201Y3137413D2*
X3225441D1*
Y3154160D1*
X3223010Y3161345D1*
X3218256Y3166153D1*
X3213448Y3168530D1*
X3206318Y3170906D1*
X3194325D1*
X3187140Y3168530D1*
X3182386Y3166153D1*
X3177578Y3161345D1*
X3175201Y3154160D1*
Y3137413D1*
X3187140Y3222216D2*
X3182386Y3219839D1*
X3177578Y3215031D1*
X3175201Y3210277D1*
Y3200716D1*
X3177578Y3195907D1*
X3182386Y3191154D1*
X3187140Y3188722D1*
X3194325Y3186346D1*
X3206318D1*
X3213448Y3188722D1*
X3218256Y3191154D1*
X3223010Y3195907D1*
X3225441Y3200716D1*
Y3210277D1*
X3223010Y3215031D1*
X3218256Y3219839D1*
X3213448Y3222216D1*
X3175201Y3252025D2*
X3177578Y3247216D1*
X3182386Y3242463D1*
X3187140Y3240031D1*
X3194325Y3237655D1*
X3206318D1*
X3213448Y3240031D1*
X3218256Y3242463D1*
X3223010Y3247216D1*
X3225441Y3252025D1*
Y3261587D1*
X3223010Y3266340D1*
X3218256Y3271148D1*
X3213448Y3273525D1*
X3206318Y3275901D1*
X3194325D1*
X3187140Y3273525D1*
X3182386Y3271148D1*
X3177578Y3266340D1*
X3175201Y3261587D1*
Y3252025D1*
Y3324834D2*
X3225441D1*
X3175201Y3291341D1*
X3225441D1*
X3187195Y3342705D2*
X3184818D1*
X3180010Y3345082D1*
X3177633Y3347458D1*
X3175257Y3352267D1*
Y3361828D1*
X3177633Y3366581D1*
X3180010Y3368958D1*
X3184818Y3371390D1*
X3189571D1*
X3194380Y3368958D1*
X3201510Y3364205D1*
X3225441Y3340273D1*
Y3373766D1*
X831737Y2830176D2*
X881977D1*
Y2858861D1*
X831737Y2905362D2*
Y2874301D1*
X881977Y2874300D1*
Y2905362D1*
X855669Y2874301D2*
Y2893424D1*
X831737Y2920801D2*
X881977D1*
Y2937548D1*
X879545Y2944733D1*
X874792Y2949541D1*
X869983Y2951918D1*
X862854Y2954295D1*
X850860D1*
X843675Y2951918D1*
X838922Y2949541D1*
X834113Y2944733D1*
X831737Y2937548D1*
Y2920801D1*
X858045Y2969734D2*
Y2991289D1*
X855669Y2998419D1*
X853237Y3000851D1*
X848483Y3003227D1*
X841298D1*
X836545Y3000851D1*
X834113Y2998419D1*
X831737Y2991289D1*
Y2969734D1*
X881977D1*
X831737Y3033036D2*
X834113Y3028228D1*
X838922Y3023475D1*
X843675Y3021043D1*
X850860Y3018666D1*
X862854D1*
X869983Y3021043D1*
X874792Y3023475D1*
X879545Y3028228D1*
X881977Y3033036D1*
Y3042598D1*
X879545Y3047351D1*
X874792Y3052160D1*
X869983Y3054536D1*
X862854Y3056913D1*
X850860D1*
X843675Y3054536D1*
X838922Y3052160D1*
X834113Y3047351D1*
X831737Y3042598D1*
Y3033036D1*
Y3072352D2*
X881977Y3084346D1*
X831737Y3096284D1*
X881977Y3108222D1*
X831737Y3120216D1*
Y3166716D2*
Y3135655D1*
X881977D1*
Y3166716D1*
X855668Y3135655D2*
Y3154778D1*
Y3182156D2*
Y3203655D1*
X853237Y3210840D1*
X850860Y3213272D1*
X846107Y3215649D1*
X841298D1*
X836545Y3213272D1*
X834113Y3210840D1*
X831737Y3203655D1*
Y3182156D1*
X881977D1*
X855668Y3198902D2*
X881977Y3215649D1*
X521737Y2829614D2*
X571977D1*
Y2858299D1*
X521737Y2904800D2*
Y2873738D1*
X571977D1*
Y2904800D1*
X545669Y2873738D2*
Y2892862D1*
X521737Y2920239D2*
X571977D1*
Y2936986D1*
X569545Y2944171D1*
X564792Y2948979D1*
X559983Y2951356D1*
X552854Y2953732D1*
X540860D1*
X533675Y2951356D1*
X528922Y2948979D1*
X524113Y2944171D1*
X521737Y2936986D1*
Y2920239D1*
X528922Y3002665D2*
X524113Y2997912D1*
X521737Y2990727D1*
Y2981165D1*
X524113Y2973980D1*
X528922Y2969172D1*
X533675D1*
X538483Y2971603D1*
X540860Y2973980D1*
X543237Y2978733D1*
X548045Y2993103D1*
X550422Y2997912D1*
X552854Y3000288D1*
X557607Y3002665D1*
X564792D1*
X569545Y2997912D1*
X571977Y2990727D1*
Y2981165D1*
X569545Y2973980D1*
X564792Y2969172D1*
X521737Y3018104D2*
X571977D1*
X533675Y3069413D2*
X528922Y3067037D1*
X524113Y3062228D1*
X521737Y3057475D1*
Y3047913D1*
X524113Y3043105D1*
X528922Y3038352D1*
X533675Y3035920D1*
X540860Y3033543D1*
X552854D1*
X559983Y3035920D1*
X564792Y3038352D1*
X569545Y3043105D1*
X571977Y3047913D1*
Y3057475D1*
X569545Y3062228D1*
X564792Y3067037D1*
X559983Y3069413D1*
X552854D1*
Y3057475D1*
X521737Y3118346D2*
X571977D1*
X521737Y3084853D1*
X571977D1*
Y3172087D2*
X521737Y3152908D1*
X571977Y3133785D1*
X555230Y3140970D2*
Y3164902D1*
X521737Y3187526D2*
X571977D1*
Y3216211D1*
X2946702Y1358424D2*
X2968201D1*
X2975386Y1360856D1*
X2977818Y1363233D1*
X2980195Y1367986D1*
Y1372795D1*
X2977818Y1377548D1*
X2975386Y1379980D1*
X2968201Y1382356D1*
X2946702D1*
Y1332116D1*
X2963448Y1358424D2*
X2980195Y1332116D1*
X2995634Y1372739D2*
X3000443Y1375171D1*
X3007628Y1382301D1*
Y1332116D1*
X2924105Y1171068D2*
Y1221253D1*
X2900173Y1187815D1*
X2936043D1*
X2953859Y1175877D2*
X2951482Y1173445D1*
X2953859Y1171068D1*
X2956291Y1173445D1*
X2953859Y1175877D1*
X2981292Y1171068D2*
X3005223Y1221253D1*
X2971730D1*
X3020663Y1221308D2*
Y1171068D1*
X3054156Y1221308D2*
X3020663Y1187815D1*
X3032601Y1199808D2*
X3054156Y1171068D1*
X2662723Y1358424D2*
X2684223D1*
X2691408Y1360856D1*
X2693840Y1363233D1*
X2696217Y1367986D1*
Y1372795D1*
X2693840Y1377548D1*
X2691408Y1379980D1*
X2684223Y1382356D1*
X2662723D1*
Y1332116D1*
X2679470Y1358424D2*
X2696217Y1332116D1*
X2714088Y1370363D2*
Y1372739D1*
X2716464Y1377548D1*
X2718841Y1379924D1*
X2723649Y1382301D1*
X2733211D1*
X2737964Y1379924D1*
X2740341Y1377548D1*
X2742773Y1372739D1*
Y1367986D1*
X2740341Y1363178D1*
X2735588Y1356048D1*
X2711656Y1332116D1*
X2745149D1*
X2650877Y1171068D2*
Y1221253D1*
X2626945Y1187815D1*
X2662815D1*
X2680631Y1175877D2*
X2678254Y1173445D1*
X2680631Y1171068D1*
X2683062Y1173445D1*
X2680631Y1175877D1*
X2708063Y1171068D2*
X2731995Y1221253D1*
X2698502D1*
X2747434Y1221308D2*
Y1171068D1*
X2780928Y1221308D2*
X2747434Y1187815D1*
X2759372Y1199808D2*
X2780928Y1171068D1*
X2389495Y1358424D2*
X2410995D1*
X2418180Y1360856D1*
X2420612Y1363233D1*
X2422988Y1367986D1*
Y1372795D1*
X2420612Y1377548D1*
X2418180Y1379980D1*
X2410995Y1382356D1*
X2389495D1*
Y1332116D1*
X2406242Y1358424D2*
X2422988Y1332116D1*
X2443236Y1382301D2*
X2469489D1*
X2455174Y1363178D1*
X2462359D1*
X2467112Y1360801D1*
X2469489Y1358424D1*
X2471921Y1351239D1*
Y1346486D1*
X2469489Y1339301D1*
X2464736Y1334493D1*
X2457551Y1332116D1*
X2450366D1*
X2443236Y1334493D1*
X2440859Y1336925D1*
X2438427Y1341678D1*
X2367460Y1209315D2*
Y1211691D1*
X2369837Y1216500D1*
X2372214Y1218876D1*
X2377022Y1221253D1*
X2386584D1*
X2391337Y1218876D1*
X2393714Y1216500D1*
X2396145Y1211691D1*
Y1206938D1*
X2393714Y1202130D1*
X2388960Y1195000D1*
X2365029Y1171068D1*
X2398522D1*
X2416393Y1209315D2*
Y1211691D1*
X2418770Y1216500D1*
X2421146Y1218876D1*
X2425955Y1221253D1*
X2435516D1*
X2440270Y1218876D1*
X2442646Y1216500D1*
X2445078Y1211691D1*
Y1206938D1*
X2442646Y1202130D1*
X2437893Y1195000D1*
X2413961Y1171068D1*
X2447455D1*
X2477264Y1221253D2*
X2470079Y1218876D1*
X2465270Y1211691D1*
X2462894Y1199753D1*
Y1192568D1*
X2465270Y1180630D1*
X2470079Y1173445D1*
X2477264Y1171068D1*
X2482017D1*
X2489202Y1173445D1*
X2493955Y1180630D1*
X2496387Y1192568D1*
Y1199753D1*
X2493955Y1211691D1*
X2489202Y1218876D1*
X2482017Y1221253D1*
X2477264D1*
X2493955Y1211691D2*
X2465270Y1180630D1*
X2115078Y1358424D2*
X2136578D1*
X2143763Y1360856D1*
X2146195Y1363233D1*
X2148572Y1367986D1*
Y1372795D1*
X2146195Y1377548D1*
X2143763Y1379980D1*
X2136578Y1382356D1*
X2115078D1*
Y1332116D1*
X2131825Y1358424D2*
X2148572Y1332116D1*
X2187943D2*
Y1382301D1*
X2164011Y1348863D1*
X2199881D1*
X2096609Y1221253D2*
X2122862D1*
X2108547Y1202130D1*
X2115732D1*
X2120485Y1199753D1*
X2122862Y1197377D1*
X2125294Y1190191D1*
Y1185438D1*
X2122862Y1178253D1*
X2118109Y1173445D1*
X2110924Y1171068D1*
X2103738D1*
X2096609Y1173445D1*
X2094232Y1175877D1*
X2091800Y1180630D1*
X2145541Y1221253D2*
X2171794D1*
X2157480Y1202130D1*
X2164665D1*
X2169418Y1199753D1*
X2171794Y1197377D1*
X2174226Y1190191D1*
Y1185438D1*
X2171794Y1178253D1*
X2167041Y1173445D1*
X2159856Y1171068D1*
X2152671D1*
X2145541Y1173445D1*
X2143165Y1175877D1*
X2140733Y1180630D1*
X2204036Y1221253D2*
X2196850Y1218876D1*
X2192042Y1211691D1*
X2189665Y1199753D1*
Y1192568D1*
X2192042Y1180630D1*
X2196850Y1173445D1*
X2204036Y1171068D1*
X2208789D1*
X2215974Y1173445D1*
X2220727Y1180630D1*
X2223159Y1192568D1*
Y1199753D1*
X2220727Y1211691D1*
X2215974Y1218876D1*
X2208789Y1221253D1*
X2204036D1*
X2220727Y1211691D2*
X2192042Y1180630D1*
X1843038Y1358424D2*
X1864538D1*
X1871723Y1360856D1*
X1874155Y1363233D1*
X1876532Y1367986D1*
Y1372795D1*
X1874155Y1377548D1*
X1871723Y1379980D1*
X1864538Y1382356D1*
X1843038D1*
Y1332116D1*
X1859785Y1358424D2*
X1876532Y1332116D1*
X1920656Y1382301D2*
X1896779D1*
X1894403Y1360801D1*
X1896779Y1363178D1*
X1903964Y1365609D1*
X1911094D1*
X1918279Y1363178D1*
X1923088Y1358424D1*
X1925464Y1351239D1*
Y1346486D1*
X1923088Y1339301D1*
X1918279Y1334493D1*
X1911094Y1332116D1*
X1903964D1*
X1896779Y1334493D1*
X1894403Y1336925D1*
X1891971Y1341678D1*
X1821004Y1209315D2*
Y1211691D1*
X1823380Y1216500D1*
X1825757Y1218876D1*
X1830565Y1221253D1*
X1840127D1*
X1844880Y1218876D1*
X1847257Y1216500D1*
X1849689Y1211691D1*
Y1206938D1*
X1847257Y1202130D1*
X1842504Y1195000D1*
X1818572Y1171068D1*
X1852065D1*
X1869936Y1209315D2*
Y1211691D1*
X1872313Y1216500D1*
X1874690Y1218876D1*
X1879498Y1221253D1*
X1889060D1*
X1893813Y1218876D1*
X1896189Y1216500D1*
X1898621Y1211691D1*
Y1206938D1*
X1896189Y1202130D1*
X1891436Y1195000D1*
X1867505Y1171068D1*
X1900998D1*
X1930807Y1221253D2*
X1923622Y1218876D1*
X1918814Y1211691D1*
X1916437Y1199753D1*
Y1192568D1*
X1918814Y1180630D1*
X1923622Y1173445D1*
X1930807Y1171068D1*
X1935560D1*
X1942745Y1173445D1*
X1947499Y1180630D1*
X1949930Y1192568D1*
Y1199753D1*
X1947499Y1211691D1*
X1942745Y1218876D1*
X1935560Y1221253D1*
X1930807D1*
X1947499Y1211691D2*
X1918814Y1180630D1*
X1537168Y3238424D2*
X1558667D1*
X1565852Y3240856D1*
X1568284Y3243233D1*
X1570661Y3247986D1*
Y3252795D1*
X1568284Y3257548D1*
X1565852Y3259980D1*
X1558667Y3262356D1*
X1537168D1*
Y3212116D1*
X1553914Y3238424D2*
X1570661Y3212116D1*
X1614785Y3255171D2*
X1612408Y3259924D1*
X1605223Y3262301D1*
X1600470D1*
X1593285Y3259924D1*
X1588477Y3252739D1*
X1586100Y3240801D1*
Y3228863D1*
X1588477Y3219301D1*
X1593285Y3214493D1*
X1600470Y3212116D1*
X1602847D1*
X1609977Y3214493D1*
X1614785Y3219301D1*
X1617162Y3226486D1*
Y3228863D1*
X1614785Y3236048D1*
X1609977Y3240801D1*
X1602847Y3243178D1*
X1600470D1*
X1593285Y3240801D1*
X1588477Y3236048D1*
X1586100Y3228863D1*
X1513917Y3089315D2*
Y3091691D1*
X1516294Y3096500D1*
X1518670Y3098876D1*
X1523479Y3101253D1*
X1533040D1*
X1537794Y3098876D1*
X1540170Y3096500D1*
X1542602Y3091691D1*
Y3086938D1*
X1540170Y3082130D1*
X1535417Y3075000D1*
X1511485Y3051068D1*
X1544979D1*
X1562850Y3089315D2*
Y3091691D1*
X1565226Y3096500D1*
X1567603Y3098876D1*
X1572411Y3101253D1*
X1581973D1*
X1586726Y3098876D1*
X1589103Y3096500D1*
X1591535Y3091691D1*
Y3086938D1*
X1589103Y3082130D1*
X1584350Y3075000D1*
X1560418Y3051068D1*
X1593911D1*
X1623721Y3101253D2*
X1616536Y3098876D1*
X1611727Y3091691D1*
X1609350Y3079753D1*
Y3072568D1*
X1611727Y3060630D1*
X1616536Y3053445D1*
X1623721Y3051068D1*
X1628474D1*
X1635659Y3053445D1*
X1640412Y3060630D1*
X1642844Y3072568D1*
Y3079753D1*
X1640412Y3091691D1*
X1635659Y3098876D1*
X1628474Y3101253D1*
X1623721D1*
X1640412Y3091691D2*
X1611727Y3060630D1*
X1220477Y3402274D2*
X1270717D1*
X1220477Y3385528D2*
Y3419021D1*
X1244409Y3434460D2*
Y3455960D1*
X1241977Y3463145D1*
X1239600Y3465577D1*
X1234847Y3467953D1*
X1230039D1*
X1225285Y3465577D1*
X1222854Y3463145D1*
X1220477Y3455960D1*
Y3434460D1*
X1270717D1*
X1244409Y3451207D2*
X1270717Y3467953D1*
X1220477Y3483393D2*
X1270717D1*
Y3537078D2*
X1220477D1*
X1270717Y3517955D1*
X1220477Y3498832D1*
X1270717D1*
X1246785Y3552518D2*
Y3574073D1*
X1244409Y3581203D1*
X1241977Y3583634D1*
X1237224Y3586011D1*
X1230039D1*
X1225285Y3583634D1*
X1222854Y3581203D1*
X1220477Y3574073D1*
Y3552518D1*
X1270717D1*
X1220477Y3615820D2*
X1222854Y3611012D1*
X1227662Y3606259D1*
X1232415Y3603827D1*
X1239600Y3601450D1*
X1251594D1*
X1258723Y3603827D1*
X1263532Y3606259D1*
X1268285Y3611012D1*
X1270717Y3615820D1*
Y3625382D1*
X1268285Y3630135D1*
X1263532Y3634944D1*
X1258723Y3637320D1*
X1251594Y3639697D1*
X1239600D1*
X1232415Y3637320D1*
X1227662Y3634944D1*
X1222854Y3630135D1*
X1220477Y3625382D1*
Y3615820D1*
Y3671883D2*
X1270717D1*
X1220477Y3655136D2*
Y3688629D1*
X1220532Y3708877D2*
Y3735130D1*
X1239655Y3720815D1*
Y3728000D1*
X1242032Y3732753D1*
X1244409Y3735130D1*
X1251594Y3737562D1*
X1256347D1*
X1263532Y3735130D1*
X1268340Y3730377D1*
X1270717Y3723192D1*
Y3716007D1*
X1268340Y3708877D1*
X1265908Y3706500D1*
X1261155Y3704069D1*
X1220532Y3757810D2*
Y3784063D1*
X1239655Y3769748D1*
Y3776933D1*
X1242032Y3781686D1*
X1244409Y3784063D1*
X1251594Y3786494D1*
X1256347D1*
X1263532Y3784063D1*
X1268340Y3779309D1*
X1270717Y3772124D1*
Y3764939D1*
X1268340Y3757810D1*
X1265908Y3755433D1*
X1261155Y3753001D1*
X1220532Y3813872D2*
X1222909Y3806742D1*
X1227662Y3804310D1*
X1232470D1*
X1237224Y3806742D1*
X1239655Y3811495D1*
X1242032Y3821057D1*
X1244409Y3828242D1*
X1249217Y3832995D1*
X1253970Y3835372D1*
X1261155D1*
X1265908Y3832995D1*
X1268340Y3830619D1*
X1270717Y3823434D1*
Y3813872D1*
X1268340Y3806742D1*
X1265908Y3804310D1*
X1261155Y3801934D1*
X1253970D1*
X1249217Y3804310D1*
X1244409Y3809119D1*
X1242032Y3816249D1*
X1239655Y3825810D1*
X1237224Y3830619D1*
X1232470Y3832995D1*
X1227662D1*
X1222909Y3830619D1*
X1220532Y3823434D1*
Y3813872D1*
X1227662Y3879496D2*
X1222909Y3877119D1*
X1220532Y3869934D1*
Y3865181D1*
X1222909Y3857996D1*
X1230094Y3853188D1*
X1242032Y3850811D1*
X1253970D1*
X1263532Y3853188D1*
X1268340Y3857996D1*
X1270717Y3865181D1*
Y3867558D1*
X1268340Y3874687D1*
X1263532Y3879496D1*
X1256347Y3881873D1*
X1253970D1*
X1246785Y3879496D1*
X1242032Y3874687D1*
X1239655Y3867558D1*
Y3865181D1*
X1242032Y3857996D1*
X1246785Y3853188D1*
X1253970Y3850811D1*
X500410Y1157553D2*
Y1107313D1*
X529095D1*
X575596Y1157553D2*
X544534D1*
Y1107313D1*
X575596D1*
X544534Y1133621D2*
X563658D1*
X622152Y1157553D2*
X591035D1*
Y1107313D1*
Y1133621D2*
X610158D1*
X654338Y1157553D2*
Y1107313D1*
X637591Y1157553D2*
X671084D1*
X1309528Y1133621D2*
X1331028D1*
X1338213Y1136053D1*
X1340645Y1138430D1*
X1343022Y1143183D1*
Y1147991D1*
X1340645Y1152745D1*
X1338213Y1155176D1*
X1331028Y1157553D1*
X1309528D1*
Y1107313D1*
X1326275Y1133621D2*
X1343022Y1107313D1*
X1358461Y1157553D2*
Y1107313D1*
X1409770Y1145615D2*
X1407394Y1150368D1*
X1402585Y1155176D1*
X1397832Y1157553D1*
X1388270D1*
X1383462Y1155176D1*
X1378709Y1150368D1*
X1376277Y1145615D1*
X1373900Y1138430D1*
Y1126436D1*
X1376277Y1119306D1*
X1378709Y1114498D1*
X1383462Y1109745D1*
X1388270Y1107313D1*
X1397832D1*
X1402585Y1109745D1*
X1407394Y1114498D1*
X1409770Y1119306D1*
Y1126436D1*
X1397832D1*
X1425209Y1157553D2*
Y1107313D1*
X1458703Y1157553D2*
Y1107313D1*
X1425209Y1133621D2*
X1458703D1*
X1490889Y1157553D2*
Y1107313D1*
X1474142Y1157553D2*
X1507635D1*
X957369Y1371647D2*
Y1335778D1*
X959746Y1328593D1*
X964554Y1323839D1*
X971739Y1321407D1*
X976492D1*
X983677Y1323839D1*
X988486Y1328593D1*
X990862Y1335778D1*
Y1371647D1*
X1006302Y1345339D2*
X1027857D1*
X1034986Y1347716D1*
X1037418Y1350148D1*
X1039795Y1354901D1*
Y1362086D1*
X1037418Y1366839D1*
X1034986Y1369271D1*
X1027857Y1371647D1*
X1006302D1*
Y1321407D1*
X898875Y927553D2*
Y877313D1*
X915621D1*
X922806Y879745D1*
X927615Y884498D1*
X929991Y889306D1*
X932368Y896436D1*
Y908430D1*
X929991Y915615D1*
X927615Y920368D1*
X922806Y925176D1*
X915621Y927553D1*
X898875D1*
X962177D2*
X957369Y925176D1*
X952616Y920368D1*
X950184Y915615D1*
X947807Y908430D1*
Y896436D1*
X950184Y889306D1*
X952616Y884498D1*
X957369Y879745D1*
X962177Y877313D1*
X971739D1*
X976492Y879745D1*
X981301Y884498D1*
X983677Y889306D1*
X986054Y896436D1*
Y908430D1*
X983677Y915615D1*
X981301Y920368D1*
X976492Y925176D1*
X971739Y927553D1*
X962177D1*
X1001493D2*
X1013487Y877313D1*
X1025425Y927553D1*
X1037363Y877313D1*
X1049356Y927553D1*
X1098289D2*
Y877313D1*
X1064796Y927553D1*
Y877313D1*
X526645Y760368D2*
X521892Y765176D1*
X514707Y767553D1*
X505145D1*
X497960Y765176D1*
X493152Y760368D1*
Y755615D1*
X495583Y750806D1*
X497960Y748430D1*
X502713Y746053D1*
X517083Y741245D1*
X521892Y738868D1*
X524268Y736436D1*
X526645Y731683D1*
Y724498D1*
X521892Y719745D1*
X514707Y717313D1*
X505145D1*
X497960Y719745D1*
X493152Y724498D1*
X573146Y767553D2*
X542084D1*
Y717313D1*
X573146D1*
X542084Y743621D2*
X561207D1*
X588585Y767553D2*
Y717313D1*
X617270D1*
X663770Y767553D2*
X632709D1*
Y717313D1*
X663770D1*
X632709Y743621D2*
X651832D1*
X715080Y755615D2*
X712703Y760368D1*
X707895Y765176D1*
X703141Y767553D1*
X693580D1*
X688771Y765176D1*
X684018Y760368D1*
X681586Y755615D1*
X679210Y748430D1*
Y736436D1*
X681586Y729306D1*
X684018Y724498D1*
X688771Y719745D1*
X693580Y717313D1*
X703141D1*
X707895Y719745D1*
X712703Y724498D1*
X715080Y729306D1*
X747266Y767553D2*
Y717313D1*
X730519Y767553D2*
X764012D1*
X1259237Y743621D2*
X1280736D1*
X1287921Y746053D1*
X1290353Y748430D1*
X1292730Y753183D1*
Y757991D1*
X1290353Y762745D1*
X1287921Y765176D1*
X1280736Y767553D1*
X1259237D1*
Y717313D1*
X1275983Y743621D2*
X1292730Y717313D1*
X1339231Y767553D2*
X1308169D1*
Y717313D1*
X1339231D1*
X1308169Y743621D2*
X1327292D1*
X1388163Y760368D2*
X1383410Y765176D1*
X1376225Y767553D1*
X1366663D1*
X1359478Y765176D1*
X1354670Y760368D1*
Y755615D1*
X1357102Y750806D1*
X1359478Y748430D1*
X1364231Y746053D1*
X1378602Y741245D1*
X1383410Y738868D1*
X1385787Y736436D1*
X1388163Y731683D1*
Y724498D1*
X1383410Y719745D1*
X1376225Y717313D1*
X1366663D1*
X1359478Y719745D1*
X1354670Y724498D1*
X1434664Y767553D2*
X1403602D1*
Y717313D1*
X1434664D1*
X1403602Y743621D2*
X1422726D1*
X1466850Y767553D2*
Y717313D1*
X1450103Y767553D2*
X1483597D1*
X1653304Y1143333D2*
D65*
X1670504D1*
X1676252Y1145279D1*
X1678197Y1147180D1*
X1680099Y1150982D1*
Y1154829D1*
X1678197Y1158632D1*
X1676252Y1160577D1*
X1670504Y1162478D1*
X1653304D1*
Y1122286D1*
X1666701Y1143333D2*
X1680099Y1122286D1*
X1713455Y1156730D2*
X1709652Y1160577D1*
X1703904Y1162478D1*
X1696255D1*
X1690507Y1160577D1*
X1686660Y1156730D1*
Y1152928D1*
X1688606Y1149081D1*
X1690507Y1147180D1*
X1694310Y1145279D1*
X1705806Y1141432D1*
X1709652Y1139531D1*
X1711554Y1137585D1*
X1713455Y1133783D1*
Y1128034D1*
X1709652Y1124232D1*
X1703904Y1122286D1*
X1696255D1*
X1690507Y1124232D1*
X1686660Y1128034D1*
X1733414Y1162478D2*
Y1122286D1*
X1720017Y1162478D2*
X1746811D1*
X1795732Y1162434D2*
X1816734D1*
X1805282Y1147136D1*
X1811030D1*
X1814833Y1145234D1*
X1816734Y1143333D1*
X1818679Y1137585D1*
Y1133783D1*
X1816734Y1128034D1*
X1812931Y1124188D1*
X1807183Y1122286D1*
X1801435D1*
X1795732Y1124188D1*
X1793830Y1126133D1*
X1791885Y1129936D1*
X1825241Y1149081D2*
X1836737Y1122286D1*
X1848189Y1149081D1*
X1924926Y1162434D2*
X1905825D1*
X1903924Y1145234D1*
X1905825Y1147136D1*
X1911573Y1149081D1*
X1917277D1*
X1923025Y1147136D1*
X1926872Y1143333D1*
X1928773Y1137585D1*
Y1133783D1*
X1926872Y1128034D1*
X1923025Y1124188D1*
X1917277Y1122286D1*
X1911573D1*
X1905825Y1124188D1*
X1903924Y1126133D1*
X1901979Y1129936D1*
X1935335Y1149081D2*
X1946831Y1122286D1*
X1958283Y1149081D1*
X2057693Y1152928D2*
X2055792Y1156730D1*
X2051945Y1160577D1*
X2048142Y1162478D1*
X2040493D1*
X2036646Y1160577D1*
X2032844Y1156730D1*
X2030898Y1152928D1*
X2028997Y1147180D1*
Y1137585D1*
X2030898Y1131881D1*
X2032844Y1128034D1*
X2036646Y1124232D1*
X2040493Y1122286D1*
X2048142D1*
X2051945Y1124232D1*
X2055792Y1128034D1*
X2057693Y1131881D1*
Y1137585D1*
X2048142D1*
X2064255Y1149081D2*
Y1122286D1*
Y1141432D2*
X2070003Y1147180D1*
X2073849Y1149081D1*
X2079553D1*
X2083400Y1147180D1*
X2085301Y1141432D1*
Y1122286D1*
X2114811Y1162478D2*
Y1122286D1*
Y1143333D2*
X2111008Y1147180D1*
X2107162Y1149081D1*
X2101413D1*
X2097611Y1147180D1*
X2093764Y1143333D1*
X2091863Y1137585D1*
Y1133783D1*
X2093764Y1128034D1*
X2097611Y1124232D1*
X2101413Y1122286D1*
X2107162D1*
X2111008Y1124232D1*
X2114811Y1128034D1*
X2187016Y1162478D2*
X2202315Y1122286D1*
X2217613Y1162478D1*
X2224175D2*
X2226076Y1160577D1*
X2228022Y1162478D1*
X2226076Y1164424D1*
X2224175Y1162478D1*
X2226076Y1149081D2*
Y1122286D1*
X2234583Y1149081D2*
Y1122286D1*
Y1141432D2*
X2240331Y1147180D1*
X2244178Y1149081D1*
X2249882D1*
X2253729Y1147180D1*
X2255630Y1141432D1*
Y1122286D1*
X2584637Y990550D2*
X2569294Y1030742D1*
X2553995Y990550D1*
X2559743Y1003947D2*
X2578889D1*
X2591198Y1017344D2*
Y990550D1*
Y1009695D2*
X2596946Y1015443D1*
X2600793Y1017344D1*
X2606497D1*
X2610344Y1015443D1*
X2612245Y1009695D1*
Y990550D1*
X2641755Y1017344D2*
Y990550D1*
Y1011596D2*
X2637952Y1015443D1*
X2634105Y1017344D1*
X2628401D1*
X2624555Y1015443D1*
X2620752Y1011596D1*
X2618807Y1005848D1*
Y1002046D1*
X2620752Y996298D1*
X2624555Y992495D1*
X2628401Y990550D1*
X2634105D1*
X2637952Y992495D1*
X2641755Y996298D1*
X2648316Y1030742D2*
Y990550D1*
X2664429Y1017344D2*
X2660626Y1015443D1*
X2656779Y1011596D1*
X2654878Y1005848D1*
Y1002046D1*
X2656779Y996298D1*
X2660626Y992495D1*
X2664429Y990550D1*
X2670177D1*
X2674023Y992495D1*
X2677826Y996298D1*
X2679771Y1002046D1*
Y1005848D1*
X2677826Y1011596D1*
X2674023Y1015443D1*
X2670177Y1017344D1*
X2664429D1*
X2709281Y1015443D2*
Y984802D1*
X2707380Y979098D1*
X2705478Y977152D1*
X2701632Y975251D1*
X2695884D1*
X2692081Y977152D1*
X2709281Y1009695D2*
X2705478Y1013498D1*
X2701632Y1015443D1*
X2695884D1*
X2692081Y1013498D1*
X2688234Y1009695D1*
X2686333Y1003947D1*
Y1000100D1*
X2688234Y994396D1*
X2692081Y990550D1*
X2695884Y988648D1*
X2701632D1*
X2705478Y990550D1*
X2709281Y994396D1*
X2748934Y1030742D2*
Y990550D1*
X2755495Y1017344D2*
Y990550D1*
Y1009695D2*
X2761243Y1015443D1*
X2765090Y1017344D1*
X2770794D1*
X2774641Y1015443D1*
X2776542Y1009695D1*
Y990550D1*
X2420208Y1162434D2*
X2414460Y1160533D1*
X2410613Y1154785D1*
X2408712Y1145234D1*
Y1139486D1*
X2410613Y1129936D1*
X2414460Y1124188D1*
X2420208Y1122286D1*
X2424010D1*
X2429758Y1124188D1*
X2433561Y1129936D1*
X2435506Y1139486D1*
Y1145234D1*
X2433561Y1154785D1*
X2429758Y1160533D1*
X2424010Y1162434D1*
X2420208D1*
X2433561Y1154785D2*
X2410613Y1129936D1*
X2508751Y1154785D2*
X2512598Y1156730D1*
X2518346Y1162434D1*
Y1122286D1*
X2610736Y1152884D2*
Y1154785D1*
X2612638Y1158632D1*
X2614539Y1160533D1*
X2618386Y1162434D1*
X2626035D1*
X2629837Y1160533D1*
X2631739Y1158632D1*
X2633684Y1154785D1*
Y1150982D1*
X2631739Y1147136D1*
X2627936Y1141432D1*
X2608791Y1122286D1*
X2635585D1*
X2712342Y1162434D2*
X2733344D1*
X2721893Y1147136D1*
X2727641D1*
X2731443Y1145234D1*
X2733344Y1143333D1*
X2735290Y1137585D1*
Y1133783D1*
X2733344Y1128034D1*
X2729542Y1124188D1*
X2723794Y1122286D1*
X2718046D1*
X2712342Y1124188D1*
X2710441Y1126133D1*
X2708495Y1129936D1*
X2827848Y1122286D2*
Y1162434D1*
X2808702Y1135684D1*
X2837398D1*
X2931690Y1162434D2*
X2912589D1*
X2910687Y1145234D1*
X2912589Y1147136D1*
X2918337Y1149081D1*
X2924041D1*
X2929789Y1147136D1*
X2933635Y1143333D1*
X2935537Y1137585D1*
Y1133783D1*
X2933635Y1128034D1*
X2929789Y1124188D1*
X2924041Y1122286D1*
X2918337D1*
X2912589Y1124188D1*
X2910687Y1126133D1*
X2908742Y1129936D1*
X1364842Y2888221D2*
X1380185Y2848029D1*
X1395483Y2888221D1*
X1389735Y2874824D2*
X1370590D1*
X1358280Y2867174D2*
X1341081D1*
X1335333Y2865229D1*
X1333387Y2863328D1*
X1331486Y2859525D1*
Y2855678D1*
X1333387Y2851876D1*
X1335333Y2849930D1*
X1341081Y2848029D1*
X1358280D1*
Y2888221D1*
X1344883Y2867174D2*
X1331486Y2888221D1*
X1324924Y2872922D2*
X1301976D1*
Y2869076D1*
X1303877Y2865229D1*
X1305779Y2863328D1*
X1309626Y2861426D1*
X1315374D1*
X1319176Y2863328D1*
X1323023Y2867174D1*
X1324924Y2872922D1*
Y2876725D1*
X1323023Y2882473D1*
X1319176Y2886276D1*
X1315374Y2888221D1*
X1309626D1*
X1305779Y2886276D1*
X1301976Y2882473D1*
X1280116Y2848029D2*
X1283918D1*
X1287765Y2849930D1*
X1289666Y2855678D1*
X1289667Y2888221D1*
X1295415Y2861426D2*
X1282017D1*
X1497376Y2863328D2*
Y2893969D1*
X1499277Y2899673D1*
X1501178Y2901618D1*
X1505025Y2903520D1*
X1510773D1*
X1514576Y2901618D1*
X1497376Y2869076D2*
X1501178Y2865273D1*
X1505025Y2863328D1*
X1510773D1*
X1514575Y2865273D1*
X1518422Y2869076D1*
X1520323Y2874824D1*
Y2878670D1*
X1518422Y2884374D1*
X1514575Y2888221D1*
X1510773Y2890122D1*
X1505025D1*
X1501178Y2888221D1*
X1497376Y2884374D1*
X1490814Y2861426D2*
Y2888221D1*
Y2869076D2*
X1485066Y2863328D1*
X1481219Y2861426D1*
X1475515D1*
X1471669Y2863328D1*
X1469767Y2869076D1*
Y2888221D1*
X1440258Y2848029D2*
Y2888221D1*
Y2867174D2*
X1444060Y2863328D1*
X1447907Y2861426D1*
X1453655D1*
X1457458Y2863328D1*
X1461304Y2867174D1*
X1463206Y2872922D1*
Y2876725D1*
X1461304Y2882473D1*
X1457458Y2886276D1*
X1453655Y2888221D1*
X1447907D1*
X1444060Y2886276D1*
X1440258Y2882473D1*
X1605282Y2855723D2*
X1601435Y2853777D1*
X1595687Y2848073D1*
Y2888221D1*
X1585278Y2848073D2*
X1564276D1*
X1575728Y2863372D1*
X1569980D1*
X1566177Y2865273D1*
X1564276Y2867174D1*
X1562331Y2872922D1*
Y2876725D1*
X1564276Y2882473D1*
X1568079Y2886320D1*
X1573827Y2888221D1*
X1579575D1*
X1585279Y2886320D1*
X1587180Y2884374D1*
X1589125Y2880572D1*
X1705321Y2855723D2*
X1701475Y2853777D1*
X1695726Y2848073D1*
X1695727Y2888221D1*
X1687219Y2857624D2*
Y2855723D1*
X1685318Y2851876D1*
X1683417Y2849975D1*
X1679570Y2848073D1*
X1671921D1*
X1668118Y2849975D1*
X1666217Y2851876D1*
X1664271Y2855723D1*
Y2859525D1*
X1666217Y2863372D1*
X1670019Y2869076D1*
X1689165Y2888221D1*
X1662370D1*
X1805528Y2855723D2*
X1801682Y2853777D1*
X1795934Y2848073D1*
Y2888221D1*
X1789372Y2855723D2*
X1785525Y2853777D1*
X1779777Y2848073D1*
Y2888221D1*
X1905568Y2855723D2*
X1901721Y2853777D1*
X1895973Y2848073D1*
Y2888221D1*
X1877915Y2848073D2*
X1883663Y2849975D1*
X1887510Y2855723D1*
X1889412Y2865273D1*
Y2871021D1*
X1887510Y2880572D1*
X1883664Y2886320D1*
X1877916Y2888221D1*
X1874113D1*
X1868365Y2886320D1*
X1864562Y2880572D1*
X1862617Y2871021D1*
Y2865273D1*
X1864562Y2855723D1*
X1868365Y2849975D1*
X1874113Y2848073D1*
X1877915D1*
X1864562Y2855723D2*
X1887510Y2880572D1*
X1960606Y2861426D2*
X1962551Y2867174D1*
X1966354Y2871021D1*
X1972102Y2872922D1*
X1974003D1*
X1979751Y2871021D1*
X1983554Y2867174D1*
X1985499Y2861426D1*
Y2859525D1*
X1983554Y2853777D1*
X1979751Y2849975D1*
X1974003Y2848073D1*
X1972102D1*
X1966354Y2849975D1*
X1962551Y2853777D1*
X1960606Y2861426D1*
Y2871021D1*
X1962551Y2880572D1*
X1966354Y2886320D1*
X1972102Y2888221D1*
X1975904D1*
X1981652Y2886320D1*
X1983554Y2882473D1*
X2075988Y2848073D2*
X2081692Y2849975D1*
X2083637Y2853777D1*
Y2857624D1*
X2081692Y2861426D1*
X2077889Y2863372D1*
X2070240Y2865273D1*
X2064492Y2867174D1*
X2060690Y2871021D1*
X2058788Y2874824D1*
Y2880572D1*
X2060690Y2884374D1*
X2062591Y2886320D1*
X2068339Y2888221D1*
X2075988D1*
X2081692Y2886320D1*
X2083637Y2884374D1*
X2085539Y2880572D1*
Y2874824D1*
X2083637Y2871021D1*
X2079791Y2867174D1*
X2074087Y2865273D1*
X2066438Y2863372D1*
X2062591Y2861426D1*
X2060690Y2857624D1*
Y2853777D1*
X2062591Y2849975D1*
X2068339Y2848073D1*
X2075988D1*
X2237584Y2888221D2*
X2218439Y2848073D1*
X2245233D1*
X2322325Y2853777D2*
X2324226Y2849975D1*
X2329974Y2848073D1*
X2333777D1*
X2339525Y2849975D1*
X2343372Y2855723D1*
X2345273Y2865273D1*
Y2874824D1*
X2343372Y2882473D1*
X2339525Y2886320D1*
X2333777Y2888221D1*
X2331876D1*
X2326172Y2886320D1*
X2322325Y2882473D1*
X2320424Y2876725D1*
Y2874824D1*
X2322325Y2869076D1*
X2326172Y2865273D1*
X2331876Y2863372D1*
X2333777D1*
X2339525Y2865273D1*
X2343372Y2869076D1*
X2345273Y2874824D1*
X2422532Y2848073D2*
X2441633D1*
X2443535Y2865273D1*
X2441633Y2863372D1*
X2435885Y2861426D1*
X2430181D1*
X2424433Y2863372D1*
X2420587Y2867174D1*
X2418685Y2872923D1*
Y2876725D1*
X2420587Y2882473D1*
X2424433Y2886320D1*
X2430182Y2888221D1*
X2435885D1*
X2441633Y2886320D1*
X2443535Y2884374D1*
X2445480Y2880572D1*
X2526374Y2888221D2*
Y2848073D1*
X2545520Y2874824D1*
X2516824D1*
X2641712Y2848073D2*
X2620710D1*
X2632162Y2863372D1*
X2626414D1*
X2622611Y2865273D1*
X2620710Y2867174D1*
X2618765Y2872923D1*
Y2876725D1*
X2620710Y2882473D1*
X2624513Y2886320D1*
X2630261Y2888221D1*
X2636009D1*
X2641712Y2886320D1*
X2643614Y2884374D1*
X2645559Y2880572D1*
X2743653Y2857624D2*
Y2855723D1*
X2741752Y2851876D1*
X2739851Y2849975D1*
X2736004Y2848073D1*
X2728355D1*
X2724552Y2849975D1*
X2722651Y2851876D1*
X2720705Y2855723D1*
Y2859525D1*
X2722651Y2863372D1*
X2726453Y2869076D1*
X2745599Y2888221D1*
X2718804D1*
X2845303Y2855723D2*
X2841456Y2853777D1*
X2835708Y2848073D1*
Y2888221D1*
X2933847Y2848073D2*
X2939595Y2849975D1*
X2943441Y2855723D1*
X2945343Y2865273D1*
Y2871021D1*
X2943441Y2880572D1*
X2939595Y2886320D1*
X2933847Y2888221D1*
X2930044D1*
X2924296Y2886320D1*
X2920494Y2880572D1*
X2918548Y2871021D1*
Y2865273D1*
X2920494Y2855723D1*
X2924296Y2849975D1*
X2930044Y2848073D1*
X2933847D1*
X2920494Y2855723D2*
X2943441Y2880572D1*
X1668720Y3062471D2*
Y3022279D1*
X1682118D1*
X1687866Y3024224D1*
X1691713Y3028027D1*
X1693614Y3031874D1*
X1695515Y3037577D1*
Y3047172D1*
X1693614Y3052920D1*
X1691713Y3056723D1*
X1687866Y3060570D1*
X1682118Y3062471D1*
X1668720D1*
X1702077D2*
X1703978Y3060570D1*
X1705924Y3062471D1*
X1703978Y3064416D1*
X1702077Y3062471D1*
X1703978Y3049074D2*
Y3022279D1*
X1735433Y3047172D2*
Y3016531D1*
X1733532Y3010827D1*
X1731631Y3008882D1*
X1727784Y3006980D1*
X1722036D1*
X1718233Y3008882D1*
X1735433Y3041424D2*
X1731631Y3045227D1*
X1727784Y3047172D1*
X1722036D1*
X1718233Y3045227D1*
X1714387Y3041424D1*
X1712485Y3035676D1*
Y3031829D1*
X1714387Y3026126D1*
X1718233Y3022279D1*
X1722036Y3020378D1*
X1727784D1*
X1731631Y3022279D1*
X1735433Y3026126D1*
X1741995Y3062471D2*
X1743896Y3060570D1*
X1745842Y3062471D1*
X1743896Y3064416D1*
X1741995Y3062471D1*
X1743896Y3049074D2*
Y3022279D1*
X1758151Y3062471D2*
Y3029928D1*
X1760053Y3024224D1*
X1763899Y3022279D1*
X1767702D1*
X1752403Y3049074D2*
X1765801D1*
X1797211D2*
Y3022279D1*
Y3043326D2*
X1793409Y3047172D1*
X1789562Y3049074D1*
X1783858D1*
X1780012Y3047172D1*
X1776209Y3043326D1*
X1774264Y3037577D1*
Y3033775D1*
X1776209Y3028027D1*
X1780012Y3024224D1*
X1783858Y3022279D1*
X1789562D1*
X1793409Y3024224D1*
X1797211Y3028027D1*
X1803773Y3062471D2*
Y3022279D1*
X1843426Y3062471D2*
Y3022279D1*
X1849988D2*
X1876782Y3062427D1*
X1894840Y3062471D2*
X1890993Y3060570D1*
X1887191Y3056723D1*
X1885245Y3052920D1*
X1883344Y3047172D1*
Y3037577D1*
X1885245Y3031874D1*
X1887191Y3028027D1*
X1890993Y3024224D1*
X1894840Y3022279D1*
X1902489D1*
X1906292Y3024224D1*
X1910139Y3028027D1*
X1912040Y3031874D1*
X1913941Y3037577D1*
Y3047172D1*
X1912040Y3052920D1*
X1910139Y3056723D1*
X1906292Y3060570D1*
X1902489Y3062471D1*
X1894840D1*
X2428485D2*
Y3022279D1*
X2441882D1*
X2447630Y3024224D1*
X2451477Y3028027D1*
X2453378Y3031874D1*
X2455280Y3037577D1*
Y3047172D1*
X2453378Y3052920D1*
X2451477Y3056723D1*
X2447630Y3060570D1*
X2441882Y3062471D1*
X2428485D1*
X2461841D2*
X2463743Y3060570D1*
X2465688Y3062471D1*
X2463743Y3064416D1*
X2461841Y3062471D1*
X2463743Y3049074D2*
Y3022279D1*
X2495198Y3047172D2*
Y3016531D1*
X2493296Y3010827D1*
X2491395Y3008882D1*
X2487548Y3006980D1*
X2481800D1*
X2477998Y3008882D1*
X2495198Y3041424D2*
X2491395Y3045227D1*
X2487548Y3047172D1*
X2481800D1*
X2477998Y3045227D1*
X2474151Y3041424D1*
X2472250Y3035676D1*
Y3031829D1*
X2474151Y3026126D1*
X2477998Y3022279D1*
X2481800Y3020378D1*
X2487548D1*
X2491395Y3022279D1*
X2495198Y3026126D1*
X2501759Y3062471D2*
X2503661Y3060570D1*
X2505606Y3062471D1*
X2503661Y3064416D1*
X2501759Y3062471D1*
X2503661Y3049074D2*
Y3022279D1*
X2517916Y3062471D2*
Y3029928D1*
X2519817Y3024224D1*
X2523664Y3022279D1*
X2527466D1*
X2512168Y3049074D2*
X2525565D1*
X2556976D2*
Y3022279D1*
Y3043326D2*
X2553173Y3047172D1*
X2549327Y3049074D1*
X2543623D1*
X2539776Y3047172D1*
X2535974Y3043326D1*
X2534028Y3037577D1*
Y3033775D1*
X2535974Y3028027D1*
X2539776Y3024224D1*
X2543623Y3022279D1*
X2549327D1*
X2553173Y3024224D1*
X2556976Y3028027D1*
X2563538Y3062471D2*
Y3022279D1*
X2603190Y3062471D2*
Y3022279D1*
X2609752D2*
X2636547Y3062427D1*
X2654605Y3062471D2*
X2650758Y3060570D1*
X2646955Y3056723D1*
X2645010Y3052920D1*
X2643108Y3047172D1*
Y3037577D1*
X2645010Y3031874D1*
X2646955Y3028027D1*
X2650758Y3024224D1*
X2654605Y3022279D1*
X2662254D1*
X2666056Y3024224D1*
X2669903Y3028027D1*
X2671804Y3031874D1*
X2673706Y3037577D1*
Y3047172D1*
X2671804Y3052920D1*
X2669903Y3056723D1*
X2666056Y3060570D1*
X2662254Y3062471D1*
X2654605D1*
M02*
