G04 DipTrace 3.3.1.3*
G04 TopSilk.gbr*
%MOIN*%
G04 #@! TF.FileFunction,Legend,Top*
G04 #@! TF.Part,Single*
%ADD10C,0.009843*%
%ADD16C,0.01*%
%ADD23C,0.006*%
%ADD25C,0.005*%
%ADD29C,0.008*%
%ADD63C,0.00772*%
%ADD65C,0.003281*%
%FSLAX26Y26*%
G04*
G70*
G90*
G75*
G01*
G04 TopSilk*
%LPD*%
X2647086Y887165D2*
D10*
X2538818D1*
Y556456D1*
X2647086D1*
Y887165D1*
X2648424Y3420944D2*
X2540157D1*
Y3090235D1*
X2648424D1*
Y3420944D1*
X1423581Y3145520D2*
Y3121880D1*
X1435400Y3133700D2*
X1411787D1*
X1193706D2*
G02X1193706Y3133700I99965J0D01*
G01*
X1938818Y887165D2*
X1830550D1*
Y556456D1*
X1938818D1*
Y887165D1*
X1940157Y3420944D2*
X1831889D1*
Y3090235D1*
X1940157D1*
Y3420944D1*
X3355354Y887165D2*
X3247086D1*
Y556456D1*
X3355354D1*
Y887165D1*
X3356692Y3420944D2*
X3248424D1*
Y3090235D1*
X3356692D1*
Y3420944D1*
X904960Y2875275D2*
X1066377D1*
Y3170550D1*
X904960D1*
Y2875275D1*
X594960D2*
X756377D1*
Y3170550D1*
X594960D1*
Y2875275D1*
X1953700Y3613702D2*
D23*
Y3563704D1*
Y3713698D2*
G02X1953700Y3613702I-18J-49998D01*
G01*
X3353700Y3563704D2*
Y3763696D1*
X1953700D2*
Y3713698D1*
Y3763696D2*
X3353700D1*
X1958740Y3563704D2*
X3353700D1*
X319054Y1385275D2*
D25*
X3468661D1*
Y2802598D1*
X319054D1*
Y1385275D1*
X490393Y2611684D2*
X3297322D1*
Y1576188D1*
X490393D1*
Y2611684D1*
X643779Y2536283D2*
X3143936D1*
Y2496881D1*
X643779D1*
Y2536283D1*
Y1658960D2*
X3143936D1*
Y1698220D1*
X643779D1*
Y1658960D1*
X737007Y2408157D2*
G03X643779Y2290094I12112J-105405D01*
G01*
Y1895086D1*
G03X737007Y1777023I105575J-12473D01*
G01*
X3040314D1*
G03X3143936Y1895086I-7282J110897D01*
G01*
Y2290094D1*
G03X3040314Y2408157I-110904J7166D01*
G01*
X737007D1*
X1668700Y3446200D2*
Y3821200D1*
X1293700D1*
Y3446200D1*
X1668700D1*
X1351188Y3633700D2*
G02X1351188Y3633700I130012J0D01*
G01*
X514885Y962283D2*
D10*
G02X514885Y962283I70862J0D01*
G01*
X676302Y1080400D2*
X495192D1*
X467622Y1001680D2*
Y922910D1*
X495192Y844165D2*
X660548D1*
X703872Y922910D2*
Y1001680D1*
X526701Y962295D2*
G02X526701Y962295I59046J0D01*
G01*
X1337720Y962283D2*
G02X1337720Y962283I70862J0D01*
G01*
X1499137Y1080400D2*
X1318027D1*
X1290457Y1001680D2*
Y922910D1*
X1318027Y844165D2*
X1483383D1*
X1526707Y922910D2*
Y1001680D1*
X1349535Y962295D2*
G02X1349535Y962295I59046J0D01*
G01*
X927720Y1176377D2*
G02X927720Y1176377I70862J0D01*
G01*
X1089137Y1294494D2*
X908027D1*
X880457Y1215774D2*
Y1137005D1*
X908027Y1058260D2*
X1073383D1*
X1116707Y1137005D2*
Y1215774D1*
X939535Y1176389D2*
G02X939535Y1176389I59046J0D01*
G01*
X927720Y732283D2*
G02X927720Y732283I70862J0D01*
G01*
X1089137Y850400D2*
X908027D1*
X880457Y771680D2*
Y692910D1*
X908027Y614165D2*
X1073383D1*
X1116707Y692910D2*
Y771680D1*
X939535Y732295D2*
G02X939535Y732295I59046J0D01*
G01*
X557720Y572283D2*
G02X557720Y572283I70862J0D01*
G01*
X719137Y690400D2*
X538027D1*
X510457Y611680D2*
Y532910D1*
X538027Y454165D2*
X703383D1*
X746707Y532910D2*
Y611680D1*
X569535Y572295D2*
G02X569535Y572295I59046J0D01*
G01*
X957315Y3486520D2*
D29*
Y3569190D1*
X528186Y3486520D2*
X728999D1*
X957315D2*
X913988D1*
X528186Y3840865D2*
X957315D1*
Y3766084D1*
X528186Y3840865D2*
Y3486520D1*
X1300554Y572283D2*
D10*
G02X1300554Y572283I70862J0D01*
G01*
X1461972Y690400D2*
X1280861D1*
X1253291Y611680D2*
Y532910D1*
X1280861Y454165D2*
X1446217D1*
X1489542Y532910D2*
Y611680D1*
X1312370Y572295D2*
G02X1312370Y572295I59046J0D01*
G01*
X1743700Y3433700D2*
D16*
X2663700D1*
Y3073700D1*
X1743700D1*
Y3433700D1*
Y903700D2*
X2663700D1*
Y543700D1*
X1743700D1*
Y903700D1*
X2515835Y650281D2*
D63*
X2465595Y631103D1*
X2515835Y611979D1*
X2499088Y619164D2*
Y643096D1*
X2477533Y701590D2*
X2472780Y699214D1*
X2467972Y694405D1*
X2465595Y689652D1*
Y680090D1*
X2467972Y675282D1*
X2472780Y670529D1*
X2477533Y668097D1*
X2484718Y665720D1*
X2496712D1*
X2503842Y668097D1*
X2508650Y670529D1*
X2513403Y675282D1*
X2515835Y680090D1*
Y689652D1*
X2513403Y694405D1*
X2508650Y699214D1*
X2503842Y701590D1*
X2465595Y731400D2*
X2467972Y726591D1*
X2472780Y721838D1*
X2477533Y719406D1*
X2484718Y717029D1*
X2496712D1*
X2503842Y719406D1*
X2508650Y721838D1*
X2513403Y726591D1*
X2515835Y731400D1*
Y740961D1*
X2513403Y745714D1*
X2508650Y750523D1*
X2503842Y752899D1*
X2496712Y755276D1*
X2484718D1*
X2477533Y752899D1*
X2472780Y750523D1*
X2467972Y745714D1*
X2465595Y740961D1*
Y731400D1*
Y804209D2*
X2515835D1*
X2465595Y770715D1*
X2515835D1*
X2475212Y819648D2*
X2472780Y824456D1*
X2465650Y831641D1*
X2515835D1*
X2517174Y3173311D2*
X2466934Y3154132D1*
X2517174Y3135009D1*
X2500427Y3142194D2*
Y3166126D1*
X2478872Y3224620D2*
X2474119Y3222243D1*
X2469310Y3217435D1*
X2466934Y3212682D1*
Y3203120D1*
X2469310Y3198312D1*
X2474119Y3193558D1*
X2478872Y3191127D1*
X2486057Y3188750D1*
X2498050D1*
X2505180Y3191126D1*
X2509989Y3193558D1*
X2514742Y3198311D1*
X2517174Y3203120D1*
Y3212682D1*
X2514742Y3217435D1*
X2509989Y3222243D1*
X2505180Y3224620D1*
X2466934Y3254429D2*
X2469310Y3249621D1*
X2474119Y3244868D1*
X2478872Y3242436D1*
X2486057Y3240059D1*
X2498050D1*
X2505180Y3242436D1*
X2509989Y3244867D1*
X2514742Y3249621D1*
X2517174Y3254429D1*
Y3263991D1*
X2514742Y3268744D1*
X2509989Y3273552D1*
X2505180Y3275929D1*
X2498050Y3278306D1*
X2486057D1*
X2478872Y3275929D1*
X2474119Y3273552D1*
X2469310Y3268744D1*
X2466934Y3263991D1*
Y3254429D1*
Y3327238D2*
X2517174D1*
X2466934Y3293745D1*
X2517174D1*
X2478927Y3345109D2*
X2476551D1*
X2471742Y3347486D1*
X2469366Y3349862D1*
X2466989Y3354671D1*
Y3364233D1*
X2469366Y3368986D1*
X2471742Y3371362D1*
X2476551Y3373794D1*
X2481304D1*
X2486112Y3371362D1*
X2493242Y3366609D1*
X2517174Y3342677D1*
Y3376171D1*
X1318772Y3294985D2*
X1316395Y3299738D1*
X1311587Y3304546D1*
X1306833Y3306923D1*
X1297272D1*
X1292463Y3304546D1*
X1287710Y3299738D1*
X1285278Y3294985D1*
X1282902Y3287800D1*
Y3275806D1*
X1285278Y3268677D1*
X1287710Y3263868D1*
X1292463Y3259115D1*
X1297272Y3256683D1*
X1306833D1*
X1311587Y3259115D1*
X1316395Y3263868D1*
X1318772Y3268677D1*
X1334211Y3297306D2*
X1339019Y3299738D1*
X1346204Y3306868D1*
Y3256683D1*
X1757327Y587513D2*
X1807567D1*
Y604260D1*
X1805136Y611445D1*
X1800382Y616253D1*
X1795574Y618630D1*
X1788444Y621006D1*
X1776451D1*
X1769266Y618630D1*
X1764512Y616253D1*
X1759704Y611445D1*
X1757327Y604260D1*
Y587513D1*
X1807567Y674747D2*
X1757327Y655569D1*
X1807567Y636446D1*
X1790821Y643631D2*
Y667562D1*
X1769266Y726056D2*
X1764512Y723680D1*
X1759704Y718871D1*
X1757327Y714118D1*
Y704557D1*
X1759704Y699748D1*
X1764512Y694995D1*
X1769266Y692563D1*
X1776451Y690187D1*
X1788444D1*
X1795574Y692563D1*
X1800382Y694995D1*
X1805135Y699748D1*
X1807567Y704557D1*
Y714118D1*
X1805135Y718871D1*
X1800382Y723680D1*
X1795574Y726056D1*
X1757327Y755866D2*
X1759704Y751057D1*
X1764512Y746304D1*
X1769266Y743872D1*
X1776451Y741496D1*
X1788444D1*
X1795574Y743872D1*
X1800382Y746304D1*
X1805135Y751057D1*
X1807567Y755866D1*
Y765427D1*
X1805135Y770181D1*
X1800382Y774989D1*
X1795574Y777366D1*
X1788444Y779742D1*
X1776451D1*
X1769266Y777366D1*
X1764512Y774989D1*
X1759704Y770181D1*
X1757327Y765427D1*
Y755866D1*
Y828675D2*
X1807567D1*
X1757327Y795181D1*
X1807567D1*
X1766944Y844114D2*
X1764512Y848923D1*
X1757383Y856108D1*
X1807567D1*
X1758666Y3110543D2*
X1808906D1*
Y3127289D1*
X1806474Y3134474D1*
X1801721Y3139283D1*
X1796912Y3141659D1*
X1789783Y3144036D1*
X1777789D1*
X1770604Y3141659D1*
X1765851Y3139283D1*
X1761043Y3134474D1*
X1758666Y3127289D1*
Y3110543D1*
X1808906Y3197777D2*
X1758666Y3178598D1*
X1808906Y3159475D1*
X1792159Y3166660D2*
Y3190592D1*
X1770604Y3249086D2*
X1765851Y3246710D1*
X1761043Y3241901D1*
X1758666Y3237148D1*
Y3227586D1*
X1761043Y3222778D1*
X1765851Y3218025D1*
X1770604Y3215593D1*
X1777789Y3213216D1*
X1789783D1*
X1796912Y3215593D1*
X1801721Y3218025D1*
X1806474Y3222778D1*
X1808906Y3227586D1*
Y3237148D1*
X1806474Y3241901D1*
X1801721Y3246709D1*
X1796912Y3249086D1*
X1758666Y3278895D2*
X1761043Y3274087D1*
X1765851Y3269334D1*
X1770604Y3266902D1*
X1777789Y3264525D1*
X1789783D1*
X1796912Y3266902D1*
X1801721Y3269334D1*
X1806474Y3274087D1*
X1808906Y3278895D1*
Y3288457D1*
X1806474Y3293210D1*
X1801721Y3298019D1*
X1796912Y3300395D1*
X1789783Y3302772D1*
X1777789D1*
X1770604Y3300395D1*
X1765851Y3298019D1*
X1761043Y3293210D1*
X1758666Y3288457D1*
Y3278895D1*
Y3351704D2*
X1808906D1*
X1758666Y3318211D1*
X1808906D1*
X1770659Y3369576D2*
X1768283D1*
X1763474Y3371952D1*
X1761098Y3374329D1*
X1758721Y3379137D1*
Y3388699D1*
X1761098Y3393452D1*
X1763474Y3395829D1*
X1768283Y3398260D1*
X1773036D1*
X1777844Y3395829D1*
X1784974Y3391075D1*
X1808906Y3367144D1*
Y3400637D1*
X3173863Y614384D2*
X3224103D1*
Y631130D1*
X3221671Y638315D1*
X3216918Y643124D1*
X3212109Y645500D1*
X3204980Y647877D1*
X3192986D1*
X3185801Y645500D1*
X3181048Y643124D1*
X3176239Y638315D1*
X3173863Y631130D1*
Y614384D1*
X3185801Y699186D2*
X3181048Y696809D1*
X3176239Y692001D1*
X3173863Y687248D1*
Y677686D1*
X3176239Y672878D1*
X3181048Y668125D1*
X3185801Y665693D1*
X3192986Y663316D1*
X3204980D1*
X3212109Y665693D1*
X3216918Y668124D1*
X3221671Y672878D1*
X3224103Y677686D1*
Y687248D1*
X3221671Y692001D1*
X3216918Y696809D1*
X3212109Y699186D1*
X3173863Y728995D2*
X3176239Y724187D1*
X3181048Y719434D1*
X3185801Y717002D1*
X3192986Y714625D1*
X3204980D1*
X3212109Y717002D1*
X3216918Y719434D1*
X3221671Y724187D1*
X3224103Y728995D1*
Y738557D1*
X3221671Y743310D1*
X3216918Y748119D1*
X3212109Y750495D1*
X3204980Y752872D1*
X3192986D1*
X3185801Y750495D1*
X3181048Y748119D1*
X3176239Y743310D1*
X3173863Y738557D1*
Y728995D1*
Y801804D2*
X3224103D1*
X3173863Y768311D1*
X3224103D1*
X3183480Y817244D2*
X3181048Y822052D1*
X3173918Y829237D1*
X3224103D1*
X3175201Y3137413D2*
X3225441D1*
Y3154160D1*
X3223010Y3161345D1*
X3218256Y3166153D1*
X3213448Y3168530D1*
X3206318Y3170906D1*
X3194325D1*
X3187140Y3168530D1*
X3182386Y3166153D1*
X3177578Y3161345D1*
X3175201Y3154160D1*
Y3137413D1*
X3187140Y3222216D2*
X3182386Y3219839D1*
X3177578Y3215031D1*
X3175201Y3210277D1*
Y3200716D1*
X3177578Y3195907D1*
X3182386Y3191154D1*
X3187140Y3188722D1*
X3194325Y3186346D1*
X3206318D1*
X3213448Y3188722D1*
X3218256Y3191154D1*
X3223010Y3195907D1*
X3225441Y3200716D1*
Y3210277D1*
X3223010Y3215031D1*
X3218256Y3219839D1*
X3213448Y3222216D1*
X3175201Y3252025D2*
X3177578Y3247216D1*
X3182386Y3242463D1*
X3187140Y3240031D1*
X3194325Y3237655D1*
X3206318D1*
X3213448Y3240031D1*
X3218256Y3242463D1*
X3223010Y3247216D1*
X3225441Y3252025D1*
Y3261587D1*
X3223010Y3266340D1*
X3218256Y3271148D1*
X3213448Y3273525D1*
X3206318Y3275901D1*
X3194325D1*
X3187140Y3273525D1*
X3182386Y3271148D1*
X3177578Y3266340D1*
X3175201Y3261587D1*
Y3252025D1*
Y3324834D2*
X3225441D1*
X3175201Y3291341D1*
X3225441D1*
X3187195Y3342705D2*
X3184818D1*
X3180010Y3345082D1*
X3177633Y3347458D1*
X3175257Y3352267D1*
Y3361828D1*
X3177633Y3366581D1*
X3180010Y3368958D1*
X3184818Y3371390D1*
X3189571D1*
X3194380Y3368958D1*
X3201510Y3364205D1*
X3225441Y3340273D1*
Y3373766D1*
X831737Y2830176D2*
X881977D1*
Y2858861D1*
X831737Y2905362D2*
Y2874301D1*
X881977Y2874300D1*
Y2905362D1*
X855669Y2874301D2*
Y2893424D1*
X831737Y2920801D2*
X881977D1*
Y2937548D1*
X879545Y2944733D1*
X874792Y2949541D1*
X869983Y2951918D1*
X862854Y2954295D1*
X850860D1*
X843675Y2951918D1*
X838922Y2949541D1*
X834113Y2944733D1*
X831737Y2937548D1*
Y2920801D1*
X858045Y2969734D2*
Y2991289D1*
X855669Y2998419D1*
X853237Y3000851D1*
X848483Y3003227D1*
X841298D1*
X836545Y3000851D1*
X834113Y2998419D1*
X831737Y2991289D1*
Y2969734D1*
X881977D1*
X831737Y3033036D2*
X834113Y3028228D1*
X838922Y3023475D1*
X843675Y3021043D1*
X850860Y3018666D1*
X862854D1*
X869983Y3021043D1*
X874792Y3023475D1*
X879545Y3028228D1*
X881977Y3033036D1*
Y3042598D1*
X879545Y3047351D1*
X874792Y3052160D1*
X869983Y3054536D1*
X862854Y3056913D1*
X850860D1*
X843675Y3054536D1*
X838922Y3052160D1*
X834113Y3047351D1*
X831737Y3042598D1*
Y3033036D1*
Y3072352D2*
X881977Y3084346D1*
X831737Y3096284D1*
X881977Y3108222D1*
X831737Y3120216D1*
Y3166716D2*
Y3135655D1*
X881977D1*
Y3166716D1*
X855668Y3135655D2*
Y3154778D1*
Y3182156D2*
Y3203655D1*
X853237Y3210840D1*
X850860Y3213272D1*
X846107Y3215649D1*
X841298D1*
X836545Y3213272D1*
X834113Y3210840D1*
X831737Y3203655D1*
Y3182156D1*
X881977D1*
X855668Y3198902D2*
X881977Y3215649D1*
X521737Y2829614D2*
X571977D1*
Y2858299D1*
X521737Y2904800D2*
Y2873738D1*
X571977D1*
Y2904800D1*
X545669Y2873738D2*
Y2892862D1*
X521737Y2920239D2*
X571977D1*
Y2936986D1*
X569545Y2944171D1*
X564792Y2948979D1*
X559983Y2951356D1*
X552854Y2953732D1*
X540860D1*
X533675Y2951356D1*
X528922Y2948979D1*
X524113Y2944171D1*
X521737Y2936986D1*
Y2920239D1*
X528922Y3002665D2*
X524113Y2997912D1*
X521737Y2990727D1*
Y2981165D1*
X524113Y2973980D1*
X528922Y2969172D1*
X533675D1*
X538483Y2971603D1*
X540860Y2973980D1*
X543237Y2978733D1*
X548045Y2993103D1*
X550422Y2997912D1*
X552854Y3000288D1*
X557607Y3002665D1*
X564792D1*
X569545Y2997912D1*
X571977Y2990727D1*
Y2981165D1*
X569545Y2973980D1*
X564792Y2969172D1*
X521737Y3018104D2*
X571977D1*
X533675Y3069413D2*
X528922Y3067037D1*
X524113Y3062228D1*
X521737Y3057475D1*
Y3047913D1*
X524113Y3043105D1*
X528922Y3038352D1*
X533675Y3035920D1*
X540860Y3033543D1*
X552854D1*
X559983Y3035920D1*
X564792Y3038352D1*
X569545Y3043105D1*
X571977Y3047913D1*
Y3057475D1*
X569545Y3062228D1*
X564792Y3067037D1*
X559983Y3069413D1*
X552854D1*
Y3057475D1*
X521737Y3118346D2*
X571977D1*
X521737Y3084853D1*
X571977D1*
Y3172087D2*
X521737Y3152908D1*
X571977Y3133785D1*
X555230Y3140970D2*
Y3164902D1*
X521737Y3187526D2*
X571977D1*
Y3216211D1*
X2946702Y1342676D2*
X2968201D1*
X2975386Y1345108D1*
X2977818Y1347485D1*
X2980195Y1352238D1*
Y1357046D1*
X2977818Y1361800D1*
X2975386Y1364232D1*
X2968201Y1366608D1*
X2946702D1*
Y1316368D1*
X2963448Y1342676D2*
X2980195Y1316368D1*
X2995634Y1356991D2*
X3000443Y1359423D1*
X3007628Y1366553D1*
Y1316368D1*
X2924105Y1186816D2*
Y1237001D1*
X2900173Y1203563D1*
X2936043D1*
X2953859Y1191625D2*
X2951482Y1189193D1*
X2953859Y1186816D1*
X2956291Y1189193D1*
X2953859Y1191625D1*
X2981292Y1186816D2*
X3005223Y1237001D1*
X2971730D1*
X3020663Y1237056D2*
Y1186816D1*
X3054156Y1237056D2*
X3020663Y1203563D1*
X3032601Y1215556D2*
X3054156Y1186816D1*
X2755952Y1342676D2*
X2777451D1*
X2784636Y1345108D1*
X2787068Y1347485D1*
X2789445Y1352238D1*
Y1357046D1*
X2787068Y1361800D1*
X2784636Y1364232D1*
X2777451Y1366608D1*
X2755952D1*
Y1316368D1*
X2772698Y1342676D2*
X2789445Y1316368D1*
X2807316Y1354615D2*
Y1356991D1*
X2809693Y1361800D1*
X2812069Y1364176D1*
X2816878Y1366553D1*
X2826439D1*
X2831192Y1364176D1*
X2833569Y1361800D1*
X2836001Y1356991D1*
Y1352238D1*
X2833569Y1347430D1*
X2828816Y1340300D1*
X2804884Y1316368D1*
X2838378D1*
X2744105Y1186816D2*
Y1237001D1*
X2720173Y1203563D1*
X2756043D1*
X2773859Y1191625D2*
X2771482Y1189193D1*
X2773859Y1186816D1*
X2776291Y1189193D1*
X2773859Y1191625D1*
X2801292Y1186816D2*
X2825223Y1237001D1*
X2791730D1*
X2840663Y1237056D2*
Y1186816D1*
X2874156Y1237056D2*
X2840663Y1203563D1*
X2852601Y1215556D2*
X2874156Y1186816D1*
X2565952Y1342676D2*
X2587451D1*
X2594636Y1345108D1*
X2597068Y1347485D1*
X2599445Y1352238D1*
Y1357046D1*
X2597068Y1361800D1*
X2594636Y1364232D1*
X2587451Y1366608D1*
X2565952D1*
Y1316368D1*
X2582698Y1342676D2*
X2599445Y1316368D1*
X2619693Y1366553D2*
X2645946D1*
X2631631Y1347430D1*
X2638816D1*
X2643569Y1345053D1*
X2645946Y1342676D1*
X2648378Y1335491D1*
Y1330738D1*
X2645946Y1323553D1*
X2641192Y1318745D1*
X2634007Y1316368D1*
X2626822D1*
X2619693Y1318745D1*
X2617316Y1321177D1*
X2614884Y1325930D1*
X2543917Y1225063D2*
Y1227439D1*
X2546294Y1232248D1*
X2548670Y1234624D1*
X2553479Y1237001D1*
X2563040D1*
X2567794Y1234624D1*
X2570170Y1232248D1*
X2572602Y1227439D1*
Y1222686D1*
X2570170Y1217878D1*
X2565417Y1210748D1*
X2541485Y1186816D1*
X2574979D1*
X2592850Y1225063D2*
Y1227439D1*
X2595226Y1232248D1*
X2597603Y1234624D1*
X2602411Y1237001D1*
X2611973D1*
X2616726Y1234624D1*
X2619103Y1232248D1*
X2621535Y1227439D1*
Y1222686D1*
X2619103Y1217878D1*
X2614350Y1210748D1*
X2590418Y1186816D1*
X2623911D1*
X2653721Y1237001D2*
X2646536Y1234624D1*
X2641727Y1227439D1*
X2639350Y1215501D1*
Y1208316D1*
X2641727Y1196378D1*
X2646536Y1189193D1*
X2653721Y1186816D1*
X2658474D1*
X2665659Y1189193D1*
X2670412Y1196378D1*
X2672844Y1208316D1*
Y1215501D1*
X2670412Y1227439D1*
X2665659Y1234624D1*
X2658474Y1237001D1*
X2653721D1*
X2670412Y1227439D2*
X2641727Y1196378D1*
X2364763Y1342676D2*
X2386263D1*
X2393448Y1345108D1*
X2395880Y1347485D1*
X2398257Y1352238D1*
Y1357046D1*
X2395880Y1361800D1*
X2393448Y1364232D1*
X2386263Y1366608D1*
X2364763D1*
Y1316368D1*
X2381510Y1342676D2*
X2398257Y1316368D1*
X2437628D2*
Y1366553D1*
X2413696Y1333115D1*
X2449566D1*
X2346294Y1237001D2*
X2372547D1*
X2358232Y1217878D1*
X2365417D1*
X2370170Y1215501D1*
X2372547Y1213125D1*
X2374979Y1205940D1*
Y1201186D1*
X2372547Y1194001D1*
X2367794Y1189193D1*
X2360609Y1186816D1*
X2353424D1*
X2346294Y1189193D1*
X2343917Y1191625D1*
X2341485Y1196378D1*
X2395226Y1237001D2*
X2421479D1*
X2407165Y1217878D1*
X2414350D1*
X2419103Y1215501D1*
X2421479Y1213125D1*
X2423911Y1205940D1*
Y1201186D1*
X2421479Y1194001D1*
X2416726Y1189193D1*
X2409541Y1186816D1*
X2402356D1*
X2395226Y1189193D1*
X2392850Y1191625D1*
X2390418Y1196378D1*
X2453721Y1237001D2*
X2446536Y1234624D1*
X2441727Y1227439D1*
X2439350Y1215501D1*
Y1208316D1*
X2441727Y1196378D1*
X2446536Y1189193D1*
X2453721Y1186816D1*
X2458474D1*
X2465659Y1189193D1*
X2470412Y1196378D1*
X2472844Y1208316D1*
Y1215501D1*
X2470412Y1227439D1*
X2465659Y1234624D1*
X2458474Y1237001D1*
X2453721D1*
X2470412Y1227439D2*
X2441727Y1196378D1*
X2175952Y1342676D2*
X2197451D1*
X2204636Y1345108D1*
X2207068Y1347485D1*
X2209445Y1352238D1*
Y1357046D1*
X2207068Y1361800D1*
X2204636Y1364232D1*
X2197451Y1366608D1*
X2175952D1*
Y1316368D1*
X2192698Y1342676D2*
X2209445Y1316368D1*
X2253569Y1366553D2*
X2229693D1*
X2227316Y1345053D1*
X2229693Y1347430D1*
X2236878Y1349861D1*
X2244007D1*
X2251192Y1347430D1*
X2256001Y1342676D1*
X2258378Y1335491D1*
Y1330738D1*
X2256001Y1323553D1*
X2251192Y1318745D1*
X2244007Y1316368D1*
X2236878D1*
X2229693Y1318745D1*
X2227316Y1321177D1*
X2224884Y1325930D1*
X2153917Y1225063D2*
Y1227439D1*
X2156294Y1232248D1*
X2158670Y1234624D1*
X2163479Y1237001D1*
X2173040D1*
X2177794Y1234624D1*
X2180170Y1232248D1*
X2182602Y1227439D1*
Y1222686D1*
X2180170Y1217878D1*
X2175417Y1210748D1*
X2151485Y1186816D1*
X2184979D1*
X2202850Y1225063D2*
Y1227439D1*
X2205226Y1232248D1*
X2207603Y1234624D1*
X2212411Y1237001D1*
X2221973D1*
X2226726Y1234624D1*
X2229103Y1232248D1*
X2231535Y1227439D1*
Y1222686D1*
X2229103Y1217878D1*
X2224350Y1210748D1*
X2200418Y1186816D1*
X2233911D1*
X2263721Y1237001D2*
X2256536Y1234624D1*
X2251727Y1227439D1*
X2249350Y1215501D1*
Y1208316D1*
X2251727Y1196378D1*
X2256536Y1189193D1*
X2263721Y1186816D1*
X2268474D1*
X2275659Y1189193D1*
X2280412Y1196378D1*
X2282844Y1208316D1*
Y1215501D1*
X2280412Y1227439D1*
X2275659Y1234624D1*
X2268474Y1237001D1*
X2263721D1*
X2280412Y1227439D2*
X2251727Y1196378D1*
X1537168Y3222676D2*
X1558667D1*
X1565852Y3225108D1*
X1568284Y3227485D1*
X1570661Y3232238D1*
Y3237046D1*
X1568284Y3241800D1*
X1565852Y3244232D1*
X1558667Y3246608D1*
X1537168D1*
Y3196368D1*
X1553914Y3222676D2*
X1570661Y3196368D1*
X1614785Y3239423D2*
X1612408Y3244176D1*
X1605223Y3246553D1*
X1600470D1*
X1593285Y3244176D1*
X1588477Y3236991D1*
X1586100Y3225053D1*
Y3213115D1*
X1588477Y3203553D1*
X1593285Y3198745D1*
X1600470Y3196368D1*
X1602847D1*
X1609977Y3198745D1*
X1614785Y3203553D1*
X1617162Y3210738D1*
Y3213115D1*
X1614785Y3220300D1*
X1609977Y3225053D1*
X1602847Y3227430D1*
X1600470D1*
X1593285Y3225053D1*
X1588477Y3220300D1*
X1586100Y3213115D1*
X1513917Y3105063D2*
Y3107439D1*
X1516294Y3112248D1*
X1518670Y3114624D1*
X1523479Y3117001D1*
X1533040D1*
X1537794Y3114624D1*
X1540170Y3112248D1*
X1542602Y3107439D1*
Y3102686D1*
X1540170Y3097878D1*
X1535417Y3090748D1*
X1511485Y3066816D1*
X1544979D1*
X1562850Y3105063D2*
Y3107439D1*
X1565226Y3112248D1*
X1567603Y3114624D1*
X1572411Y3117001D1*
X1581973D1*
X1586726Y3114624D1*
X1589103Y3112248D1*
X1591535Y3107439D1*
Y3102686D1*
X1589103Y3097878D1*
X1584350Y3090748D1*
X1560418Y3066816D1*
X1593911D1*
X1623721Y3117001D2*
X1616536Y3114624D1*
X1611727Y3107439D1*
X1609350Y3095501D1*
Y3088316D1*
X1611727Y3076378D1*
X1616536Y3069193D1*
X1623721Y3066816D1*
X1628474D1*
X1635659Y3069193D1*
X1640412Y3076378D1*
X1642844Y3088316D1*
Y3095501D1*
X1640412Y3107439D1*
X1635659Y3114624D1*
X1628474Y3117001D1*
X1623721D1*
X1640412Y3107439D2*
X1611727Y3076378D1*
X1232415Y3512676D2*
X1227662Y3510299D1*
X1222854Y3505491D1*
X1220477Y3500738D1*
Y3491176D1*
X1222854Y3486368D1*
X1227662Y3481615D1*
X1232415Y3479183D1*
X1239600Y3476806D1*
X1251594D1*
X1258723Y3479183D1*
X1263532Y3481615D1*
X1268285Y3486368D1*
X1270717Y3491176D1*
Y3500738D1*
X1268285Y3505491D1*
X1263532Y3510299D1*
X1258724Y3512676D1*
X1237224Y3540053D2*
X1239600Y3535300D1*
X1244409Y3530492D1*
X1251594Y3528115D1*
X1256347D1*
X1263532Y3530492D1*
X1268285Y3535300D1*
X1270717Y3540053D1*
Y3547238D1*
X1268285Y3552047D1*
X1263532Y3556800D1*
X1256347Y3559232D1*
X1251594D1*
X1244409Y3556800D1*
X1239600Y3552047D1*
X1237224Y3547239D1*
Y3540053D1*
Y3574671D2*
X1270717D1*
X1246785D2*
X1239600Y3581856D1*
X1237224Y3586665D1*
Y3593794D1*
X1239600Y3598603D1*
X1246785Y3600980D1*
X1270717D1*
X1220477Y3623604D2*
X1261155D1*
X1268285Y3625980D1*
X1270717Y3630789D1*
Y3635542D1*
X1237224Y3616419D2*
Y3633165D1*
Y3650981D2*
X1270717D1*
X1251594D2*
X1244409Y3653413D1*
X1239600Y3658166D1*
X1237224Y3662975D1*
Y3670160D1*
Y3714284D2*
X1270717D1*
X1244409D2*
X1239600Y3709531D1*
X1237224Y3704722D1*
Y3697593D1*
X1239600Y3692784D1*
X1244409Y3688031D1*
X1251594Y3685599D1*
X1256347D1*
X1263532Y3688031D1*
X1268285Y3692784D1*
X1270717Y3697593D1*
Y3704722D1*
X1268285Y3709531D1*
X1263532Y3714284D1*
X1244409Y3756031D2*
X1239600Y3753655D1*
X1237224Y3746470D1*
Y3739285D1*
X1239600Y3732100D1*
X1244409Y3729723D1*
X1249162Y3732100D1*
X1251594Y3736908D1*
X1253970Y3748846D1*
X1256347Y3753655D1*
X1261155Y3756031D1*
X1263532D1*
X1268285Y3753655D1*
X1270717Y3746470D1*
Y3739285D1*
X1268285Y3732100D1*
X1263532Y3729723D1*
X1220477Y3778656D2*
X1261155D1*
X1268285Y3781032D1*
X1270717Y3785841D1*
Y3790594D1*
X1237224Y3771471D2*
Y3788217D1*
X500410Y1157553D2*
Y1107313D1*
X529095D1*
X575596Y1157553D2*
X544534D1*
Y1107313D1*
X575596D1*
X544534Y1133621D2*
X563658D1*
X622152Y1157553D2*
X591035D1*
Y1107313D1*
Y1133621D2*
X610158D1*
X654338Y1157553D2*
Y1107313D1*
X637591Y1157553D2*
X671084D1*
X1309528Y1133621D2*
X1331028D1*
X1338213Y1136053D1*
X1340645Y1138430D1*
X1343022Y1143183D1*
Y1147991D1*
X1340645Y1152745D1*
X1338213Y1155176D1*
X1331028Y1157553D1*
X1309528D1*
Y1107313D1*
X1326275Y1133621D2*
X1343022Y1107313D1*
X1358461Y1157553D2*
Y1107313D1*
X1409770Y1145615D2*
X1407394Y1150368D1*
X1402585Y1155176D1*
X1397832Y1157553D1*
X1388270D1*
X1383462Y1155176D1*
X1378709Y1150368D1*
X1376277Y1145615D1*
X1373900Y1138430D1*
Y1126436D1*
X1376277Y1119306D1*
X1378709Y1114498D1*
X1383462Y1109745D1*
X1388270Y1107313D1*
X1397832D1*
X1402585Y1109745D1*
X1407394Y1114498D1*
X1409770Y1119306D1*
Y1126436D1*
X1397832D1*
X1425209Y1157553D2*
Y1107313D1*
X1458703Y1157553D2*
Y1107313D1*
X1425209Y1133621D2*
X1458703D1*
X1490889Y1157553D2*
Y1107313D1*
X1474142Y1157553D2*
X1507635D1*
X957369Y1371647D2*
Y1335778D1*
X959746Y1328593D1*
X964554Y1323839D1*
X971739Y1321407D1*
X976492D1*
X983677Y1323839D1*
X988486Y1328593D1*
X990862Y1335778D1*
Y1371647D1*
X1006302Y1345339D2*
X1027857D1*
X1034986Y1347716D1*
X1037418Y1350148D1*
X1039795Y1354901D1*
Y1362086D1*
X1037418Y1366839D1*
X1034986Y1369271D1*
X1027857Y1371647D1*
X1006302D1*
Y1321407D1*
X898875Y927553D2*
Y877313D1*
X915621D1*
X922806Y879745D1*
X927615Y884498D1*
X929991Y889306D1*
X932368Y896436D1*
Y908430D1*
X929991Y915615D1*
X927615Y920368D1*
X922806Y925176D1*
X915621Y927553D1*
X898875D1*
X962177D2*
X957369Y925176D1*
X952616Y920368D1*
X950184Y915615D1*
X947807Y908430D1*
Y896436D1*
X950184Y889306D1*
X952616Y884498D1*
X957369Y879745D1*
X962177Y877313D1*
X971739D1*
X976492Y879745D1*
X981301Y884498D1*
X983677Y889306D1*
X986054Y896436D1*
Y908430D1*
X983677Y915615D1*
X981301Y920368D1*
X976492Y925176D1*
X971739Y927553D1*
X962177D1*
X1001493D2*
X1013487Y877313D1*
X1025425Y927553D1*
X1037363Y877313D1*
X1049356Y927553D1*
X1098289D2*
Y877313D1*
X1064796Y927553D1*
Y877313D1*
X526645Y760368D2*
X521892Y765176D1*
X514707Y767553D1*
X505145D1*
X497960Y765176D1*
X493152Y760368D1*
Y755615D1*
X495583Y750806D1*
X497960Y748430D1*
X502713Y746053D1*
X517083Y741245D1*
X521892Y738868D1*
X524268Y736436D1*
X526645Y731683D1*
Y724498D1*
X521892Y719745D1*
X514707Y717313D1*
X505145D1*
X497960Y719745D1*
X493152Y724498D1*
X573146Y767553D2*
X542084D1*
Y717313D1*
X573146D1*
X542084Y743621D2*
X561207D1*
X588585Y767553D2*
Y717313D1*
X617270D1*
X663770Y767553D2*
X632709D1*
Y717313D1*
X663770D1*
X632709Y743621D2*
X651832D1*
X715080Y755615D2*
X712703Y760368D1*
X707895Y765176D1*
X703141Y767553D1*
X693580D1*
X688771Y765176D1*
X684018Y760368D1*
X681586Y755615D1*
X679210Y748430D1*
Y736436D1*
X681586Y729306D1*
X684018Y724498D1*
X688771Y719745D1*
X693580Y717313D1*
X703141D1*
X707895Y719745D1*
X712703Y724498D1*
X715080Y729306D1*
X747266Y767553D2*
Y717313D1*
X730519Y767553D2*
X764012D1*
X1259237Y743621D2*
X1280736D1*
X1287921Y746053D1*
X1290353Y748430D1*
X1292730Y753183D1*
Y757991D1*
X1290353Y762745D1*
X1287921Y765176D1*
X1280736Y767553D1*
X1259237D1*
Y717313D1*
X1275983Y743621D2*
X1292730Y717313D1*
X1339231Y767553D2*
X1308169D1*
Y717313D1*
X1339231D1*
X1308169Y743621D2*
X1327292D1*
X1388163Y760368D2*
X1383410Y765176D1*
X1376225Y767553D1*
X1366663D1*
X1359478Y765176D1*
X1354670Y760368D1*
Y755615D1*
X1357102Y750806D1*
X1359478Y748430D1*
X1364231Y746053D1*
X1378602Y741245D1*
X1383410Y738868D1*
X1385787Y736436D1*
X1388163Y731683D1*
Y724498D1*
X1383410Y719745D1*
X1376225Y717313D1*
X1366663D1*
X1359478Y719745D1*
X1354670Y724498D1*
X1434664Y767553D2*
X1403602D1*
Y717313D1*
X1434664D1*
X1403602Y743621D2*
X1422726D1*
X1466850Y767553D2*
Y717313D1*
X1450103Y767553D2*
X1483597D1*
X1653325Y1143333D2*
D65*
X1670525D1*
X1676273Y1145279D1*
X1678218Y1147180D1*
X1680119Y1150982D1*
Y1154829D1*
X1678218Y1158632D1*
X1676273Y1160577D1*
X1670525Y1162478D1*
X1653325D1*
Y1122286D1*
X1666722Y1143333D2*
X1680119Y1122286D1*
X1713476Y1156730D2*
X1709673Y1160577D1*
X1703925Y1162478D1*
X1696276D1*
X1690528Y1160577D1*
X1686681Y1156730D1*
Y1152928D1*
X1688627Y1149081D1*
X1690528Y1147180D1*
X1694330Y1145279D1*
X1705826Y1141432D1*
X1709673Y1139531D1*
X1711574Y1137585D1*
X1713476Y1133783D1*
Y1128034D1*
X1709673Y1124232D1*
X1703925Y1122286D1*
X1696276D1*
X1690528Y1124232D1*
X1686681Y1128034D1*
X1733435Y1162478D2*
Y1122286D1*
X1720037Y1162478D2*
X1746832D1*
X1795750Y1162434D2*
X1816753D1*
X1805301Y1147136D1*
X1811049D1*
X1814851Y1145234D1*
X1816753Y1143333D1*
X1818698Y1137585D1*
Y1133783D1*
X1816753Y1128034D1*
X1812950Y1124188D1*
X1807202Y1122286D1*
X1801454D1*
X1795750Y1124188D1*
X1793849Y1126133D1*
X1791903Y1129936D1*
X1825260Y1149081D2*
X1836756Y1122286D1*
X1848208Y1149081D1*
X1924943Y1162434D2*
X1905842D1*
X1903941Y1145234D1*
X1905842Y1147136D1*
X1911590Y1149081D1*
X1917294D1*
X1923042Y1147136D1*
X1926889Y1143333D1*
X1928790Y1137585D1*
Y1133783D1*
X1926889Y1128034D1*
X1923042Y1124188D1*
X1917294Y1122286D1*
X1911590D1*
X1905842Y1124188D1*
X1903941Y1126133D1*
X1901995Y1129936D1*
X1935352Y1149081D2*
X1946848Y1122286D1*
X1958300Y1149081D1*
X2057708Y1152928D2*
X2055806Y1156730D1*
X2051960Y1160577D1*
X2048157Y1162478D1*
X2040508D1*
X2036661Y1160577D1*
X2032859Y1156730D1*
X2030913Y1152928D1*
X2029012Y1147180D1*
Y1137585D1*
X2030913Y1131881D1*
X2032859Y1128034D1*
X2036661Y1124232D1*
X2040508Y1122286D1*
X2048157D1*
X2051960Y1124232D1*
X2055806Y1128034D1*
X2057708Y1131881D1*
Y1137585D1*
X2048157D1*
X2064269Y1149081D2*
Y1122286D1*
Y1141432D2*
X2070017Y1147180D1*
X2073864Y1149081D1*
X2079568D1*
X2083415Y1147180D1*
X2085316Y1141432D1*
Y1122286D1*
X2114826Y1162478D2*
Y1122286D1*
Y1143333D2*
X2111023Y1147180D1*
X2107176Y1149081D1*
X2101428D1*
X2097626Y1147180D1*
X2093779Y1143333D1*
X2091878Y1137585D1*
Y1133783D1*
X2093779Y1128034D1*
X2097626Y1124232D1*
X2101428Y1122286D1*
X2107176D1*
X2111023Y1124232D1*
X2114826Y1128034D1*
X2187028Y1162478D2*
X2202327Y1122286D1*
X2217626Y1162478D1*
X2224187D2*
X2226088Y1160577D1*
X2228034Y1162478D1*
X2226088Y1164424D1*
X2224187Y1162478D1*
X2226088Y1149081D2*
Y1122286D1*
X2234596Y1149081D2*
Y1122286D1*
Y1141432D2*
X2240344Y1147180D1*
X2244190Y1149081D1*
X2249894D1*
X2253741Y1147180D1*
X2255642Y1141432D1*
Y1122286D1*
X2584643Y990550D2*
X2569301Y1030742D1*
X2554002Y990550D1*
X2559750Y1003947D2*
X2578895D1*
X2591205Y1017344D2*
Y990550D1*
Y1009695D2*
X2596953Y1015443D1*
X2600800Y1017344D1*
X2606504D1*
X2610350Y1015443D1*
X2612252Y1009695D1*
Y990550D1*
X2641761Y1017344D2*
Y990550D1*
Y1011596D2*
X2637959Y1015443D1*
X2634112Y1017344D1*
X2628408D1*
X2624561Y1015443D1*
X2620759Y1011596D1*
X2618813Y1005848D1*
Y1002046D1*
X2620759Y996298D1*
X2624561Y992495D1*
X2628408Y990550D1*
X2634112D1*
X2637959Y992495D1*
X2641761Y996298D1*
X2648323Y1030742D2*
Y990550D1*
X2664435Y1017344D2*
X2660633Y1015443D1*
X2656786Y1011596D1*
X2654885Y1005848D1*
Y1002046D1*
X2656786Y996298D1*
X2660633Y992495D1*
X2664435Y990550D1*
X2670183D1*
X2674030Y992495D1*
X2677833Y996298D1*
X2679778Y1002046D1*
Y1005848D1*
X2677833Y1011596D1*
X2674030Y1015443D1*
X2670183Y1017344D1*
X2664435D1*
X2709288Y1015443D2*
Y984802D1*
X2707386Y979098D1*
X2705485Y977152D1*
X2701638Y975251D1*
X2695890D1*
X2692088Y977152D1*
X2709288Y1009695D2*
X2705485Y1013498D1*
X2701638Y1015443D1*
X2695890D1*
X2692088Y1013498D1*
X2688241Y1009695D1*
X2686340Y1003947D1*
Y1000100D1*
X2688241Y994396D1*
X2692088Y990550D1*
X2695890Y988648D1*
X2701638D1*
X2705485Y990550D1*
X2709288Y994396D1*
X2748940Y1030742D2*
Y990550D1*
X2755502Y1017344D2*
Y990550D1*
Y1009695D2*
X2761250Y1015443D1*
X2765097Y1017344D1*
X2770801D1*
X2774647Y1015443D1*
X2776549Y1009695D1*
Y990550D1*
X2420217Y1162434D2*
X2414469Y1160533D1*
X2410622Y1154785D1*
X2408721Y1145234D1*
Y1139486D1*
X2410622Y1129936D1*
X2414469Y1124188D1*
X2420217Y1122286D1*
X2424019D1*
X2429767Y1124188D1*
X2433570Y1129936D1*
X2435515Y1139486D1*
Y1145234D1*
X2433570Y1154785D1*
X2429767Y1160533D1*
X2424019Y1162434D1*
X2420217D1*
X2433570Y1154785D2*
X2410622Y1129936D1*
X2508759Y1154785D2*
X2512605Y1156730D1*
X2518353Y1162434D1*
Y1122286D1*
X2610742Y1152884D2*
Y1154785D1*
X2612643Y1158632D1*
X2614545Y1160533D1*
X2618391Y1162434D1*
X2626041D1*
X2629843Y1160533D1*
X2631744Y1158632D1*
X2633690Y1154785D1*
Y1150982D1*
X2631744Y1147136D1*
X2627942Y1141432D1*
X2608797Y1122286D1*
X2635591D1*
X2712346Y1162434D2*
X2733349D1*
X2721897Y1147136D1*
X2727645D1*
X2731447Y1145234D1*
X2733349Y1143333D1*
X2735294Y1137585D1*
Y1133783D1*
X2733349Y1128034D1*
X2729546Y1124188D1*
X2723798Y1122286D1*
X2718050D1*
X2712346Y1124188D1*
X2710445Y1126133D1*
X2708499Y1129936D1*
X2827850Y1122286D2*
Y1162434D1*
X2808705Y1135684D1*
X2837401D1*
X2931691Y1162434D2*
X2912590D1*
X2910689Y1145234D1*
X2912590Y1147136D1*
X2918338Y1149081D1*
X2924042D1*
X2929790Y1147136D1*
X2933636Y1143333D1*
X2935538Y1137585D1*
Y1133783D1*
X2933636Y1128034D1*
X2929790Y1124188D1*
X2924042Y1122286D1*
X2918338D1*
X2912590Y1124188D1*
X2910689Y1126133D1*
X2908743Y1129936D1*
X1364867Y2888221D2*
X1380210Y2848029D1*
X1395508Y2888221D1*
X1389760Y2874824D2*
X1370615D1*
X1358305Y2867174D2*
X1341105D1*
X1335357Y2865229D1*
X1333412Y2863328D1*
X1331510Y2859525D1*
Y2855678D1*
X1333412Y2851876D1*
X1335357Y2849930D1*
X1341105Y2848029D1*
X1358305D1*
Y2888221D1*
X1344908Y2867174D2*
X1331511Y2888221D1*
X1324949Y2872922D2*
X1302001D1*
Y2869076D1*
X1303902Y2865229D1*
X1305803Y2863328D1*
X1309650Y2861426D1*
X1315398D1*
X1319201Y2863328D1*
X1323048Y2867174D1*
X1324949Y2872922D1*
Y2876725D1*
X1323048Y2882473D1*
X1319201Y2886276D1*
X1315398Y2888221D1*
X1309650D1*
X1305803Y2886276D1*
X1302001Y2882473D1*
X1280141Y2848029D2*
X1283943D1*
X1287790Y2849930D1*
X1289691Y2855678D1*
Y2888221D1*
X1295439Y2861426D2*
X1282042D1*
X1497398Y2863328D2*
Y2893969D1*
X1499300Y2899673D1*
X1501201Y2901618D1*
X1505048Y2903520D1*
X1510796D1*
X1514598Y2901618D1*
X1497398Y2869076D2*
X1501201Y2865273D1*
X1505048Y2863328D1*
X1510796D1*
X1514598Y2865273D1*
X1518445Y2869076D1*
X1520346Y2874824D1*
Y2878670D1*
X1518445Y2884374D1*
X1514598Y2888221D1*
X1510796Y2890122D1*
X1505048D1*
X1501201Y2888221D1*
X1497398Y2884374D1*
X1490837Y2861426D2*
Y2888221D1*
Y2869076D2*
X1485089Y2863328D1*
X1481242Y2861426D1*
X1475538D1*
X1471691Y2863328D1*
X1469790Y2869076D1*
Y2888221D1*
X1440280Y2848029D2*
X1440281Y2888221D1*
Y2867174D2*
X1444083Y2863328D1*
X1447930Y2861426D1*
X1453678D1*
X1457480Y2863328D1*
X1461327Y2867174D1*
X1463228Y2872922D1*
Y2876725D1*
X1461327Y2882473D1*
X1457480Y2886276D1*
X1453678Y2888221D1*
X1447930D1*
X1444083Y2886276D1*
X1440281Y2882473D1*
X1605303Y2855723D2*
X1601456Y2853777D1*
X1595708Y2848073D1*
Y2888221D1*
X1585300Y2848073D2*
X1564298D1*
X1575749Y2863372D1*
X1570001D1*
X1566199Y2865273D1*
X1564298Y2867174D1*
X1562352Y2872922D1*
Y2876725D1*
X1564298Y2882473D1*
X1568100Y2886320D1*
X1573848Y2888221D1*
X1579596D1*
X1585300Y2886320D1*
X1587201Y2884374D1*
X1589147Y2880572D1*
X1705341Y2855723D2*
X1701494Y2853777D1*
X1695746Y2848073D1*
Y2888221D1*
X1687239Y2857624D2*
Y2855723D1*
X1685338Y2851876D1*
X1683437Y2849975D1*
X1679590Y2848073D1*
X1671941D1*
X1668138Y2849975D1*
X1666237Y2851876D1*
X1664291Y2855723D1*
Y2859525D1*
X1666237Y2863372D1*
X1670039Y2869076D1*
X1689185Y2888221D1*
X1662390D1*
X1805547Y2855723D2*
X1801700Y2853777D1*
X1795952Y2848073D1*
Y2888221D1*
X1789390Y2855723D2*
X1785543Y2853777D1*
X1779795Y2848073D1*
X1779796Y2888221D1*
X1905585Y2855723D2*
X1901738Y2853777D1*
X1895990Y2848073D1*
Y2888221D1*
X1877932Y2848073D2*
X1883680Y2849975D1*
X1887527Y2855723D1*
X1889428Y2865273D1*
Y2871021D1*
X1887527Y2880572D1*
X1883680Y2886320D1*
X1877932Y2888221D1*
X1874130D1*
X1868382Y2886320D1*
X1864579Y2880572D1*
X1862634Y2871021D1*
Y2865273D1*
X1864579Y2855723D1*
X1868382Y2849975D1*
X1874130Y2848073D1*
X1877932D1*
X1864579Y2855723D2*
X1887527Y2880572D1*
X1960621Y2861426D2*
X1962567Y2867174D1*
X1966369Y2871021D1*
X1972117Y2872922D1*
X1974019D1*
X1979767Y2871021D1*
X1983569Y2867174D1*
X1985515Y2861426D1*
Y2859525D1*
X1983569Y2853777D1*
X1979767Y2849975D1*
X1974019Y2848073D1*
X1972117D1*
X1966369Y2849975D1*
X1962567Y2853777D1*
X1960621Y2861426D1*
Y2871021D1*
X1962567Y2880572D1*
X1966369Y2886320D1*
X1972117Y2888221D1*
X1975920D1*
X1981668Y2886320D1*
X1983569Y2882473D1*
X2076002Y2848073D2*
X2081706Y2849975D1*
X2083651Y2853777D1*
Y2857624D1*
X2081706Y2861426D1*
X2077903Y2863372D1*
X2070254Y2865273D1*
X2064506Y2867174D1*
X2060703Y2871021D1*
X2058802Y2874824D1*
Y2880572D1*
X2060703Y2884374D1*
X2062605Y2886320D1*
X2068353Y2888221D1*
X2076002D1*
X2081706Y2886320D1*
X2083651Y2884374D1*
X2085553Y2880572D1*
Y2874824D1*
X2083651Y2871021D1*
X2079805Y2867174D1*
X2074101Y2865273D1*
X2066451Y2863372D1*
X2062605Y2861426D1*
X2060703Y2857624D1*
Y2853777D1*
X2062605Y2849975D1*
X2068353Y2848073D1*
X2076002D1*
X2237428Y2888221D2*
X2218283Y2848073D1*
X2245077D1*
X2322335Y2853777D2*
X2324236Y2849975D1*
X2329984Y2848073D1*
X2333787D1*
X2339535Y2849975D1*
X2343381Y2855723D1*
X2345283Y2865273D1*
Y2874824D1*
X2343381Y2882473D1*
X2339535Y2886320D1*
X2333787Y2888221D1*
X2331885D1*
X2326182Y2886320D1*
X2322335Y2882473D1*
X2320434Y2876725D1*
Y2874824D1*
X2322335Y2869076D1*
X2326182Y2865273D1*
X2331885Y2863372D1*
X2333787D1*
X2339535Y2865273D1*
X2343381Y2869076D1*
X2345283Y2874824D1*
X2422540Y2848073D2*
X2441642D1*
X2443543Y2865273D1*
X2441642Y2863372D1*
X2435894Y2861426D1*
X2430190D1*
X2424442Y2863372D1*
X2420595Y2867174D1*
X2418694Y2872923D1*
Y2876725D1*
X2420595Y2882473D1*
X2424442Y2886320D1*
X2430190Y2888221D1*
X2435894D1*
X2441642Y2886320D1*
X2443543Y2884374D1*
X2445488Y2880572D1*
X2526213Y2888221D2*
Y2848073D1*
X2545359Y2874824D1*
X2516663D1*
X2641718Y2848073D2*
X2620715D1*
X2632167Y2863372D1*
X2626419D1*
X2622616Y2865273D1*
X2620715Y2867174D1*
X2618770Y2872923D1*
Y2876725D1*
X2620715Y2882473D1*
X2624518Y2886320D1*
X2630266Y2888221D1*
X2636014D1*
X2641718Y2886320D1*
X2643619Y2884374D1*
X2645564Y2880572D1*
X2743657Y2857624D2*
Y2855723D1*
X2741756Y2851876D1*
X2739854Y2849975D1*
X2736008Y2848073D1*
X2728358D1*
X2724556Y2849975D1*
X2722654Y2851876D1*
X2720709Y2855723D1*
Y2859525D1*
X2722654Y2863372D1*
X2726457Y2869076D1*
X2745602Y2888221D1*
X2718808D1*
X2845305Y2855723D2*
X2841458Y2853777D1*
X2835710Y2848073D1*
Y2888221D1*
X2933847Y2848073D2*
X2939595Y2849975D1*
X2943442Y2855723D1*
X2945343Y2865273D1*
Y2871021D1*
X2943442Y2880572D1*
X2939595Y2886320D1*
X2933847Y2888221D1*
X2930045D1*
X2924297Y2886320D1*
X2920494Y2880572D1*
X2918549Y2871021D1*
Y2865273D1*
X2920494Y2855723D1*
X2924297Y2849975D1*
X2930045Y2848073D1*
X2933847D1*
X2920494Y2855723D2*
X2943442Y2880572D1*
X1668741Y3062471D2*
Y3022279D1*
X1682138D1*
X1687886Y3024224D1*
X1691733Y3028027D1*
X1693634Y3031874D1*
X1695536Y3037577D1*
Y3047172D1*
X1693634Y3052920D1*
X1691733Y3056723D1*
X1687886Y3060570D1*
X1682138Y3062471D1*
X1668741D1*
X1702097D2*
X1703999Y3060570D1*
X1705944Y3062471D1*
X1703999Y3064416D1*
X1702097Y3062471D1*
X1703999Y3049074D2*
Y3022279D1*
X1735454Y3047172D2*
Y3016531D1*
X1733552Y3010827D1*
X1731651Y3008882D1*
X1727804Y3006980D1*
X1722056D1*
X1718254Y3008882D1*
X1735454Y3041424D2*
X1731651Y3045227D1*
X1727804Y3047172D1*
X1722056D1*
X1718254Y3045227D1*
X1714407Y3041424D1*
X1712506Y3035676D1*
Y3031829D1*
X1714407Y3026126D1*
X1718254Y3022279D1*
X1722056Y3020378D1*
X1727804D1*
X1731651Y3022279D1*
X1735454Y3026126D1*
X1742015Y3062471D2*
X1743917Y3060570D1*
X1745862Y3062471D1*
X1743917Y3064416D1*
X1742015Y3062471D1*
X1743917Y3049074D2*
Y3022279D1*
X1758172Y3062471D2*
Y3029928D1*
X1760073Y3024224D1*
X1763920Y3022279D1*
X1767722D1*
X1752424Y3049074D2*
X1765821D1*
X1797232D2*
Y3022279D1*
Y3043326D2*
X1793429Y3047172D1*
X1789583Y3049074D1*
X1783879D1*
X1780032Y3047172D1*
X1776230Y3043326D1*
X1774284Y3037577D1*
Y3033775D1*
X1776230Y3028027D1*
X1780032Y3024224D1*
X1783879Y3022279D1*
X1789583D1*
X1793429Y3024224D1*
X1797232Y3028027D1*
X1803794Y3062471D2*
Y3022279D1*
X1843446Y3062471D2*
Y3022279D1*
X1850008D2*
X1876803Y3062427D1*
X1894860Y3062471D2*
X1891014Y3060570D1*
X1887211Y3056723D1*
X1885266Y3052920D1*
X1883364Y3047172D1*
Y3037577D1*
X1885266Y3031874D1*
X1887211Y3028027D1*
X1891014Y3024224D1*
X1894860Y3022279D1*
X1902510D1*
X1906312Y3024224D1*
X1910159Y3028027D1*
X1912060Y3031874D1*
X1913962Y3037577D1*
Y3047172D1*
X1912060Y3052920D1*
X1910159Y3056723D1*
X1906312Y3060570D1*
X1902510Y3062471D1*
X1894860D1*
X2428494D2*
Y3022279D1*
X2441891D1*
X2447639Y3024224D1*
X2451486Y3028027D1*
X2453387Y3031874D1*
X2455288Y3037577D1*
Y3047172D1*
X2453387Y3052920D1*
X2451486Y3056723D1*
X2447639Y3060570D1*
X2441891Y3062471D1*
X2428494D1*
X2461850D2*
X2463751Y3060570D1*
X2465697Y3062471D1*
X2463751Y3064416D1*
X2461850Y3062471D1*
X2463751Y3049074D2*
Y3022279D1*
X2495206Y3047172D2*
Y3016531D1*
X2493305Y3010827D1*
X2491404Y3008882D1*
X2487557Y3006980D1*
X2481809D1*
X2478006Y3008882D1*
X2495206Y3041424D2*
X2491404Y3045227D1*
X2487557Y3047172D1*
X2481809D1*
X2478006Y3045227D1*
X2474160Y3041424D1*
X2472258Y3035676D1*
Y3031829D1*
X2474160Y3026126D1*
X2478006Y3022279D1*
X2481809Y3020378D1*
X2487557D1*
X2491404Y3022279D1*
X2495206Y3026126D1*
X2501768Y3062471D2*
X2503669Y3060570D1*
X2505615Y3062471D1*
X2503669Y3064416D1*
X2501768Y3062471D1*
X2503669Y3049074D2*
Y3022279D1*
X2517924Y3062471D2*
Y3029928D1*
X2519826Y3024224D1*
X2523672Y3022279D1*
X2527475D1*
X2512176Y3049074D2*
X2525574D1*
X2556985D2*
Y3022279D1*
Y3043326D2*
X2553182Y3047172D1*
X2549335Y3049074D1*
X2543631D1*
X2539785Y3047172D1*
X2535982Y3043326D1*
X2534037Y3037577D1*
Y3033775D1*
X2535982Y3028027D1*
X2539785Y3024224D1*
X2543631Y3022279D1*
X2549335D1*
X2553182Y3024224D1*
X2556985Y3028027D1*
X2563546Y3062471D2*
Y3022279D1*
X2603199Y3062471D2*
Y3022279D1*
X2609761D2*
X2636555Y3062427D1*
X2654613Y3062471D2*
X2650766Y3060570D1*
X2646964Y3056723D1*
X2645018Y3052920D1*
X2643117Y3047172D1*
Y3037577D1*
X2645018Y3031874D1*
X2646964Y3028027D1*
X2650766Y3024224D1*
X2654613Y3022279D1*
X2662262D1*
X2666065Y3024224D1*
X2669912Y3028027D1*
X2671813Y3031874D1*
X2673714Y3037577D1*
Y3047172D1*
X2671813Y3052920D1*
X2669912Y3056723D1*
X2666065Y3060570D1*
X2662262Y3062471D1*
X2654613D1*
M02*
