M48
INCH
T01C0.0191
T02C0.0315
T03C0.032
T04C0.0354
T05C0.0394
T06C0.1102
T07C0.126
%
T01
X+022833Y+009892
X+024237Y+009892
X+024762Y+007687
X+024627Y+007087
X+023375Y+006287
X+022013Y+008437
X+018306Y+009497
X+018306Y+006766
X+012830Y+008209
X+027132Y+007687
X+027775Y+006287
X+028237Y+011937
X+030132Y+018278
X+023885Y+021591
X+022340Y+019247
X+022737Y+028571
X+024132Y+028831
X+023237Y+030172
X+022737Y+030567
X+023737Y+031664
X+024393Y+031086
X+025393Y+030691
X+020727Y+030172
X+019937Y+030962
X+018337Y+030951
X+017942Y+031529
X+015787Y+033019
X+017547Y+034650
X+013437Y+036337
X+018637Y+028902
X+019735Y+028571
X+017853Y+027657
X+027382Y+035985
T02
X+021337Y+004854
X+020550Y+004854
X+019762Y+004854
X+018975Y+004854
X+018975Y+008437
X+019762Y+008437
X+020550Y+008437
X+021337Y+008437
X+023375Y+008437
X+024162Y+008437
X+024950Y+008437
X+025737Y+008437
X+027775Y+008437
X+028562Y+008437
X+029350Y+008437
X+030137Y+008437
X+030137Y+004854
X+029350Y+004854
X+028562Y+004854
X+027775Y+004854
X+025737Y+004854
X+024950Y+004854
X+024162Y+004854
X+023375Y+004854
T03
X+019937Y+033937
X+020937Y+033937
X+021937Y+033937
X+022937Y+033937
X+023937Y+033937
X+024937Y+033937
X+025937Y+033937
X+026937Y+033937
X+027937Y+033937
X+028937Y+033937
X+029937Y+033937
X+030937Y+033937
X+031937Y+033937
X+032937Y+033937
X+032937Y+036937
X+031937Y+036937
X+030937Y+036937
X+029937Y+036937
X+028937Y+036937
X+027937Y+036937
X+026937Y+036937
X+025937Y+036937
X+024937Y+036937
X+023937Y+036937
X+022937Y+036937
X+021937Y+036937
X+020937Y+036937
X+019937Y+036937
T04
X+013437Y+031337
X+012437Y+031337
X+016537Y+034437
X+016537Y+035437
X+016537Y+036437
T05
X+009837Y+029737
X+009837Y+030721
X+006737Y+030721
X+006737Y+029737
X+006340Y+027042
X+007340Y+027042
X+008340Y+027042
X+009340Y+027042
X+010340Y+027042
X+011340Y+027042
X+012340Y+027042
X+013340Y+027042
X+014340Y+027042
X+015340Y+027042
X+016340Y+027042
X+017340Y+027042
X+018340Y+027042
X+019340Y+027042
X+020340Y+027042
X+021340Y+027042
X+022340Y+027042
X+023340Y+027042
X+023237Y+029537
X+024237Y+029537
X+025237Y+029537
X+026237Y+029537
X+027237Y+029537
X+028237Y+029537
X+029237Y+029537
X+022237Y+029537
X+020637Y+029537
X+019637Y+029537
X+018637Y+029537
X+017637Y+029537
X+016637Y+029537
X+015637Y+029537
X+014637Y+029537
X+013637Y+029537
X+012165Y+012650
X+012165Y+010878
X+013706Y+010509
X+013706Y+008737
X+012165Y+008209
X+012165Y+006437
X+013335Y+006609
X+013335Y+004837
X+015894Y+004837
X+015894Y+006609
X+016265Y+008737
X+016265Y+010509
X+017237Y+010537
X+018237Y+010537
X+019237Y+010537
X+020237Y+010537
X+021237Y+010537
X+022237Y+010537
X+024237Y+010537
X+025237Y+010537
X+026237Y+010537
X+027237Y+010537
X+028237Y+010537
X+029237Y+010537
X+009606Y+010878
X+008037Y+010509
X+008037Y+008737
X+009606Y+008209
X+009606Y+006437
X+008465Y+006609
X+008465Y+004837
X+005906Y+004837
X+005906Y+006609
X+005478Y+008737
X+005478Y+010509
X+009606Y+012650
T06
X+006676Y+035737
X+008015Y+033847
T07
X+009137Y+035737
T00
M30
