G04 DipTrace 3.3.1.3*
G04 Top.gbr*
%MOIN*%
G04 #@! TF.FileFunction,Copper,L1,Top*
G04 #@! TF.Part,Single*
%AMOUTLINE0*
4,1,20,
-0.02608,0.026058,
-0.024514,0.034979,
-0.019993,0.042827,
-0.013059,0.048655,
-0.004551,0.05176,
0.004507,0.051768,
0.01302,0.048677,
0.019963,0.042861,
0.0245,0.035021,
0.02608,0.026102,
0.02608,-0.026058,
0.024514,-0.034979,
0.019993,-0.042827,
0.013059,-0.048655,
0.004551,-0.05176,
-0.004507,-0.051768,
-0.01302,-0.048677,
-0.019963,-0.042861,
-0.0245,-0.035021,
-0.02608,-0.026102,
-0.02608,0.026058,
0*%
%AMOUTLINE3*
4,1,8,
0.030488,-0.012629,
0.012629,-0.030488,
-0.012629,-0.030488,
-0.030488,-0.012629,
-0.030488,0.012629,
-0.012629,0.030488,
0.012629,0.030488,
0.030488,0.012629,
0.030488,-0.012629,
0*%
G04 #@! TA.AperFunction,Conductor*
%ADD13C,0.012992*%
G04 #@! TA.AperFunction,ViaPad*
%ADD14C,0.04*%
G04 #@! TA.AperFunction,Conductor*
%ADD15C,0.03937*%
G04 #@! TA.AperFunction,ComponentPad*
%ADD16R,0.055118X0.055118*%
%ADD17C,0.055118*%
%ADD18R,0.062992X0.062992*%
%ADD19C,0.062992*%
%ADD20C,0.062992*%
%ADD21R,0.043307X0.03937*%
G04 #@! TA.AperFunction,ComponentPad*
%ADD25C,0.07*%
%ADD26R,0.066929X0.066929*%
%ADD27C,0.066929*%
%ADD29C,0.205354*%
%ADD30C,0.179685*%
%ADD65OUTLINE0*%
%ADD68OUTLINE3*%
%FSLAX26Y26*%
G04*
G70*
G90*
G75*
G01*
G04 Top*
%LPD*%
X2423700Y989212D2*
D13*
X2283322D1*
X2337480Y485432D2*
X2283425Y539487D1*
X2030274D1*
X1976220Y485432D1*
X1897480D2*
Y650641D1*
X1871496Y676625D1*
X1830562D1*
Y949724D2*
X2497716D1*
X2523700Y975708D1*
Y1053700D1*
X2623700D2*
Y949723D1*
X2597716Y923739D1*
X2134999D1*
X2054960Y843700D1*
X2723700Y1053700D2*
Y923739D1*
X2697716Y897755D1*
X2578621D1*
X2187755D1*
X2133700Y843700D1*
X2573700D2*
X2578621Y848621D1*
Y897755D1*
X2476220Y768704D2*
X2713165D1*
X2388503Y2159113D2*
Y2739685D1*
X2362519Y2765669D1*
X1785259D1*
X1863700Y2890216D2*
X1813676D1*
Y3003677D1*
X1731586Y3085767D1*
Y3179881D1*
X1757570Y3205865D1*
X2987181D1*
X3013165Y3179881D1*
Y1827842D1*
X2893700Y3393700D2*
D14*
Y3301932D1*
X1578700D1*
X2573700Y485432D2*
Y602716D1*
X2599684Y628700D1*
X2777480D1*
X983700Y2973700D2*
X812130D1*
X713705Y3072125D1*
X673700D1*
X1897480Y843700D2*
X1785566D1*
X1755566Y873700D1*
X1626535D1*
X846535Y483700D2*
X590629D1*
X803700Y873700D2*
X547794D1*
X2337480Y843700D2*
X2201263D1*
X2573700Y602716D2*
X2547716Y628700D1*
X2337480D1*
X960629Y1087794D2*
X1034094D1*
X1216535D1*
X960629Y643700D2*
X1034094D1*
X1216535D1*
X1578700Y3301932D2*
X1303700D1*
X1243700Y3241932D1*
Y3133700D1*
X2777480Y628700D2*
X2953700D1*
X3013700Y568700D1*
Y485432D1*
X1626535Y873700D2*
X1444094D1*
X1370629D1*
X3193700Y3693700D2*
X3189193D1*
Y3601932D1*
X3293700D1*
Y3693700D1*
X590629Y660865D2*
D13*
X846535D1*
X2413165Y2883109D2*
X2473676D1*
Y3003554D1*
X2539271Y3069149D1*
X1626535Y1050865D2*
X1370629D1*
X1282991Y820865D2*
Y1084699D1*
X1308976Y1110684D1*
X2655790D1*
X2681775Y1136669D1*
Y2843622D1*
X2655791Y2869606D1*
X2599660D1*
X2573676Y2895590D1*
Y2988274D1*
X2578759Y2993357D1*
Y3108637D1*
X2439271D1*
X1216535Y820865D2*
X960629D1*
Y1264960D2*
X1216535D1*
X803700Y1050865D2*
X547794D1*
Y3764956D1*
X573778Y3790940D1*
X2267716D1*
X2293700Y3764956D1*
Y3693700D1*
X2373676Y3166377D2*
Y2843621D1*
X2614646D1*
X2640629Y2817638D1*
Y1273700D1*
X1833661Y3095133D2*
X1872125Y3056669D1*
X2113676D1*
Y2817638D1*
X2139661Y2791653D1*
X2414645D1*
X2440629Y2765669D1*
Y1273700D1*
X1993700Y3096157D2*
X2113676D1*
X2139661Y3070172D1*
Y2843621D1*
X2165645Y2817637D1*
X2455791D1*
X2481775Y2791653D1*
Y1240605D1*
X2455791Y1214621D1*
X2250629D1*
Y1273700D1*
X2072676Y3017180D2*
X2013676D1*
Y2817637D1*
X1760000D1*
X1734015Y2791652D1*
Y2704172D1*
X2273676Y3056669D2*
Y2857125D1*
X1973503D2*
X1959999Y2843621D1*
X1273464D1*
X1134015Y2704172D1*
X1754684Y3464956D2*
X2593700D1*
Y3393700D1*
X2693700D2*
Y3478460D1*
X2667716Y3504444D1*
X1715196D1*
Y3374412D1*
X1689212Y3348428D1*
X1153330D1*
X1060342Y3255440D1*
X641692D1*
X615708Y3229456D1*
Y2915708D1*
X641692Y2889724D1*
X748463D1*
X934015Y2704172D1*
X2323700Y3017180D2*
X2320629Y3020251D1*
Y3113700D1*
X2334015Y2704172D2*
Y2227520D1*
X2183700Y2077205D1*
Y1273700D1*
X2234015Y1924672D2*
X2373700Y1784987D1*
Y1273700D1*
X2134015Y2704172D2*
Y1214621D1*
X2159999Y1188637D1*
X2547715D1*
X2573700Y1214622D1*
Y1273700D1*
X1794172Y3152873D2*
X2253700D1*
Y3113700D1*
X1589369Y660865D2*
X1333464D1*
X2923700Y1053700D2*
Y1110685D1*
X2943700Y1130685D1*
Y1273700D1*
X2823700Y1193700D2*
X2763700Y1253700D1*
Y1273700D1*
Y1397184D1*
X3193700Y1827184D1*
Y3393700D1*
X1976220Y843700D2*
D14*
Y768704D1*
X2036220Y708704D1*
X2436220D1*
X2416220Y728704D1*
Y843700D1*
X2436220Y708704D2*
X2462720D1*
X913700Y3573700D2*
X1343700D1*
Y3633700D1*
Y3133700D2*
Y3024188D1*
X1104480D1*
X1056543Y3072125D1*
X983700D1*
X3010629Y1273700D2*
D15*
Y1333070D1*
X2830629D1*
Y1273700D1*
X2856220Y843700D2*
Y883384D1*
X3010629Y1037793D1*
Y1273700D1*
X2462720Y708704D2*
D14*
X2796220D1*
X2856220Y768704D1*
Y843700D1*
X2738208Y3598464D2*
X2993700D1*
Y3693700D1*
X1653700Y3643700D2*
X1739074D1*
X1784310Y3598464D1*
X2738208D1*
X1343700Y3633700D2*
X1353700Y3643700D1*
X1653700D1*
X2283322Y989212D3*
X2423700D3*
X1830562Y676625D3*
Y949724D3*
X2713165Y768704D3*
X2476220D3*
X1785259Y2765669D3*
X2388503Y2159113D3*
X3013165Y1827842D3*
X1863700Y2890216D3*
X1578700Y3301932D3*
X2337480Y628700D3*
X2201263Y843700D3*
X2777480Y628700D3*
X2539271Y3069149D3*
X2413165Y2883109D3*
X2439271Y3108637D3*
X1282991Y820865D3*
X2373676Y3166377D3*
X1833661Y3095133D3*
X1993700Y3096157D3*
X2072676Y3017180D3*
X1973503Y2857125D3*
X2273676D3*
Y3056669D3*
X1754684Y3464956D3*
X2323700Y3017180D3*
X2234015Y1924672D3*
X1794172Y3152873D3*
X2823700Y1193700D3*
X2462720Y708704D3*
X2738208Y3598464D3*
X1343700Y3633700D3*
D16*
X2133700Y485432D3*
D17*
X2054960D3*
X1976220D3*
X1897480D3*
D16*
Y843700D3*
D17*
X1976220D3*
X2054960D3*
X2133700D3*
D18*
X1343700Y3133700D3*
D19*
X1243700D3*
D16*
X2573700Y485432D3*
D17*
X2494960D3*
X2416220D3*
X2337480D3*
D16*
Y843700D3*
D17*
X2416220D3*
X2494960D3*
X2573700D3*
D16*
X3013700Y485432D3*
D17*
X2934960D3*
X2856220D3*
X2777480D3*
D16*
Y843700D3*
D17*
X2856220D3*
X2934960D3*
X3013700D3*
D18*
X983700Y2973700D3*
D20*
Y3072125D3*
D18*
X673700Y2973700D3*
D20*
Y3072125D3*
D21*
X2943700Y1273700D3*
X3010629D3*
X2763700D3*
X2830629D3*
X2573700D3*
X2640629D3*
X2373700D3*
X2440629D3*
X2183700D3*
X2250629D3*
X2253700Y3113700D3*
X2320629D3*
D65*
X1993700Y3393700D3*
X2093700D3*
X2193700D3*
X2293700D3*
X2393700D3*
X2493700D3*
X2593700D3*
X2693700D3*
X2793700D3*
X2893700D3*
X2993700D3*
X3093700D3*
X3193700D3*
X3293700D3*
Y3693700D3*
X3193700D3*
X3093700D3*
X2993700D3*
X2893700D3*
X2793700D3*
X2693700D3*
X2593700D3*
X2493700D3*
X2393700D3*
X2293700D3*
X2193700D3*
X2093700D3*
X1993700D3*
D68*
X2523700Y2953700D3*
X2423700Y1053700D3*
X2623700Y2953700D3*
X2723700D3*
X2823700D3*
X2923700D3*
X2423700D3*
X2323700D3*
X2223700D3*
X2063700D3*
X1963700D3*
X1863700D3*
X1763700D3*
X1663700D3*
X1563700D3*
X1463700D3*
X1363700D3*
X2523700Y1053700D3*
X2623700D3*
X2723700D3*
X2823700D3*
X2923700D3*
X2223700D3*
X2123700D3*
X2023700D3*
X1923700D3*
X1823700D3*
X1723700D3*
D25*
X634015Y2704172D3*
X734015D3*
X834015D3*
X934015D3*
X1034015D3*
X1134015D3*
X1234015D3*
X1334015D3*
X1434015D3*
X1534015D3*
X1634015D3*
X1734015D3*
X1834015D3*
X1934015D3*
X2034015D3*
X2134015D3*
X2234015D3*
X2334015D3*
X1653700Y3543700D3*
Y3443700D3*
Y3643700D3*
D26*
X803700Y873700D3*
D27*
Y1050865D3*
X547794D3*
Y873700D3*
D26*
X1626535D3*
D27*
Y1050865D3*
X1370629D3*
Y873700D3*
D26*
X1216535Y1087794D3*
D27*
Y1264960D3*
X960629D3*
Y1087794D3*
D26*
X1216535Y643700D3*
D27*
Y820865D3*
X960629D3*
Y643700D3*
D26*
X846535Y483700D3*
D27*
Y660865D3*
X590629D3*
Y483700D3*
D29*
X913700Y3573700D3*
D30*
X667637D3*
X801495Y3384724D3*
D26*
X1589369Y483700D3*
D27*
Y660865D3*
X1333464D3*
Y483700D3*
M02*
