G04 DipTrace 3.3.1.3*
G04 TopAssy.gbr*
%MOIN*%
G04 #@! TF.FileFunction,Drawing,Top*
G04 #@! TF.Part,Single*
%ADD28C,0.008*%
%ADD64C,0.003281*%
%FSLAX26Y26*%
G04*
G70*
G90*
G75*
G01*
G04 TopAssy*
%LPD*%
X508186Y3750865D2*
D28*
X378267D1*
Y3396520D2*
X508186D1*
X378267D2*
Y3750865D1*
X508186D2*
Y3396520D1*
Y3750865D2*
X868399D1*
X937315D1*
X508186Y3396520D2*
X707021D1*
X708999D1*
X937315Y3750865D2*
Y3469386D1*
Y3396520D2*
Y3469386D1*
Y3479190D1*
Y3396520D2*
X707021D1*
X868399Y3750865D2*
Y3400487D1*
X473162Y3703718D2*
D64*
X443018D1*
Y3693670D1*
X444477Y3689359D1*
X447329Y3686474D1*
X450214Y3685048D1*
X454492Y3683622D1*
X461688D1*
X465999Y3685048D1*
X468851Y3686474D1*
X471736Y3689359D1*
X473162Y3693670D1*
Y3703718D1*
X465999Y3655538D2*
X468851Y3656964D1*
X471736Y3659849D1*
X473162Y3662701D1*
Y3668438D1*
X471736Y3671323D1*
X468851Y3674175D1*
X465999Y3675634D1*
X461688Y3677060D1*
X454492D1*
X450214Y3675634D1*
X447329Y3674175D1*
X444477Y3671323D1*
X443018Y3668438D1*
Y3662701D1*
X444477Y3659849D1*
X447329Y3656964D1*
X450214Y3655538D1*
X465966Y3621059D2*
X467392D1*
X470277Y3619633D1*
X471703Y3618207D1*
X473129Y3615322D1*
Y3609585D1*
X471703Y3606733D1*
X470277Y3605307D1*
X467392Y3603848D1*
X464540D1*
X461655Y3605307D1*
X457377Y3608159D1*
X443018Y3622518D1*
Y3602422D1*
X445903Y3594434D2*
X444444Y3595860D1*
X443018Y3594434D1*
X444444Y3592975D1*
X445903Y3594434D1*
X473129Y3577791D2*
X471703Y3582102D1*
X467392Y3584987D1*
X460229Y3586413D1*
X455918D1*
X448755Y3584987D1*
X444444Y3582102D1*
X443018Y3577791D1*
Y3574939D1*
X444444Y3570628D1*
X448755Y3567776D1*
X455918Y3566317D1*
X460229D1*
X467392Y3567776D1*
X471703Y3570628D1*
X473129Y3574939D1*
Y3577791D1*
X467392Y3567776D2*
X448755Y3584987D1*
X443018Y3559756D2*
X473129Y3539660D1*
X465966Y3531639D2*
X467392D1*
X470277Y3530213D1*
X471703Y3528787D1*
X473129Y3525902D1*
Y3520165D1*
X471703Y3517313D1*
X470277Y3515887D1*
X467392Y3514428D1*
X464540D1*
X461655Y3515887D1*
X457377Y3518739D1*
X443018Y3533098D1*
Y3513002D1*
X445903Y3505014D2*
X444444Y3506440D1*
X443018Y3505014D1*
X444444Y3503555D1*
X445903Y3505014D1*
X467392Y3496993D2*
X468851Y3494108D1*
X473129Y3489797D1*
X443018D1*
M02*
