G04 DipTrace 3.3.1.3*
G04 TopSilk.gbr*
%MOIN*%
G04 #@! TF.FileFunction,Legend,Top*
G04 #@! TF.Part,Single*
%ADD10C,0.009843*%
%ADD22C,0.006*%
%ADD24C,0.005*%
%ADD28C,0.008*%
%ADD62C,0.00772*%
%ADD64C,0.003281*%
%FSLAX26Y26*%
G04*
G70*
G90*
G75*
G01*
G04 TopSilk*
%LPD*%
X2180944Y438976D2*
D10*
X1850235D1*
Y547243D1*
X2180944D1*
Y438976D1*
X1850235Y890157D2*
X2180944D1*
Y781889D1*
X1850235D1*
Y890157D1*
X1423581Y3145520D2*
Y3121880D1*
X1435400Y3133700D2*
X1411787D1*
X1193706D2*
G02X1193706Y3133700I99965J0D01*
G01*
X2620944Y438976D2*
X2290235D1*
Y547243D1*
X2620944D1*
Y438976D1*
X2290235Y890157D2*
X2620944D1*
Y781889D1*
X2290235D1*
Y890157D1*
X3060944Y438976D2*
X2730235D1*
Y547243D1*
X3060944D1*
Y438976D1*
X2730235Y890157D2*
X3060944D1*
Y781889D1*
X2730235D1*
Y890157D1*
X904960Y2875275D2*
X1066377D1*
Y3170550D1*
X904960D1*
Y2875275D1*
X594960D2*
X756377D1*
Y3170550D1*
X594960D1*
Y2875275D1*
X1943700Y3493702D2*
D22*
Y3443704D1*
Y3593698D2*
G02X1943700Y3493702I-18J-49998D01*
G01*
X3343700Y3443704D2*
Y3643696D1*
X1943700D2*
Y3593698D1*
Y3643696D2*
X3343700D1*
X1948740Y3443704D2*
X3343700D1*
X319054Y1385275D2*
D24*
X3468661D1*
Y2802598D1*
X319054D1*
Y1385275D1*
X490393Y2611684D2*
X3297322D1*
Y1576188D1*
X490393D1*
Y2611684D1*
X643779Y2536283D2*
X3143936D1*
Y2496881D1*
X643779D1*
Y2536283D1*
Y1658960D2*
X3143936D1*
Y1698220D1*
X643779D1*
Y1658960D1*
X737007Y2408157D2*
G03X643779Y2290094I12112J-105405D01*
G01*
Y1895086D1*
G03X737007Y1777023I105575J-12473D01*
G01*
X3040314D1*
G03X3143936Y1895086I-7282J110897D01*
G01*
Y2290094D1*
G03X3040314Y2408157I-110904J7166D01*
G01*
X737007D1*
X1728700Y3356200D2*
Y3731200D1*
X1353700D1*
Y3356200D1*
X1728700D1*
X1411188Y3543700D2*
G02X1411188Y3543700I130012J0D01*
G01*
X604885Y962283D2*
D10*
G02X604885Y962283I70862J0D01*
G01*
X766302Y1080400D2*
X585192D1*
X557622Y1001680D2*
Y922910D1*
X585192Y844165D2*
X750548D1*
X793872Y922910D2*
Y1001680D1*
X616701Y962295D2*
G02X616701Y962295I59046J0D01*
G01*
X1427720Y962283D2*
G02X1427720Y962283I70862J0D01*
G01*
X1589137Y1080400D2*
X1408027D1*
X1380457Y1001680D2*
Y922910D1*
X1408027Y844165D2*
X1573383D1*
X1616707Y922910D2*
Y1001680D1*
X1439535Y962295D2*
G02X1439535Y962295I59046J0D01*
G01*
X1017720Y1176377D2*
G02X1017720Y1176377I70862J0D01*
G01*
X1179137Y1294494D2*
X998027D1*
X970457Y1215774D2*
Y1137005D1*
X998027Y1058260D2*
X1163383D1*
X1206707Y1137005D2*
Y1215774D1*
X1029535Y1176389D2*
G02X1029535Y1176389I59046J0D01*
G01*
X1017720Y732283D2*
G02X1017720Y732283I70862J0D01*
G01*
X1179137Y850400D2*
X998027D1*
X970457Y771680D2*
Y692910D1*
X998027Y614165D2*
X1163383D1*
X1206707Y692910D2*
Y771680D1*
X1029535Y732295D2*
G02X1029535Y732295I59046J0D01*
G01*
X647720Y572283D2*
G02X647720Y572283I70862J0D01*
G01*
X809137Y690400D2*
X628027D1*
X600457Y611680D2*
Y532910D1*
X628027Y454165D2*
X793383D1*
X836707Y532910D2*
Y611680D1*
X659535Y572295D2*
G02X659535Y572295I59046J0D01*
G01*
X937315Y3396520D2*
D28*
Y3479190D1*
X508186Y3396520D2*
X708999D1*
X937315D2*
X893988D1*
X508186Y3750865D2*
X937315D1*
Y3676084D1*
X508186Y3750865D2*
Y3396520D1*
X1390554Y572283D2*
D10*
G02X1390554Y572283I70862J0D01*
G01*
X1551972Y690400D2*
X1370861D1*
X1343291Y611680D2*
Y532910D1*
X1370861Y454165D2*
X1536217D1*
X1579542Y532910D2*
Y611680D1*
X1402370Y572295D2*
G02X1402370Y572295I59046J0D01*
G01*
X1944061Y570226D2*
D62*
X1924882Y620466D1*
X1905759Y570226D1*
X1912944Y586973D2*
X1936875D1*
X1995370Y608528D2*
X1992993Y613281D1*
X1988185Y618090D1*
X1983431Y620466D1*
X1973870D1*
X1969061Y618090D1*
X1964308Y613281D1*
X1961876Y608528D1*
X1959500Y601343D1*
Y589350D1*
X1961876Y582220D1*
X1964308Y577411D1*
X1969061Y572658D1*
X1973870Y570226D1*
X1983431D1*
X1988185Y572658D1*
X1992993Y577411D1*
X1995370Y582220D1*
X2025179Y620466D2*
X2020371Y618090D1*
X2015617Y613281D1*
X2013186Y608528D1*
X2010809Y601343D1*
Y589350D1*
X2013186Y582220D1*
X2015617Y577411D1*
X2020371Y572658D1*
X2025179Y570226D1*
X2034741D1*
X2039494Y572658D1*
X2044302Y577411D1*
X2046679Y582220D1*
X2049055Y589350D1*
Y601343D1*
X2046679Y608528D1*
X2044302Y613281D1*
X2039494Y618090D1*
X2034741Y620466D1*
X2025179D1*
X2097988D2*
Y570226D1*
X2064495Y620466D1*
Y570226D1*
X2113427Y610849D2*
X2118236Y613281D1*
X2125421Y620411D1*
Y570226D1*
X1933311Y913140D2*
X1914132Y963380D1*
X1895009Y913140D1*
X1902194Y929886D2*
X1926126D1*
X1984620Y951442D2*
X1982243Y956195D1*
X1977435Y961003D1*
X1972682Y963380D1*
X1963120D1*
X1958311Y961003D1*
X1953558Y956195D1*
X1951126Y951442D1*
X1948750Y944257D1*
Y932263D1*
X1951126Y925133D1*
X1953558Y920325D1*
X1958311Y915572D1*
X1963120Y913140D1*
X1972682D1*
X1977435Y915572D1*
X1982243Y920325D1*
X1984620Y925133D1*
X2014429Y963380D2*
X2009621Y961003D1*
X2004867Y956195D1*
X2002436Y951442D1*
X2000059Y944257D1*
Y932263D1*
X2002436Y925133D1*
X2004867Y920325D1*
X2009621Y915572D1*
X2014429Y913140D1*
X2023991D1*
X2028744Y915572D1*
X2033552Y920325D1*
X2035929Y925133D1*
X2038306Y932263D1*
Y944257D1*
X2035929Y951442D1*
X2033552Y956195D1*
X2028744Y961003D1*
X2023991Y963380D1*
X2014429D1*
X2087238D2*
Y913140D1*
X2053745Y963380D1*
Y913140D1*
X2105109Y951386D2*
Y953763D1*
X2107486Y958571D1*
X2109862Y960948D1*
X2114671Y963324D1*
X2124232D1*
X2128986Y960948D1*
X2131362Y958571D1*
X2133794Y953763D1*
Y949010D1*
X2131362Y944201D1*
X2126609Y937071D1*
X2102677Y913140D1*
X2136171D1*
X1318772Y3294985D2*
X1316395Y3299738D1*
X1311587Y3304546D1*
X1306833Y3306923D1*
X1297272D1*
X1292463Y3304546D1*
X1287710Y3299738D1*
X1285278Y3294985D1*
X1282902Y3287800D1*
Y3275806D1*
X1285278Y3268677D1*
X1287710Y3263868D1*
X1292463Y3259115D1*
X1297272Y3256683D1*
X1306833D1*
X1311587Y3259115D1*
X1316395Y3263868D1*
X1318772Y3268677D1*
X1334211Y3297306D2*
X1339019Y3299738D1*
X1346204Y3306868D1*
Y3256683D1*
X2321292Y620466D2*
Y570226D1*
X2338039D1*
X2345224Y572658D1*
X2350033Y577411D1*
X2352409Y582220D1*
X2354786Y589350D1*
Y601343D1*
X2352409Y608528D1*
X2350033Y613281D1*
X2345224Y618090D1*
X2338039Y620466D1*
X2321292D1*
X2408527Y570226D2*
X2389348Y620466D1*
X2370225Y570226D1*
X2377410Y586973D2*
X2401342D1*
X2459836Y608528D2*
X2457459Y613281D1*
X2452651Y618090D1*
X2447898Y620466D1*
X2438336D1*
X2433528Y618090D1*
X2428775Y613281D1*
X2426343Y608528D1*
X2423966Y601343D1*
Y589350D1*
X2426343Y582220D1*
X2428775Y577411D1*
X2433528Y572658D1*
X2438336Y570226D1*
X2447898D1*
X2452651Y572658D1*
X2457459Y577411D1*
X2459836Y582220D1*
X2489645Y620466D2*
X2484837Y618090D1*
X2480084Y613281D1*
X2477652Y608528D1*
X2475275Y601343D1*
Y589350D1*
X2477652Y582220D1*
X2480084Y577411D1*
X2484837Y572658D1*
X2489645Y570226D1*
X2499207D1*
X2503960Y572658D1*
X2508769Y577411D1*
X2511145Y582220D1*
X2513522Y589350D1*
Y601343D1*
X2511145Y608528D1*
X2508769Y613281D1*
X2503960Y618090D1*
X2499207Y620466D1*
X2489645D1*
X2562454D2*
Y570226D1*
X2528961Y620466D1*
Y570226D1*
X2577894Y610849D2*
X2582702Y613281D1*
X2589887Y620411D1*
Y570226D1*
X2310543Y963380D2*
Y913140D1*
X2327289D1*
X2334474Y915572D1*
X2339283Y920325D1*
X2341659Y925133D1*
X2344036Y932263D1*
Y944257D1*
X2341659Y951442D1*
X2339283Y956195D1*
X2334474Y961003D1*
X2327289Y963380D1*
X2310543D1*
X2397777Y913140D2*
X2378598Y963380D1*
X2359475Y913140D1*
X2366660Y929886D2*
X2390592D1*
X2449086Y951442D2*
X2446709Y956195D1*
X2441901Y961003D1*
X2437148Y963380D1*
X2427586D1*
X2422778Y961003D1*
X2418025Y956195D1*
X2415593Y951442D1*
X2413216Y944257D1*
Y932263D1*
X2415593Y925133D1*
X2418025Y920325D1*
X2422778Y915572D1*
X2427586Y913140D1*
X2437148D1*
X2441901Y915572D1*
X2446709Y920325D1*
X2449086Y925133D1*
X2478895Y963380D2*
X2474087Y961003D1*
X2469334Y956195D1*
X2466902Y951442D1*
X2464525Y944257D1*
Y932263D1*
X2466902Y925133D1*
X2469334Y920325D1*
X2474087Y915572D1*
X2478895Y913140D1*
X2488457D1*
X2493210Y915572D1*
X2498019Y920325D1*
X2500395Y925133D1*
X2502772Y932263D1*
Y944257D1*
X2500395Y951442D1*
X2498019Y956195D1*
X2493210Y961003D1*
X2488457Y963380D1*
X2478895D1*
X2551704D2*
Y913140D1*
X2518211Y963380D1*
Y913140D1*
X2569576Y951386D2*
Y953763D1*
X2571952Y958571D1*
X2574329Y960948D1*
X2579137Y963324D1*
X2588699D1*
X2593452Y960948D1*
X2595829Y958571D1*
X2598260Y953763D1*
Y949010D1*
X2595829Y944201D1*
X2591075Y937071D1*
X2567144Y913140D1*
X2600637D1*
X2788163Y620466D2*
Y570226D1*
X2804910D1*
X2812095Y572658D1*
X2816903Y577411D1*
X2819280Y582220D1*
X2821656Y589350D1*
Y601343D1*
X2819280Y608528D1*
X2816903Y613281D1*
X2812095Y618090D1*
X2804910Y620466D1*
X2788163D1*
X2872965Y608528D2*
X2870589Y613281D1*
X2865780Y618090D1*
X2861027Y620466D1*
X2851466D1*
X2846657Y618090D1*
X2841904Y613281D1*
X2839472Y608528D1*
X2837096Y601343D1*
Y589350D1*
X2839472Y582220D1*
X2841904Y577411D1*
X2846657Y572658D1*
X2851466Y570226D1*
X2861027D1*
X2865780Y572658D1*
X2870589Y577411D1*
X2872965Y582220D1*
X2902775Y620466D2*
X2897966Y618090D1*
X2893213Y613281D1*
X2890781Y608528D1*
X2888405Y601343D1*
Y589350D1*
X2890781Y582220D1*
X2893213Y577411D1*
X2897966Y572658D1*
X2902775Y570226D1*
X2912336D1*
X2917090Y572658D1*
X2921898Y577411D1*
X2924275Y582220D1*
X2926651Y589350D1*
Y601343D1*
X2924275Y608528D1*
X2921898Y613281D1*
X2917090Y618090D1*
X2912336Y620466D1*
X2902775D1*
X2975584D2*
Y570226D1*
X2942090Y620466D1*
Y570226D1*
X2991023Y610849D2*
X2995832Y613281D1*
X3003017Y620411D1*
Y570226D1*
X2777413Y963380D2*
Y913140D1*
X2794160D1*
X2801345Y915572D1*
X2806153Y920325D1*
X2808530Y925133D1*
X2810906Y932263D1*
Y944257D1*
X2808530Y951442D1*
X2806153Y956195D1*
X2801345Y961003D1*
X2794160Y963380D1*
X2777413D1*
X2862216Y951442D2*
X2859839Y956195D1*
X2855031Y961003D1*
X2850277Y963380D1*
X2840716D1*
X2835907Y961003D1*
X2831154Y956195D1*
X2828722Y951442D1*
X2826346Y944257D1*
Y932263D1*
X2828722Y925133D1*
X2831154Y920325D1*
X2835907Y915572D1*
X2840716Y913140D1*
X2850277D1*
X2855031Y915572D1*
X2859839Y920325D1*
X2862216Y925133D1*
X2892025Y963380D2*
X2887216Y961003D1*
X2882463Y956195D1*
X2880031Y951442D1*
X2877655Y944257D1*
Y932263D1*
X2880031Y925133D1*
X2882463Y920325D1*
X2887216Y915572D1*
X2892025Y913140D1*
X2901587D1*
X2906340Y915572D1*
X2911148Y920325D1*
X2913525Y925133D1*
X2915901Y932263D1*
Y944257D1*
X2913525Y951442D1*
X2911148Y956195D1*
X2906340Y961003D1*
X2901587Y963380D1*
X2892025D1*
X2964834D2*
Y913140D1*
X2931341Y963380D1*
Y913140D1*
X2982705Y951386D2*
Y953763D1*
X2985082Y958571D1*
X2987458Y960948D1*
X2992267Y963324D1*
X3001828D1*
X3006581Y960948D1*
X3008958Y958571D1*
X3011390Y953763D1*
Y949010D1*
X3008958Y944201D1*
X3004205Y937071D1*
X2980273Y913140D1*
X3013766D1*
X831737Y2830176D2*
X881977D1*
Y2858861D1*
X831737Y2905362D2*
Y2874301D1*
X881977Y2874300D1*
Y2905362D1*
X855669Y2874301D2*
Y2893424D1*
X831737Y2920801D2*
X881977D1*
Y2937548D1*
X879545Y2944733D1*
X874792Y2949541D1*
X869983Y2951918D1*
X862854Y2954295D1*
X850860D1*
X843675Y2951918D1*
X838922Y2949541D1*
X834113Y2944733D1*
X831737Y2937548D1*
Y2920801D1*
X858045Y2969734D2*
Y2991289D1*
X855669Y2998419D1*
X853237Y3000851D1*
X848483Y3003227D1*
X841298D1*
X836545Y3000851D1*
X834113Y2998419D1*
X831737Y2991289D1*
Y2969734D1*
X881977D1*
X831737Y3033036D2*
X834113Y3028228D1*
X838922Y3023475D1*
X843675Y3021043D1*
X850860Y3018666D1*
X862854D1*
X869983Y3021043D1*
X874792Y3023475D1*
X879545Y3028228D1*
X881977Y3033036D1*
Y3042598D1*
X879545Y3047351D1*
X874792Y3052160D1*
X869983Y3054536D1*
X862854Y3056913D1*
X850860D1*
X843675Y3054536D1*
X838922Y3052160D1*
X834113Y3047351D1*
X831737Y3042598D1*
Y3033036D1*
Y3072352D2*
X881977Y3084346D1*
X831737Y3096284D1*
X881977Y3108222D1*
X831737Y3120216D1*
Y3166716D2*
Y3135655D1*
X881977D1*
Y3166716D1*
X855668Y3135655D2*
Y3154778D1*
Y3182156D2*
Y3203655D1*
X853237Y3210840D1*
X850860Y3213272D1*
X846107Y3215649D1*
X841298D1*
X836545Y3213272D1*
X834113Y3210840D1*
X831737Y3203655D1*
Y3182156D1*
X881977D1*
X855668Y3198902D2*
X881977Y3215649D1*
X521737Y2829614D2*
X571977D1*
Y2858299D1*
X521737Y2904800D2*
Y2873738D1*
X571977D1*
Y2904800D1*
X545669Y2873738D2*
Y2892862D1*
X521737Y2920239D2*
X571977D1*
Y2936986D1*
X569545Y2944171D1*
X564792Y2948979D1*
X559983Y2951356D1*
X552854Y2953732D1*
X540860D1*
X533675Y2951356D1*
X528922Y2948979D1*
X524113Y2944171D1*
X521737Y2936986D1*
Y2920239D1*
X528922Y3002665D2*
X524113Y2997912D1*
X521737Y2990727D1*
Y2981165D1*
X524113Y2973980D1*
X528922Y2969172D1*
X533675D1*
X538483Y2971603D1*
X540860Y2973980D1*
X543237Y2978733D1*
X548045Y2993103D1*
X550422Y2997912D1*
X552854Y3000288D1*
X557607Y3002665D1*
X564792D1*
X569545Y2997912D1*
X571977Y2990727D1*
Y2981165D1*
X569545Y2973980D1*
X564792Y2969172D1*
X521737Y3018104D2*
X571977D1*
X533675Y3069413D2*
X528922Y3067037D1*
X524113Y3062228D1*
X521737Y3057475D1*
Y3047913D1*
X524113Y3043105D1*
X528922Y3038352D1*
X533675Y3035920D1*
X540860Y3033543D1*
X552854D1*
X559983Y3035920D1*
X564792Y3038352D1*
X569545Y3043105D1*
X571977Y3047913D1*
Y3057475D1*
X569545Y3062228D1*
X564792Y3067037D1*
X559983Y3069413D1*
X552854D1*
Y3057475D1*
X521737Y3118346D2*
X571977D1*
X521737Y3084853D1*
X571977D1*
Y3172087D2*
X521737Y3152908D1*
X571977Y3133785D1*
X555230Y3140970D2*
Y3164902D1*
X521737Y3187526D2*
X571977D1*
Y3216211D1*
X2946702Y1342676D2*
X2968201D1*
X2975386Y1345108D1*
X2977818Y1347485D1*
X2980195Y1352238D1*
Y1357046D1*
X2977818Y1361800D1*
X2975386Y1364232D1*
X2968201Y1366608D1*
X2946702D1*
Y1316368D1*
X2963448Y1342676D2*
X2980195Y1316368D1*
X2995634Y1356991D2*
X3000443Y1359423D1*
X3007628Y1366553D1*
Y1316368D1*
X2924105Y1186816D2*
Y1237001D1*
X2900173Y1203563D1*
X2936043D1*
X2953859Y1191625D2*
X2951482Y1189193D1*
X2953859Y1186816D1*
X2956291Y1189193D1*
X2953859Y1191625D1*
X2981292Y1186816D2*
X3005223Y1237001D1*
X2971730D1*
X3020663Y1237056D2*
Y1186816D1*
X3054156Y1237056D2*
X3020663Y1203563D1*
X3032601Y1215556D2*
X3054156Y1186816D1*
X2755952Y1342676D2*
X2777451D1*
X2784636Y1345108D1*
X2787068Y1347485D1*
X2789445Y1352238D1*
Y1357046D1*
X2787068Y1361800D1*
X2784636Y1364232D1*
X2777451Y1366608D1*
X2755952D1*
Y1316368D1*
X2772698Y1342676D2*
X2789445Y1316368D1*
X2807316Y1354615D2*
Y1356991D1*
X2809693Y1361800D1*
X2812069Y1364176D1*
X2816878Y1366553D1*
X2826439D1*
X2831192Y1364176D1*
X2833569Y1361800D1*
X2836001Y1356991D1*
Y1352238D1*
X2833569Y1347430D1*
X2828816Y1340300D1*
X2804884Y1316368D1*
X2838378D1*
X2744105Y1186816D2*
Y1237001D1*
X2720173Y1203563D1*
X2756043D1*
X2773859Y1191625D2*
X2771482Y1189193D1*
X2773859Y1186816D1*
X2776291Y1189193D1*
X2773859Y1191625D1*
X2801292Y1186816D2*
X2825223Y1237001D1*
X2791730D1*
X2840663Y1237056D2*
Y1186816D1*
X2874156Y1237056D2*
X2840663Y1203563D1*
X2852601Y1215556D2*
X2874156Y1186816D1*
X2565952Y1342676D2*
X2587451D1*
X2594636Y1345108D1*
X2597068Y1347485D1*
X2599445Y1352238D1*
Y1357046D1*
X2597068Y1361800D1*
X2594636Y1364232D1*
X2587451Y1366608D1*
X2565952D1*
Y1316368D1*
X2582698Y1342676D2*
X2599445Y1316368D1*
X2619693Y1366553D2*
X2645946D1*
X2631631Y1347430D1*
X2638816D1*
X2643569Y1345053D1*
X2645946Y1342676D1*
X2648378Y1335491D1*
Y1330738D1*
X2645946Y1323553D1*
X2641192Y1318745D1*
X2634007Y1316368D1*
X2626822D1*
X2619693Y1318745D1*
X2617316Y1321177D1*
X2614884Y1325930D1*
X2543917Y1225063D2*
Y1227439D1*
X2546294Y1232248D1*
X2548670Y1234624D1*
X2553479Y1237001D1*
X2563040D1*
X2567794Y1234624D1*
X2570170Y1232248D1*
X2572602Y1227439D1*
Y1222686D1*
X2570170Y1217878D1*
X2565417Y1210748D1*
X2541485Y1186816D1*
X2574979D1*
X2592850Y1225063D2*
Y1227439D1*
X2595226Y1232248D1*
X2597603Y1234624D1*
X2602411Y1237001D1*
X2611973D1*
X2616726Y1234624D1*
X2619103Y1232248D1*
X2621535Y1227439D1*
Y1222686D1*
X2619103Y1217878D1*
X2614350Y1210748D1*
X2590418Y1186816D1*
X2623911D1*
X2653721Y1237001D2*
X2646536Y1234624D1*
X2641727Y1227439D1*
X2639350Y1215501D1*
Y1208316D1*
X2641727Y1196378D1*
X2646536Y1189193D1*
X2653721Y1186816D1*
X2658474D1*
X2665659Y1189193D1*
X2670412Y1196378D1*
X2672844Y1208316D1*
Y1215501D1*
X2670412Y1227439D1*
X2665659Y1234624D1*
X2658474Y1237001D1*
X2653721D1*
X2670412Y1227439D2*
X2641727Y1196378D1*
X2364763Y1342676D2*
X2386263D1*
X2393448Y1345108D1*
X2395880Y1347485D1*
X2398257Y1352238D1*
Y1357046D1*
X2395880Y1361800D1*
X2393448Y1364232D1*
X2386263Y1366608D1*
X2364763D1*
Y1316368D1*
X2381510Y1342676D2*
X2398257Y1316368D1*
X2437628D2*
Y1366553D1*
X2413696Y1333115D1*
X2449566D1*
X2346294Y1237001D2*
X2372547D1*
X2358232Y1217878D1*
X2365417D1*
X2370170Y1215501D1*
X2372547Y1213125D1*
X2374979Y1205940D1*
Y1201186D1*
X2372547Y1194001D1*
X2367794Y1189193D1*
X2360609Y1186816D1*
X2353424D1*
X2346294Y1189193D1*
X2343917Y1191625D1*
X2341485Y1196378D1*
X2395226Y1237001D2*
X2421479D1*
X2407165Y1217878D1*
X2414350D1*
X2419103Y1215501D1*
X2421479Y1213125D1*
X2423911Y1205940D1*
Y1201186D1*
X2421479Y1194001D1*
X2416726Y1189193D1*
X2409541Y1186816D1*
X2402356D1*
X2395226Y1189193D1*
X2392850Y1191625D1*
X2390418Y1196378D1*
X2453721Y1237001D2*
X2446536Y1234624D1*
X2441727Y1227439D1*
X2439350Y1215501D1*
Y1208316D1*
X2441727Y1196378D1*
X2446536Y1189193D1*
X2453721Y1186816D1*
X2458474D1*
X2465659Y1189193D1*
X2470412Y1196378D1*
X2472844Y1208316D1*
Y1215501D1*
X2470412Y1227439D1*
X2465659Y1234624D1*
X2458474Y1237001D1*
X2453721D1*
X2470412Y1227439D2*
X2441727Y1196378D1*
X2175952Y1342676D2*
X2197451D1*
X2204636Y1345108D1*
X2207068Y1347485D1*
X2209445Y1352238D1*
Y1357046D1*
X2207068Y1361800D1*
X2204636Y1364232D1*
X2197451Y1366608D1*
X2175952D1*
Y1316368D1*
X2192698Y1342676D2*
X2209445Y1316368D1*
X2253569Y1366553D2*
X2229693D1*
X2227316Y1345053D1*
X2229693Y1347430D1*
X2236878Y1349861D1*
X2244007D1*
X2251192Y1347430D1*
X2256001Y1342676D1*
X2258378Y1335491D1*
Y1330738D1*
X2256001Y1323553D1*
X2251192Y1318745D1*
X2244007Y1316368D1*
X2236878D1*
X2229693Y1318745D1*
X2227316Y1321177D1*
X2224884Y1325930D1*
X2153917Y1225063D2*
Y1227439D1*
X2156294Y1232248D1*
X2158670Y1234624D1*
X2163479Y1237001D1*
X2173040D1*
X2177794Y1234624D1*
X2180170Y1232248D1*
X2182602Y1227439D1*
Y1222686D1*
X2180170Y1217878D1*
X2175417Y1210748D1*
X2151485Y1186816D1*
X2184979D1*
X2202850Y1225063D2*
Y1227439D1*
X2205226Y1232248D1*
X2207603Y1234624D1*
X2212411Y1237001D1*
X2221973D1*
X2226726Y1234624D1*
X2229103Y1232248D1*
X2231535Y1227439D1*
Y1222686D1*
X2229103Y1217878D1*
X2224350Y1210748D1*
X2200418Y1186816D1*
X2233911D1*
X2263721Y1237001D2*
X2256536Y1234624D1*
X2251727Y1227439D1*
X2249350Y1215501D1*
Y1208316D1*
X2251727Y1196378D1*
X2256536Y1189193D1*
X2263721Y1186816D1*
X2268474D1*
X2275659Y1189193D1*
X2280412Y1196378D1*
X2282844Y1208316D1*
Y1215501D1*
X2280412Y1227439D1*
X2275659Y1234624D1*
X2268474Y1237001D1*
X2263721D1*
X2280412Y1227439D2*
X2251727Y1196378D1*
X2247168Y3182676D2*
X2268667D1*
X2275852Y3185108D1*
X2278284Y3187485D1*
X2280661Y3192238D1*
Y3197046D1*
X2278284Y3201800D1*
X2275852Y3204232D1*
X2268667Y3206608D1*
X2247168D1*
Y3156368D1*
X2263914Y3182676D2*
X2280661Y3156368D1*
X2324785Y3199423D2*
X2322408Y3204176D1*
X2315223Y3206553D1*
X2310470D1*
X2303285Y3204176D1*
X2298477Y3196991D1*
X2296100Y3185053D1*
Y3173115D1*
X2298477Y3163553D1*
X2303285Y3158745D1*
X2310470Y3156368D1*
X2312847D1*
X2319977Y3158745D1*
X2324785Y3163553D1*
X2327162Y3170738D1*
Y3173115D1*
X2324785Y3180300D1*
X2319977Y3185053D1*
X2312847Y3187430D1*
X2310470D1*
X2303285Y3185053D1*
X2298477Y3180300D1*
X2296100Y3173115D1*
X2223917Y3065063D2*
Y3067439D1*
X2226294Y3072248D1*
X2228670Y3074624D1*
X2233479Y3077001D1*
X2243040D1*
X2247794Y3074624D1*
X2250170Y3072248D1*
X2252602Y3067439D1*
Y3062686D1*
X2250170Y3057878D1*
X2245417Y3050748D1*
X2221485Y3026816D1*
X2254979D1*
X2272850Y3065063D2*
Y3067439D1*
X2275226Y3072248D1*
X2277603Y3074624D1*
X2282411Y3077001D1*
X2291973D1*
X2296726Y3074624D1*
X2299103Y3072248D1*
X2301535Y3067439D1*
Y3062686D1*
X2299103Y3057878D1*
X2294350Y3050748D1*
X2270418Y3026816D1*
X2303911D1*
X2333721Y3077001D2*
X2326536Y3074624D1*
X2321727Y3067439D1*
X2319350Y3055501D1*
Y3048316D1*
X2321727Y3036378D1*
X2326536Y3029193D1*
X2333721Y3026816D1*
X2338474D1*
X2345659Y3029193D1*
X2350412Y3036378D1*
X2352844Y3048316D1*
Y3055501D1*
X2350412Y3067439D1*
X2345659Y3074624D1*
X2338474Y3077001D1*
X2333721D1*
X2350412Y3067439D2*
X2321727Y3036378D1*
X1280477Y3312274D2*
X1330717D1*
X1280477Y3295528D2*
Y3329021D1*
X1304409Y3344460D2*
Y3365960D1*
X1301977Y3373145D1*
X1299600Y3375577D1*
X1294847Y3377953D1*
X1290039D1*
X1285285Y3375577D1*
X1282854Y3373145D1*
X1280477Y3365960D1*
Y3344460D1*
X1330717D1*
X1304409Y3361207D2*
X1330717Y3377953D1*
X1280477Y3393393D2*
X1330717D1*
Y3447078D2*
X1280477D1*
X1330717Y3427955D1*
X1280477Y3408832D1*
X1330717D1*
X1306785Y3462518D2*
Y3484073D1*
X1304409Y3491203D1*
X1301977Y3493634D1*
X1297224Y3496011D1*
X1290039D1*
X1285285Y3493634D1*
X1282854Y3491203D1*
X1280477Y3484073D1*
Y3462518D1*
X1330717D1*
X1280477Y3525820D2*
X1282854Y3521012D1*
X1287662Y3516259D1*
X1292415Y3513827D1*
X1299600Y3511450D1*
X1311594D1*
X1318723Y3513827D1*
X1323532Y3516259D1*
X1328285Y3521012D1*
X1330717Y3525820D1*
Y3535382D1*
X1328285Y3540135D1*
X1323532Y3544944D1*
X1318723Y3547320D1*
X1311594Y3549697D1*
X1299600D1*
X1292415Y3547320D1*
X1287662Y3544944D1*
X1282854Y3540135D1*
X1280477Y3535382D1*
Y3525820D1*
Y3581883D2*
X1330717D1*
X1280477Y3565136D2*
Y3598629D1*
X1280532Y3618877D2*
Y3645130D1*
X1299655Y3630815D1*
Y3638000D1*
X1302032Y3642753D1*
X1304409Y3645130D1*
X1311594Y3647562D1*
X1316347D1*
X1323532Y3645130D1*
X1328340Y3640377D1*
X1330717Y3633192D1*
Y3626007D1*
X1328340Y3618877D1*
X1325908Y3616500D1*
X1321155Y3614069D1*
X1280532Y3667810D2*
Y3694063D1*
X1299655Y3679748D1*
Y3686933D1*
X1302032Y3691686D1*
X1304409Y3694063D1*
X1311594Y3696494D1*
X1316347D1*
X1323532Y3694063D1*
X1328340Y3689309D1*
X1330717Y3682124D1*
Y3674939D1*
X1328340Y3667810D1*
X1325908Y3665433D1*
X1321155Y3663001D1*
X1280532Y3723872D2*
X1282909Y3716742D1*
X1287662Y3714310D1*
X1292470D1*
X1297224Y3716742D1*
X1299655Y3721495D1*
X1302032Y3731057D1*
X1304409Y3738242D1*
X1309217Y3742995D1*
X1313970Y3745372D1*
X1321155D1*
X1325908Y3742995D1*
X1328340Y3740619D1*
X1330717Y3733434D1*
Y3723872D1*
X1328340Y3716742D1*
X1325908Y3714310D1*
X1321155Y3711934D1*
X1313970D1*
X1309217Y3714310D1*
X1304409Y3719119D1*
X1302032Y3726249D1*
X1299655Y3735810D1*
X1297224Y3740619D1*
X1292470Y3742995D1*
X1287662D1*
X1282909Y3740619D1*
X1280532Y3733434D1*
Y3723872D1*
X1287662Y3789496D2*
X1282909Y3787119D1*
X1280532Y3779934D1*
Y3775181D1*
X1282909Y3767996D1*
X1290094Y3763188D1*
X1302032Y3760811D1*
X1313970D1*
X1323532Y3763188D1*
X1328340Y3767996D1*
X1330717Y3775181D1*
Y3777558D1*
X1328340Y3784687D1*
X1323532Y3789496D1*
X1316347Y3791873D1*
X1313970D1*
X1306785Y3789496D1*
X1302032Y3784687D1*
X1299655Y3777558D1*
Y3775181D1*
X1302032Y3767996D1*
X1306785Y3763188D1*
X1313970Y3760811D1*
X590410Y1157553D2*
Y1107313D1*
X619095D1*
X665596Y1157553D2*
X634534D1*
Y1107313D1*
X665596D1*
X634534Y1133621D2*
X653658D1*
X712152Y1157553D2*
X681035D1*
Y1107313D1*
Y1133621D2*
X700158D1*
X744338Y1157553D2*
Y1107313D1*
X727591Y1157553D2*
X761084D1*
X1399528Y1133621D2*
X1421028D1*
X1428213Y1136053D1*
X1430645Y1138430D1*
X1433022Y1143183D1*
Y1147991D1*
X1430645Y1152745D1*
X1428213Y1155176D1*
X1421028Y1157553D1*
X1399528D1*
Y1107313D1*
X1416275Y1133621D2*
X1433022Y1107313D1*
X1448461Y1157553D2*
Y1107313D1*
X1499770Y1145615D2*
X1497394Y1150368D1*
X1492585Y1155176D1*
X1487832Y1157553D1*
X1478270D1*
X1473462Y1155176D1*
X1468709Y1150368D1*
X1466277Y1145615D1*
X1463900Y1138430D1*
Y1126436D1*
X1466277Y1119306D1*
X1468709Y1114498D1*
X1473462Y1109745D1*
X1478270Y1107313D1*
X1487832D1*
X1492585Y1109745D1*
X1497394Y1114498D1*
X1499770Y1119306D1*
Y1126436D1*
X1487832D1*
X1515209Y1157553D2*
Y1107313D1*
X1548703Y1157553D2*
Y1107313D1*
X1515209Y1133621D2*
X1548703D1*
X1580889Y1157553D2*
Y1107313D1*
X1564142Y1157553D2*
X1597635D1*
X1047369Y1371647D2*
Y1335778D1*
X1049746Y1328593D1*
X1054554Y1323839D1*
X1061739Y1321407D1*
X1066492D1*
X1073677Y1323839D1*
X1078486Y1328593D1*
X1080862Y1335778D1*
Y1371647D1*
X1096302Y1345339D2*
X1117857D1*
X1124986Y1347716D1*
X1127418Y1350148D1*
X1129795Y1354901D1*
Y1362086D1*
X1127418Y1366839D1*
X1124986Y1369271D1*
X1117857Y1371647D1*
X1096302D1*
Y1321407D1*
X988875Y927553D2*
Y877313D1*
X1005621D1*
X1012806Y879745D1*
X1017615Y884498D1*
X1019991Y889306D1*
X1022368Y896436D1*
Y908430D1*
X1019991Y915615D1*
X1017615Y920368D1*
X1012806Y925176D1*
X1005621Y927553D1*
X988875D1*
X1052177D2*
X1047369Y925176D1*
X1042616Y920368D1*
X1040184Y915615D1*
X1037807Y908430D1*
Y896436D1*
X1040184Y889306D1*
X1042616Y884498D1*
X1047369Y879745D1*
X1052177Y877313D1*
X1061739D1*
X1066492Y879745D1*
X1071301Y884498D1*
X1073677Y889306D1*
X1076054Y896436D1*
Y908430D1*
X1073677Y915615D1*
X1071301Y920368D1*
X1066492Y925176D1*
X1061739Y927553D1*
X1052177D1*
X1091493D2*
X1103487Y877313D1*
X1115425Y927553D1*
X1127363Y877313D1*
X1139356Y927553D1*
X1188289D2*
Y877313D1*
X1154796Y927553D1*
Y877313D1*
X616645Y760368D2*
X611892Y765176D1*
X604707Y767553D1*
X595145D1*
X587960Y765176D1*
X583152Y760368D1*
Y755615D1*
X585583Y750806D1*
X587960Y748430D1*
X592713Y746053D1*
X607083Y741245D1*
X611892Y738868D1*
X614268Y736436D1*
X616645Y731683D1*
Y724498D1*
X611892Y719745D1*
X604707Y717313D1*
X595145D1*
X587960Y719745D1*
X583152Y724498D1*
X663146Y767553D2*
X632084D1*
Y717313D1*
X663146D1*
X632084Y743621D2*
X651207D1*
X678585Y767553D2*
Y717313D1*
X707270D1*
X753770Y767553D2*
X722709D1*
Y717313D1*
X753770D1*
X722709Y743621D2*
X741832D1*
X805080Y755615D2*
X802703Y760368D1*
X797895Y765176D1*
X793141Y767553D1*
X783580D1*
X778771Y765176D1*
X774018Y760368D1*
X771586Y755615D1*
X769210Y748430D1*
Y736436D1*
X771586Y729306D1*
X774018Y724498D1*
X778771Y719745D1*
X783580Y717313D1*
X793141D1*
X797895Y719745D1*
X802703Y724498D1*
X805080Y729306D1*
X837266Y767553D2*
Y717313D1*
X820519Y767553D2*
X854012D1*
X1349237Y743621D2*
X1370736D1*
X1377921Y746053D1*
X1380353Y748430D1*
X1382730Y753183D1*
Y757991D1*
X1380353Y762745D1*
X1377921Y765176D1*
X1370736Y767553D1*
X1349237D1*
Y717313D1*
X1365983Y743621D2*
X1382730Y717313D1*
X1429231Y767553D2*
X1398169D1*
Y717313D1*
X1429231D1*
X1398169Y743621D2*
X1417292D1*
X1478163Y760368D2*
X1473410Y765176D1*
X1466225Y767553D1*
X1456663D1*
X1449478Y765176D1*
X1444670Y760368D1*
Y755615D1*
X1447102Y750806D1*
X1449478Y748430D1*
X1454231Y746053D1*
X1468602Y741245D1*
X1473410Y738868D1*
X1475787Y736436D1*
X1478163Y731683D1*
Y724498D1*
X1473410Y719745D1*
X1466225Y717313D1*
X1456663D1*
X1449478Y719745D1*
X1444670Y724498D1*
X1524664Y767553D2*
X1493602D1*
Y717313D1*
X1524664D1*
X1493602Y743621D2*
X1512726D1*
X1556850Y767553D2*
Y717313D1*
X1540103Y767553D2*
X1573597D1*
X1653304Y1143333D2*
D64*
X1670504D1*
X1676252Y1145279D1*
X1678198Y1147180D1*
X1680099Y1150982D1*
Y1154829D1*
X1678198Y1158632D1*
X1676252Y1160577D1*
X1670504Y1162478D1*
X1653304D1*
Y1122286D1*
X1666702Y1143333D2*
X1680099Y1122286D1*
X1713455Y1156730D2*
X1709653Y1160577D1*
X1703905Y1162478D1*
X1696255D1*
X1690507Y1160577D1*
X1686661Y1156730D1*
Y1152928D1*
X1688606Y1149081D1*
X1690507Y1147180D1*
X1694310Y1145279D1*
X1705806Y1141432D1*
X1709653Y1139531D1*
X1711554Y1137585D1*
X1713455Y1133783D1*
Y1128034D1*
X1709653Y1124232D1*
X1703905Y1122286D1*
X1696255D1*
X1690507Y1124232D1*
X1686661Y1128034D1*
X1733414Y1162478D2*
Y1122286D1*
X1720017Y1162478D2*
X1746812D1*
X1795732Y1162434D2*
X1816734D1*
X1805282Y1147136D1*
X1811030D1*
X1814833Y1145234D1*
X1816734Y1143333D1*
X1818680Y1137585D1*
Y1133783D1*
X1816734Y1128034D1*
X1812932Y1124188D1*
X1807184Y1122286D1*
X1801436D1*
X1795732Y1124188D1*
X1793831Y1126133D1*
X1791885Y1129936D1*
X1825241Y1149081D2*
X1836738Y1122286D1*
X1848189Y1149081D1*
X1924927Y1162434D2*
X1905826D1*
X1903924Y1145234D1*
X1905826Y1147136D1*
X1911574Y1149081D1*
X1917277D1*
X1923026Y1147136D1*
X1926872Y1143333D1*
X1928774Y1137585D1*
Y1133783D1*
X1926872Y1128034D1*
X1923026Y1124188D1*
X1917277Y1122286D1*
X1911574D1*
X1905826Y1124188D1*
X1903924Y1126133D1*
X1901979Y1129936D1*
X1935335Y1149081D2*
X1946831Y1122286D1*
X1958283Y1149081D1*
X2057693Y1152928D2*
X2055792Y1156730D1*
X2051945Y1160577D1*
X2048143Y1162478D1*
X2040493D1*
X2036647Y1160577D1*
X2032844Y1156730D1*
X2030899Y1152928D1*
X2028997Y1147180D1*
Y1137585D1*
X2030899Y1131881D1*
X2032844Y1128034D1*
X2036647Y1124232D1*
X2040493Y1122286D1*
X2048143D1*
X2051945Y1124232D1*
X2055792Y1128034D1*
X2057693Y1131881D1*
Y1137585D1*
X2048143D1*
X2064255Y1149081D2*
Y1122286D1*
Y1141432D2*
X2070003Y1147180D1*
X2073850Y1149081D1*
X2079554D1*
X2083400Y1147180D1*
X2085302Y1141432D1*
Y1122286D1*
X2114811Y1162478D2*
Y1122286D1*
Y1143333D2*
X2111009Y1147180D1*
X2107162Y1149081D1*
X2101414D1*
X2097611Y1147180D1*
X2093765Y1143333D1*
X2091863Y1137585D1*
Y1133783D1*
X2093765Y1128034D1*
X2097611Y1124232D1*
X2101414Y1122286D1*
X2107162D1*
X2111009Y1124232D1*
X2114811Y1128034D1*
X2187016Y1162478D2*
X2202315Y1122286D1*
X2217613Y1162478D1*
X2224175D2*
X2226076Y1160577D1*
X2228022Y1162478D1*
X2226076Y1164424D1*
X2224175Y1162478D1*
X2226076Y1149081D2*
Y1122286D1*
X2234584Y1149081D2*
Y1122286D1*
Y1141432D2*
X2240332Y1147180D1*
X2244178Y1149081D1*
X2249882D1*
X2253729Y1147180D1*
X2255630Y1141432D1*
Y1122286D1*
X2584637Y990550D2*
X2569294Y1030742D1*
X2553996Y990550D1*
X2559744Y1003947D2*
X2578889D1*
X2591199Y1017344D2*
Y990550D1*
Y1009695D2*
X2596947Y1015443D1*
X2600794Y1017344D1*
X2606497D1*
X2610344Y1015443D1*
X2612245Y1009695D1*
Y990550D1*
X2641755Y1017344D2*
Y990550D1*
Y1011596D2*
X2637952Y1015443D1*
X2634106Y1017344D1*
X2628402D1*
X2624555Y1015443D1*
X2620753Y1011596D1*
X2618807Y1005848D1*
Y1002046D1*
X2620753Y996298D1*
X2624555Y992495D1*
X2628402Y990550D1*
X2634106D1*
X2637952Y992495D1*
X2641755Y996298D1*
X2648317Y1030742D2*
Y990550D1*
X2664429Y1017344D2*
X2660626Y1015443D1*
X2656780Y1011596D1*
X2654878Y1005848D1*
Y1002046D1*
X2656780Y996298D1*
X2660626Y992495D1*
X2664429Y990550D1*
X2670177D1*
X2674024Y992495D1*
X2677826Y996298D1*
X2679772Y1002046D1*
Y1005848D1*
X2677826Y1011596D1*
X2674024Y1015443D1*
X2670177Y1017344D1*
X2664429D1*
X2709281Y1015443D2*
Y984802D1*
X2707380Y979098D1*
X2705479Y977152D1*
X2701632Y975251D1*
X2695884D1*
X2692081Y977152D1*
X2709281Y1009695D2*
X2705479Y1013498D1*
X2701632Y1015443D1*
X2695884D1*
X2692081Y1013498D1*
X2688235Y1009695D1*
X2686333Y1003947D1*
Y1000100D1*
X2688235Y994396D1*
X2692081Y990550D1*
X2695884Y988648D1*
X2701632D1*
X2705479Y990550D1*
X2709281Y994396D1*
X2748934Y1030742D2*
Y990550D1*
X2755496Y1017344D2*
Y990550D1*
Y1009695D2*
X2761244Y1015443D1*
X2765090Y1017344D1*
X2770794D1*
X2774641Y1015443D1*
X2776542Y1009695D1*
Y990550D1*
X2420208Y1162434D2*
X2414460Y1160533D1*
X2410613Y1154785D1*
X2408712Y1145234D1*
Y1139486D1*
X2410613Y1129936D1*
X2414460Y1124188D1*
X2420208Y1122286D1*
X2424011D1*
X2429759Y1124188D1*
X2433561Y1129936D1*
X2435507Y1139486D1*
Y1145234D1*
X2433561Y1154785D1*
X2429759Y1160533D1*
X2424011Y1162434D1*
X2420208D1*
X2433561Y1154785D2*
X2410613Y1129936D1*
X2508752Y1154785D2*
X2512598Y1156730D1*
X2518346Y1162434D1*
Y1122286D1*
X2610737Y1152884D2*
Y1154785D1*
X2612638Y1158632D1*
X2614539Y1160533D1*
X2618386Y1162434D1*
X2626035D1*
X2629838Y1160533D1*
X2631739Y1158632D1*
X2633685Y1154785D1*
Y1150982D1*
X2631739Y1147136D1*
X2627937Y1141432D1*
X2608791Y1122286D1*
X2635586D1*
X2712342Y1162434D2*
X2733345D1*
X2721893Y1147136D1*
X2727641D1*
X2731443Y1145234D1*
X2733345Y1143333D1*
X2735290Y1137585D1*
Y1133783D1*
X2733345Y1128034D1*
X2729542Y1124188D1*
X2723794Y1122286D1*
X2718046D1*
X2712342Y1124188D1*
X2710441Y1126133D1*
X2708496Y1129936D1*
X2827848Y1122286D2*
Y1162434D1*
X2808703Y1135684D1*
X2837399D1*
X2931690Y1162434D2*
X2912589D1*
X2910688Y1145234D1*
X2912589Y1147136D1*
X2918337Y1149081D1*
X2924041D1*
X2929789Y1147136D1*
X2933636Y1143333D1*
X2935537Y1137585D1*
Y1133783D1*
X2933636Y1128034D1*
X2929789Y1124188D1*
X2924041Y1122286D1*
X2918337D1*
X2912589Y1124188D1*
X2910688Y1126133D1*
X2908742Y1129936D1*
X1364842Y2888221D2*
X1380185Y2848029D1*
X1395484Y2888221D1*
X1389736Y2874824D2*
X1370590D1*
X1358281Y2867174D2*
X1341081D1*
X1335333Y2865229D1*
X1333387Y2863328D1*
X1331486Y2859525D1*
Y2855678D1*
X1333387Y2851876D1*
X1335333Y2849930D1*
X1341081Y2848029D1*
X1358281D1*
Y2888221D1*
X1344883Y2867174D2*
X1331486Y2888221D1*
X1324924Y2872922D2*
X1301977D1*
Y2869076D1*
X1303878Y2865229D1*
X1305779Y2863328D1*
X1309626Y2861426D1*
X1315374D1*
X1319176Y2863328D1*
X1323023Y2867174D1*
X1324924Y2872922D1*
Y2876725D1*
X1323023Y2882473D1*
X1319176Y2886276D1*
X1315374Y2888221D1*
X1309626D1*
X1305779Y2886276D1*
X1301977Y2882473D1*
X1280116Y2848029D2*
X1283919D1*
X1287766Y2849930D1*
X1289667Y2855678D1*
Y2888221D1*
X1295415Y2861426D2*
X1282018D1*
X1497376Y2863328D2*
Y2893969D1*
X1499277Y2899673D1*
X1501179Y2901618D1*
X1505025Y2903520D1*
X1510773D1*
X1514576Y2901618D1*
X1497376Y2869076D2*
X1501178Y2865273D1*
X1505025Y2863328D1*
X1510773D1*
X1514576Y2865273D1*
X1518423Y2869076D1*
X1520324Y2874824D1*
Y2878670D1*
X1518423Y2884374D1*
X1514576Y2888221D1*
X1510773Y2890122D1*
X1505025D1*
X1501179Y2888221D1*
X1497376Y2884374D1*
X1490814Y2861426D2*
Y2888221D1*
Y2869076D2*
X1485066Y2863328D1*
X1481219Y2861426D1*
X1475516D1*
X1471669Y2863328D1*
X1469768Y2869076D1*
Y2888221D1*
X1440258Y2848029D2*
Y2888221D1*
Y2867174D2*
X1444061Y2863328D1*
X1447907Y2861426D1*
X1453655D1*
X1457458Y2863328D1*
X1461305Y2867174D1*
X1463206Y2872922D1*
Y2876725D1*
X1461305Y2882473D1*
X1457458Y2886276D1*
X1453655Y2888221D1*
X1447907D1*
X1444061Y2886276D1*
X1440258Y2882473D1*
X1605282Y2855723D2*
X1601435Y2853777D1*
X1595687Y2848073D1*
Y2888221D1*
X1585279Y2848073D2*
X1564276D1*
X1575728Y2863372D1*
X1569980D1*
X1566178Y2865273D1*
X1564276Y2867174D1*
X1562331Y2872922D1*
Y2876725D1*
X1564276Y2882473D1*
X1568079Y2886320D1*
X1573827Y2888221D1*
X1579575D1*
X1585279Y2886320D1*
X1587180Y2884374D1*
X1589126Y2880572D1*
X1705322Y2855723D2*
X1701475Y2853777D1*
X1695727Y2848073D1*
Y2888221D1*
X1687220Y2857624D2*
Y2855723D1*
X1685318Y2851876D1*
X1683417Y2849975D1*
X1679570Y2848073D1*
X1671921D1*
X1668119Y2849975D1*
X1666217Y2851876D1*
X1664272Y2855723D1*
Y2859525D1*
X1666217Y2863372D1*
X1670020Y2869076D1*
X1689165Y2888221D1*
X1662371D1*
X1805529Y2855723D2*
X1801682Y2853777D1*
X1795934Y2848073D1*
Y2888221D1*
X1789372Y2855723D2*
X1785526Y2853777D1*
X1779777Y2848073D1*
X1779778Y2888221D1*
X1905568Y2855723D2*
X1901722Y2853777D1*
X1895974Y2848073D1*
Y2888221D1*
X1877916Y2848073D2*
X1883664Y2849975D1*
X1887511Y2855723D1*
X1889412Y2865273D1*
Y2871021D1*
X1887511Y2880572D1*
X1883664Y2886320D1*
X1877916Y2888221D1*
X1874113D1*
X1868365Y2886320D1*
X1864563Y2880572D1*
X1862617Y2871021D1*
Y2865273D1*
X1864563Y2855723D1*
X1868365Y2849975D1*
X1874113Y2848073D1*
X1877916D1*
X1864563Y2855723D2*
X1887511Y2880572D1*
X1960606Y2861426D2*
X1962552Y2867174D1*
X1966354Y2871021D1*
X1972102Y2872922D1*
X1974003D1*
X1979751Y2871021D1*
X1983554Y2867174D1*
X1985499Y2861426D1*
Y2859525D1*
X1983554Y2853777D1*
X1979751Y2849975D1*
X1974003Y2848073D1*
X1972102D1*
X1966354Y2849975D1*
X1962552Y2853777D1*
X1960606Y2861426D1*
Y2871021D1*
X1962552Y2880572D1*
X1966354Y2886320D1*
X1972102Y2888221D1*
X1975905D1*
X1981653Y2886320D1*
X1983554Y2882473D1*
X2075988Y2848073D2*
X2081692Y2849975D1*
X2083638Y2853777D1*
Y2857624D1*
X2081692Y2861426D1*
X2077890Y2863372D1*
X2070240Y2865273D1*
X2064492Y2867174D1*
X2060690Y2871021D1*
X2058789Y2874824D1*
Y2880572D1*
X2060690Y2884374D1*
X2062591Y2886320D1*
X2068339Y2888221D1*
X2075988D1*
X2081692Y2886320D1*
X2083638Y2884374D1*
X2085539Y2880572D1*
Y2874824D1*
X2083638Y2871021D1*
X2079791Y2867174D1*
X2074087Y2865273D1*
X2066438Y2863372D1*
X2062591Y2861426D1*
X2060690Y2857624D1*
Y2853777D1*
X2062591Y2849975D1*
X2068339Y2848073D1*
X2075988D1*
X2237584Y2888221D2*
X2218439Y2848073D1*
X2245234D1*
X2322325Y2853777D2*
X2324227Y2849975D1*
X2329975Y2848073D1*
X2333777D1*
X2339525Y2849975D1*
X2343372Y2855723D1*
X2345273Y2865273D1*
Y2874824D1*
X2343372Y2882473D1*
X2339525Y2886320D1*
X2333777Y2888221D1*
X2331876D1*
X2326172Y2886320D1*
X2322325Y2882473D1*
X2320424Y2876725D1*
Y2874824D1*
X2322325Y2869076D1*
X2326172Y2865273D1*
X2331876Y2863372D1*
X2333777D1*
X2339525Y2865273D1*
X2343372Y2869076D1*
X2345273Y2874824D1*
X2422532Y2848073D2*
X2441634D1*
X2443535Y2865273D1*
X2441634Y2863372D1*
X2435886Y2861426D1*
X2430182D1*
X2424434Y2863372D1*
X2420587Y2867174D1*
X2418686Y2872923D1*
Y2876725D1*
X2420587Y2882473D1*
X2424434Y2886320D1*
X2430182Y2888221D1*
X2435886D1*
X2441634Y2886320D1*
X2443535Y2884374D1*
X2445480Y2880572D1*
X2526375Y2888221D2*
Y2848073D1*
X2545520Y2874824D1*
X2516824D1*
X2641713Y2848073D2*
X2620710D1*
X2632162Y2863372D1*
X2626414D1*
X2622612Y2865273D1*
X2620710Y2867174D1*
X2618765Y2872923D1*
Y2876725D1*
X2620710Y2882473D1*
X2624513Y2886320D1*
X2630261Y2888221D1*
X2636009D1*
X2641713Y2886320D1*
X2643614Y2884374D1*
X2645560Y2880572D1*
X2743654Y2857624D2*
Y2855723D1*
X2741752Y2851876D1*
X2739851Y2849975D1*
X2736004Y2848073D1*
X2728355D1*
X2724552Y2849975D1*
X2722651Y2851876D1*
X2720706Y2855723D1*
Y2859525D1*
X2722651Y2863372D1*
X2726454Y2869076D1*
X2745599Y2888221D1*
X2718805D1*
X2845304Y2855723D2*
X2841457Y2853777D1*
X2835709Y2848073D1*
Y2888221D1*
X2933847Y2848073D2*
X2939595Y2849975D1*
X2943442Y2855723D1*
X2945343Y2865273D1*
Y2871021D1*
X2943442Y2880572D1*
X2939595Y2886320D1*
X2933847Y2888221D1*
X2930045D1*
X2924297Y2886320D1*
X2920494Y2880572D1*
X2918548Y2871021D1*
Y2865273D1*
X2920494Y2855723D1*
X2924296Y2849975D1*
X2930044Y2848073D1*
X2933847D1*
X2920494Y2855723D2*
X2943442Y2880572D1*
X1668721Y3062471D2*
Y3022279D1*
X1682118D1*
X1687866Y3024224D1*
X1691713Y3028027D1*
X1693614Y3031874D1*
X1695515Y3037577D1*
Y3047172D1*
X1693614Y3052920D1*
X1691713Y3056723D1*
X1687866Y3060570D1*
X1682118Y3062471D1*
X1668721D1*
X1702077D2*
X1703978Y3060570D1*
X1705924Y3062471D1*
X1703978Y3064416D1*
X1702077Y3062471D1*
X1703978Y3049074D2*
Y3022279D1*
X1735433Y3047172D2*
Y3016531D1*
X1733532Y3010827D1*
X1731631Y3008882D1*
X1727784Y3006980D1*
X1722036D1*
X1718234Y3008882D1*
X1735433Y3041424D2*
X1731631Y3045227D1*
X1727784Y3047172D1*
X1722036D1*
X1718234Y3045227D1*
X1714387Y3041424D1*
X1712486Y3035676D1*
Y3031829D1*
X1714387Y3026126D1*
X1718234Y3022279D1*
X1722036Y3020378D1*
X1727784D1*
X1731631Y3022279D1*
X1735433Y3026126D1*
X1741995Y3062471D2*
X1743896Y3060570D1*
X1745842Y3062471D1*
X1743896Y3064416D1*
X1741995Y3062471D1*
X1743896Y3049074D2*
Y3022279D1*
X1758152Y3062471D2*
Y3029928D1*
X1760053Y3024224D1*
X1763900Y3022279D1*
X1767702D1*
X1752404Y3049074D2*
X1765801D1*
X1797212D2*
Y3022279D1*
Y3043326D2*
X1793409Y3047172D1*
X1789563Y3049074D1*
X1783859D1*
X1780012Y3047172D1*
X1776209Y3043326D1*
X1774264Y3037577D1*
Y3033775D1*
X1776209Y3028027D1*
X1780012Y3024224D1*
X1783859Y3022279D1*
X1789563D1*
X1793409Y3024224D1*
X1797212Y3028027D1*
X1803773Y3062471D2*
Y3022279D1*
X1843426Y3062471D2*
Y3022279D1*
X1849988D2*
X1876783Y3062427D1*
X1894840Y3062471D2*
X1890994Y3060570D1*
X1887191Y3056723D1*
X1885246Y3052920D1*
X1883344Y3047172D1*
Y3037577D1*
X1885246Y3031874D1*
X1887191Y3028027D1*
X1890994Y3024224D1*
X1894840Y3022279D1*
X1902490D1*
X1906292Y3024224D1*
X1910139Y3028027D1*
X1912040Y3031874D1*
X1913941Y3037577D1*
Y3047172D1*
X1912040Y3052920D1*
X1910139Y3056723D1*
X1906292Y3060570D1*
X1902490Y3062471D1*
X1894840D1*
X2428485D2*
Y3022279D1*
X2441883D1*
X2447631Y3024224D1*
X2451477Y3028027D1*
X2453379Y3031874D1*
X2455280Y3037577D1*
Y3047172D1*
X2453379Y3052920D1*
X2451477Y3056723D1*
X2447631Y3060570D1*
X2441883Y3062471D1*
X2428485D1*
X2461842D2*
X2463743Y3060570D1*
X2465688Y3062471D1*
X2463743Y3064416D1*
X2461842Y3062471D1*
X2463743Y3049074D2*
Y3022279D1*
X2495198Y3047172D2*
Y3016531D1*
X2493297Y3010827D1*
X2491395Y3008882D1*
X2487549Y3006980D1*
X2481801D1*
X2477998Y3008882D1*
X2495198Y3041424D2*
X2491395Y3045227D1*
X2487549Y3047172D1*
X2481801D1*
X2477998Y3045227D1*
X2474151Y3041424D1*
X2472250Y3035676D1*
Y3031829D1*
X2474151Y3026126D1*
X2477998Y3022279D1*
X2481801Y3020378D1*
X2487549D1*
X2491395Y3022279D1*
X2495198Y3026126D1*
X2501760Y3062471D2*
X2503661Y3060570D1*
X2505606Y3062471D1*
X2503661Y3064416D1*
X2501760Y3062471D1*
X2503661Y3049074D2*
Y3022279D1*
X2517916Y3062471D2*
Y3029928D1*
X2519817Y3024224D1*
X2523664Y3022279D1*
X2527467D1*
X2512168Y3049074D2*
X2525565D1*
X2556976D2*
Y3022279D1*
Y3043326D2*
X2553174Y3047172D1*
X2549327Y3049074D1*
X2543623D1*
X2539776Y3047172D1*
X2535974Y3043326D1*
X2534028Y3037577D1*
Y3033775D1*
X2535974Y3028027D1*
X2539776Y3024224D1*
X2543623Y3022279D1*
X2549327D1*
X2553174Y3024224D1*
X2556976Y3028027D1*
X2563538Y3062471D2*
Y3022279D1*
X2603191Y3062471D2*
Y3022279D1*
X2609752D2*
X2636547Y3062427D1*
X2654605Y3062471D2*
X2650758Y3060570D1*
X2646956Y3056723D1*
X2645010Y3052920D1*
X2643109Y3047172D1*
Y3037577D1*
X2645010Y3031874D1*
X2646956Y3028027D1*
X2650758Y3024224D1*
X2654605Y3022279D1*
X2662254D1*
X2666057Y3024224D1*
X2669903Y3028027D1*
X2671805Y3031874D1*
X2673706Y3037577D1*
Y3047172D1*
X2671805Y3052920D1*
X2669903Y3056723D1*
X2666057Y3060570D1*
X2662254Y3062471D1*
X2654605D1*
M02*
